G04*
G04 #@! TF.GenerationSoftware,Altium Limited,Altium Designer,18.1.1 (9)*
G04*
G04 Layer_Physical_Order=2*
G04 Layer_Color=16711680*
%FSLAX42Y42*%
%MOMM*%
G71*
G01*
G75*
%ADD32C,1.20*%
%ADD34R,1.00X0.80*%
%ADD45C,0.30*%
%ADD47C,0.40*%
%ADD48C,0.50*%
%ADD52R,1.60X1.60*%
%ADD53C,2.20*%
%ADD54O,2.25X2.20*%
%ADD55C,1.80*%
%ADD56C,1.00*%
%ADD57R,1.71X1.71*%
%ADD58C,1.71*%
%ADD59R,1.71X1.71*%
%ADD60C,1.25*%
%ADD61R,1.50X1.50*%
G36*
X6350Y39D02*
X2556D01*
X2535Y49D01*
X2535Y64D01*
Y271D01*
X2382D01*
X2296Y356D01*
X2280Y367D01*
X2260Y371D01*
X1902D01*
X1880Y380D01*
X1880Y396D01*
Y580D01*
X1680D01*
Y396D01*
X1680Y380D01*
X1658Y371D01*
X1648D01*
X1647Y374D01*
X1633Y393D01*
X1614Y407D01*
X1593Y416D01*
X1570Y419D01*
X1547Y416D01*
X1526Y407D01*
X1507Y393D01*
X1493Y374D01*
X1484Y353D01*
X1481Y330D01*
X1484Y307D01*
X1493Y286D01*
X1507Y267D01*
X1526Y253D01*
X1547Y244D01*
X1549Y244D01*
X1561Y218D01*
X1561Y217D01*
X1549Y190D01*
X1547Y173D01*
X1662D01*
Y147D01*
X1547D01*
X1549Y130D01*
X1561Y102D01*
X1580Y78D01*
X1598Y64D01*
X1591Y39D01*
X39D01*
Y1761D01*
X6350D01*
X6350Y39D01*
D02*
G37*
%LPC*%
G36*
X1960Y1615D02*
X1893D01*
Y1558D01*
X1960D01*
Y1615D01*
D02*
G37*
G36*
X1867D02*
X1800D01*
Y1558D01*
X1867D01*
Y1615D01*
D02*
G37*
G36*
X1760D02*
X1693D01*
Y1558D01*
X1760D01*
Y1615D01*
D02*
G37*
G36*
X1667D02*
X1600D01*
Y1558D01*
X1667D01*
Y1615D01*
D02*
G37*
G36*
X763Y1519D02*
Y1413D01*
X869D01*
X867Y1431D01*
X855Y1461D01*
X836Y1486D01*
X811Y1505D01*
X781Y1517D01*
X763Y1519D01*
D02*
G37*
G36*
X737Y1519D02*
X719Y1517D01*
X689Y1505D01*
X664Y1486D01*
X645Y1461D01*
X633Y1431D01*
X631Y1413D01*
X737D01*
Y1519D01*
D02*
G37*
G36*
X869Y1387D02*
X750D01*
X631D01*
X633Y1369D01*
X645Y1339D01*
X664Y1315D01*
X664Y1314D01*
X654Y1291D01*
X650Y1291D01*
X613Y1286D01*
X579Y1272D01*
X550Y1250D01*
X528Y1221D01*
X514Y1187D01*
X510Y1163D01*
X650D01*
X790D01*
X786Y1187D01*
X772Y1221D01*
X750Y1250D01*
X744Y1255D01*
X748Y1272D01*
X753Y1279D01*
X781Y1283D01*
X811Y1295D01*
X836Y1314D01*
X855Y1339D01*
X867Y1369D01*
X869Y1387D01*
D02*
G37*
G36*
X250Y1509D02*
X221Y1505D01*
X194Y1494D01*
X171Y1476D01*
X153Y1453D01*
X142Y1426D01*
X138Y1397D01*
X142Y1368D01*
X153Y1341D01*
X171Y1318D01*
X194Y1300D01*
X221Y1289D01*
X250Y1285D01*
X279Y1289D01*
X306Y1300D01*
X329Y1318D01*
X347Y1341D01*
X358Y1368D01*
X362Y1397D01*
X358Y1426D01*
X347Y1453D01*
X329Y1476D01*
X306Y1494D01*
X279Y1505D01*
X250Y1509D01*
D02*
G37*
G36*
X1960Y1532D02*
X1800D01*
Y1475D01*
X1805D01*
Y1345D01*
X1828D01*
X1830Y1320D01*
X1819Y1311D01*
X1805Y1293D01*
X1797Y1272D01*
X1794Y1250D01*
X1797Y1228D01*
X1805Y1207D01*
X1819Y1189D01*
X1837Y1175D01*
X1858Y1167D01*
X1880Y1164D01*
X1902Y1167D01*
X1923Y1175D01*
X1941Y1189D01*
X1955Y1207D01*
X1963Y1228D01*
X1966Y1250D01*
X1963Y1272D01*
X1955Y1293D01*
X1941Y1311D01*
X1930Y1320D01*
X1932Y1345D01*
X1955D01*
Y1475D01*
X1960D01*
Y1532D01*
D02*
G37*
G36*
X1760D02*
X1600D01*
Y1475D01*
X1605D01*
Y1345D01*
X1628D01*
X1630Y1320D01*
X1619Y1311D01*
X1605Y1293D01*
X1597Y1272D01*
X1594Y1250D01*
X1597Y1228D01*
X1605Y1207D01*
X1619Y1189D01*
X1637Y1175D01*
X1658Y1167D01*
X1680Y1164D01*
X1702Y1167D01*
X1723Y1175D01*
X1741Y1189D01*
X1755Y1207D01*
X1763Y1228D01*
X1766Y1250D01*
X1763Y1272D01*
X1755Y1293D01*
X1741Y1311D01*
X1730Y1320D01*
X1732Y1345D01*
X1755D01*
Y1475D01*
X1760D01*
Y1532D01*
D02*
G37*
G36*
X1363Y1290D02*
Y1163D01*
X1492D01*
X1489Y1187D01*
X1475Y1221D01*
X1452Y1250D01*
X1423Y1272D01*
X1389Y1286D01*
X1363Y1290D01*
D02*
G37*
G36*
X1250Y1516D02*
X1220Y1512D01*
X1192Y1501D01*
X1168Y1482D01*
X1149Y1458D01*
X1138Y1430D01*
X1134Y1400D01*
X1138Y1370D01*
X1149Y1342D01*
X1168Y1318D01*
X1192Y1299D01*
X1220Y1288D01*
X1250Y1284D01*
X1251Y1284D01*
X1261Y1260D01*
X1248Y1250D01*
X1225Y1221D01*
X1211Y1187D01*
X1208Y1163D01*
X1337D01*
Y1290D01*
X1337Y1290D01*
X1327Y1314D01*
X1332Y1318D01*
X1351Y1342D01*
X1362Y1370D01*
X1366Y1400D01*
X1362Y1430D01*
X1351Y1458D01*
X1332Y1482D01*
X1308Y1501D01*
X1280Y1512D01*
X1250Y1516D01*
D02*
G37*
G36*
X263Y1258D02*
Y1156D01*
X365D01*
X363Y1173D01*
X351Y1201D01*
X332Y1225D01*
X308Y1244D01*
X280Y1256D01*
X263Y1258D01*
D02*
G37*
G36*
X237D02*
X220Y1256D01*
X192Y1244D01*
X168Y1225D01*
X149Y1201D01*
X137Y1173D01*
X135Y1156D01*
X237D01*
Y1258D01*
D02*
G37*
G36*
X365Y1130D02*
X263D01*
Y1028D01*
X280Y1030D01*
X308Y1042D01*
X332Y1061D01*
X351Y1085D01*
X363Y1113D01*
X365Y1130D01*
D02*
G37*
G36*
X237D02*
X135D01*
X137Y1113D01*
X149Y1085D01*
X168Y1061D01*
X192Y1042D01*
X220Y1030D01*
X237Y1028D01*
Y1130D01*
D02*
G37*
G36*
X2720Y1619D02*
X2697Y1616D01*
X2676Y1607D01*
X2657Y1593D01*
X2643Y1574D01*
X2634Y1553D01*
X2631Y1530D01*
X2634Y1507D01*
X2643Y1486D01*
X2657Y1467D01*
X2658Y1467D01*
X2667Y1443D01*
X2653Y1424D01*
X2644Y1403D01*
X2641Y1380D01*
X2644Y1357D01*
X2653Y1336D01*
X2667Y1317D01*
X2686Y1303D01*
X2707Y1294D01*
X2730Y1291D01*
X2742Y1293D01*
X2887Y1147D01*
X2887Y1147D01*
X2902Y1137D01*
X2920Y1134D01*
X5375D01*
X5387Y1117D01*
X5406Y1103D01*
X5427Y1094D01*
X5435Y1093D01*
X5440Y1093D01*
Y1067D01*
X5435Y1067D01*
X5427Y1066D01*
X5406Y1057D01*
X5387Y1043D01*
X5375Y1026D01*
X3050Y1026D01*
X3050Y1026D01*
X3032Y1023D01*
X3017Y1013D01*
X3017Y1013D01*
X2973Y968D01*
X2970Y969D01*
X2947Y966D01*
X2926Y957D01*
X2907Y943D01*
X2893Y924D01*
X2884Y903D01*
X2881Y880D01*
X2884Y857D01*
X2893Y836D01*
X2907Y817D01*
X2926Y803D01*
X2942Y796D01*
X2949Y780D01*
X2950Y769D01*
X2940Y757D01*
X2930Y759D01*
X2907Y756D01*
X2886Y747D01*
X2867Y733D01*
X2853Y714D01*
X2844Y693D01*
X2841Y670D01*
X2844Y647D01*
X2853Y626D01*
X2867Y607D01*
X2886Y593D01*
X2907Y584D01*
X2930Y581D01*
X2953Y584D01*
X2974Y593D01*
X2993Y607D01*
X3007Y626D01*
X3016Y647D01*
X3019Y670D01*
X3016Y690D01*
X3059Y734D01*
X5375Y734D01*
X5387Y717D01*
X5406Y703D01*
X5427Y694D01*
X5450Y691D01*
X5473Y694D01*
X5494Y703D01*
X5513Y717D01*
X5527Y736D01*
X5536Y757D01*
X5539Y780D01*
X5536Y803D01*
X5527Y824D01*
X5513Y843D01*
X5494Y857D01*
X5473Y866D01*
X5465Y867D01*
X5460Y867D01*
Y893D01*
X5465Y893D01*
X5473Y894D01*
X5494Y903D01*
X5513Y917D01*
X5527Y936D01*
X5536Y957D01*
X5539Y980D01*
X5536Y1003D01*
X5527Y1024D01*
X5513Y1043D01*
X5494Y1057D01*
X5473Y1066D01*
X5465Y1067D01*
X5460Y1067D01*
Y1093D01*
X5465Y1093D01*
X5473Y1094D01*
X5494Y1103D01*
X5513Y1117D01*
X5527Y1136D01*
X5536Y1157D01*
X5539Y1180D01*
X5536Y1203D01*
X5527Y1224D01*
X5513Y1243D01*
X5494Y1257D01*
X5473Y1266D01*
X5465Y1267D01*
X5460Y1267D01*
Y1293D01*
X5465Y1293D01*
X5473Y1294D01*
X5494Y1303D01*
X5513Y1317D01*
X5527Y1336D01*
X5536Y1357D01*
X5539Y1380D01*
X5536Y1403D01*
X5527Y1424D01*
X5513Y1443D01*
X5494Y1457D01*
X5473Y1466D01*
X5450Y1469D01*
X5427Y1466D01*
X5406Y1457D01*
X5387Y1443D01*
X5375Y1426D01*
X2979D01*
X2833Y1573D01*
X2818Y1583D01*
X2800Y1586D01*
X2800Y1586D01*
X2788D01*
X2783Y1593D01*
X2764Y1607D01*
X2743Y1616D01*
X2720Y1619D01*
D02*
G37*
G36*
X637Y1137D02*
X510D01*
X514Y1113D01*
X528Y1079D01*
X550Y1050D01*
X579Y1028D01*
X613Y1014D01*
X637Y1010D01*
Y1137D01*
D02*
G37*
G36*
X790D02*
X663D01*
Y1010D01*
X687Y1014D01*
X721Y1028D01*
X750Y1050D01*
X772Y1079D01*
X786Y1113D01*
X790Y1137D01*
D02*
G37*
G36*
X1492D02*
X1363D01*
Y1010D01*
X1389Y1014D01*
X1423Y1028D01*
X1452Y1050D01*
X1475Y1079D01*
X1489Y1113D01*
X1492Y1137D01*
D02*
G37*
G36*
X1337D02*
X1208D01*
X1211Y1113D01*
X1225Y1079D01*
X1248Y1050D01*
X1277Y1028D01*
X1311Y1014D01*
X1337Y1010D01*
Y1137D01*
D02*
G37*
G36*
X250Y1001D02*
X221Y997D01*
X194Y986D01*
X171Y968D01*
X153Y945D01*
X142Y918D01*
X138Y889D01*
X142Y860D01*
X153Y833D01*
X171Y810D01*
X194Y792D01*
X221Y781D01*
X250Y777D01*
X279Y781D01*
X306Y792D01*
X329Y810D01*
X347Y833D01*
X358Y860D01*
X362Y889D01*
X358Y918D01*
X347Y945D01*
X329Y968D01*
X306Y986D01*
X279Y997D01*
X250Y1001D01*
D02*
G37*
G36*
X1363Y790D02*
Y663D01*
X1490D01*
X1486Y687D01*
X1472Y721D01*
X1450Y750D01*
X1421Y772D01*
X1387Y786D01*
X1363Y790D01*
D02*
G37*
G36*
X1337D02*
X1313Y786D01*
X1279Y772D01*
X1250Y750D01*
X1228Y721D01*
X1214Y687D01*
X1210Y663D01*
X1337D01*
Y790D01*
D02*
G37*
G36*
X663Y790D02*
Y663D01*
X792D01*
X789Y687D01*
X775Y721D01*
X752Y750D01*
X723Y772D01*
X689Y786D01*
X663Y790D01*
D02*
G37*
G36*
X637D02*
X611Y786D01*
X577Y772D01*
X548Y750D01*
X525Y721D01*
X511Y687D01*
X508Y663D01*
X637D01*
Y790D01*
D02*
G37*
G36*
X990Y1649D02*
X967Y1646D01*
X946Y1637D01*
X927Y1623D01*
X913Y1604D01*
X904Y1583D01*
X901Y1560D01*
X904Y1537D01*
X913Y1516D01*
X927Y1497D01*
X939Y1489D01*
Y801D01*
X927Y793D01*
X913Y774D01*
X904Y753D01*
X901Y730D01*
X904Y707D01*
X913Y686D01*
X927Y667D01*
X946Y653D01*
X967Y644D01*
X990Y641D01*
X1013Y644D01*
X1034Y653D01*
X1053Y667D01*
X1067Y686D01*
X1076Y707D01*
X1079Y730D01*
X1076Y753D01*
X1067Y774D01*
X1053Y793D01*
X1041Y801D01*
Y1489D01*
X1053Y1497D01*
X1067Y1516D01*
X1076Y1537D01*
X1079Y1560D01*
X1076Y1583D01*
X1067Y1604D01*
X1053Y1623D01*
X1034Y1637D01*
X1013Y1646D01*
X990Y1649D01*
D02*
G37*
G36*
X250Y747D02*
X221Y743D01*
X194Y732D01*
X171Y714D01*
X153Y691D01*
X142Y664D01*
X138Y635D01*
X142Y606D01*
X153Y579D01*
X171Y556D01*
X194Y538D01*
X221Y527D01*
X250Y523D01*
X279Y527D01*
X306Y538D01*
X329Y556D01*
X347Y579D01*
X358Y606D01*
X362Y635D01*
X358Y664D01*
X347Y691D01*
X329Y714D01*
X306Y732D01*
X279Y743D01*
X250Y747D01*
D02*
G37*
G36*
X1337Y637D02*
X1210D01*
X1214Y613D01*
X1228Y579D01*
X1250Y550D01*
X1264Y540D01*
X1254Y516D01*
X1250Y516D01*
X1220Y512D01*
X1192Y501D01*
X1168Y482D01*
X1149Y458D01*
X1138Y430D01*
X1134Y400D01*
X1138Y370D01*
X1149Y342D01*
X1168Y318D01*
X1192Y299D01*
X1220Y288D01*
X1250Y284D01*
X1280Y288D01*
X1308Y299D01*
X1332Y318D01*
X1351Y342D01*
X1362Y370D01*
X1366Y400D01*
X1362Y430D01*
X1351Y458D01*
X1332Y482D01*
X1327Y487D01*
X1337Y511D01*
X1337Y510D01*
Y637D01*
D02*
G37*
G36*
X1490D02*
X1363D01*
Y510D01*
X1387Y514D01*
X1421Y528D01*
X1450Y550D01*
X1472Y579D01*
X1486Y613D01*
X1490Y637D01*
D02*
G37*
G36*
X792D02*
X508D01*
X511Y613D01*
X525Y579D01*
X548Y550D01*
X577Y528D01*
X611Y514D01*
X647Y509D01*
X653D01*
X654Y509D01*
X664Y487D01*
X664Y485D01*
X645Y461D01*
X633Y431D01*
X631Y413D01*
X869D01*
X867Y431D01*
X855Y461D01*
X836Y486D01*
X811Y505D01*
X781Y517D01*
X755Y520D01*
X748Y533D01*
X747Y546D01*
X752Y550D01*
X775Y579D01*
X789Y613D01*
X792Y637D01*
D02*
G37*
G36*
X869Y387D02*
X763D01*
Y281D01*
X781Y283D01*
X811Y295D01*
X836Y314D01*
X855Y339D01*
X867Y369D01*
X869Y387D01*
D02*
G37*
G36*
X737D02*
X631D01*
X633Y369D01*
X645Y339D01*
X664Y314D01*
X689Y295D01*
X719Y283D01*
X737Y281D01*
Y387D01*
D02*
G37*
G36*
X4715Y675D02*
X3572D01*
Y485D01*
X3495D01*
Y275D01*
X4805D01*
Y485D01*
X4715D01*
Y675D01*
D02*
G37*
G36*
X361Y492D02*
X139D01*
Y270D01*
X361D01*
Y492D01*
D02*
G37*
%LPD*%
D32*
X1880Y1250D02*
D03*
X1680D02*
D03*
D34*
Y1410D02*
D03*
Y1545D02*
D03*
X1880Y1410D02*
D03*
Y1545D02*
D03*
D45*
X4717Y330D02*
X4750Y363D01*
Y397D01*
X4717Y430D01*
X4600Y397D02*
X4650D01*
X4667Y380D01*
Y347D01*
X4650Y330D01*
X4600D01*
X4567D02*
X4533Y363D01*
Y397D01*
X4567Y430D01*
X4383D02*
Y330D01*
Y363D01*
X4317Y430D01*
X4367Y380D01*
X4317Y330D01*
X4267Y397D02*
X4233D01*
X4217Y380D01*
Y330D01*
X4267D01*
X4283Y347D01*
X4267Y363D01*
X4217D01*
X4167Y413D02*
Y397D01*
X4184D01*
X4150D01*
X4167D01*
Y347D01*
X4150Y330D01*
X4100Y397D02*
X4034D01*
X4100Y330D01*
X4034D01*
X3834D02*
X3900D01*
X3834Y397D01*
Y413D01*
X3850Y430D01*
X3884D01*
X3900Y413D01*
X3800D02*
X3784Y430D01*
X3750D01*
X3734Y413D01*
Y347D01*
X3750Y330D01*
X3784D01*
X3800Y347D01*
Y413D01*
X3700Y330D02*
X3667D01*
X3684D01*
Y430D01*
X3700Y413D01*
X3617D02*
X3600Y430D01*
X3567D01*
X3550Y413D01*
Y397D01*
X3567Y380D01*
X3550Y363D01*
Y347D01*
X3567Y330D01*
X3600D01*
X3617Y347D01*
Y363D01*
X3600Y380D01*
X3617Y397D01*
Y413D01*
X3600Y380D02*
X3567D01*
X4660Y520D02*
Y620D01*
X4610D01*
X4593Y603D01*
Y570D01*
X4610Y553D01*
X4660D01*
X4627D02*
X4593Y520D01*
X4493Y620D02*
X4560D01*
Y570D01*
X4527D01*
X4560D01*
Y520D01*
X4460Y620D02*
Y537D01*
X4443Y520D01*
X4410D01*
X4393Y537D01*
Y620D01*
X4360Y520D02*
Y587D01*
X4327Y620D01*
X4293Y587D01*
Y520D01*
Y570D01*
X4360D01*
X4260Y520D02*
Y620D01*
X4210D01*
X4193Y603D01*
Y570D01*
X4210Y553D01*
X4260D01*
X4227D02*
X4193Y520D01*
X4160Y620D02*
X4094D01*
X4127D01*
Y520D01*
X3960Y587D02*
X3927Y520D01*
X3894Y587D01*
X3860Y520D02*
X3827D01*
X3844D01*
Y620D01*
X3860Y603D01*
X3777Y520D02*
Y537D01*
X3760D01*
Y520D01*
X3777D01*
X3694Y603D02*
X3677Y620D01*
X3644D01*
X3627Y603D01*
Y587D01*
X3644Y570D01*
X3660D01*
X3644D01*
X3627Y553D01*
Y537D01*
X3644Y520D01*
X3677D01*
X3694Y537D01*
D47*
X2920Y1180D02*
X5450D01*
X2750Y1350D02*
X2920Y1180D01*
X2750Y1350D02*
Y1360D01*
X2770Y1380D01*
X1880Y1250D02*
Y1410D01*
X1680Y1250D02*
Y1410D01*
X2960Y1380D02*
X5450D01*
X2800Y1540D02*
X2960Y1380D01*
X2760Y1540D02*
X2800D01*
X2760D02*
X2770Y1530D01*
X2755Y1545D02*
X2760Y1540D01*
X2720Y1530D02*
X2770D01*
X3050Y980D02*
X5450Y980D01*
X2970Y900D02*
X3050Y980D01*
X3040Y780D02*
X5450Y780D01*
X2930Y670D02*
X3040Y780D01*
X2970Y880D02*
Y900D01*
X2730Y1380D02*
X2770D01*
D48*
X2260Y320D02*
X2430Y150D01*
X1580Y320D02*
X2260D01*
X1570Y330D02*
X1580Y320D01*
X990Y730D02*
Y1560D01*
D52*
X6490Y380D02*
D03*
D53*
X650Y1150D02*
D03*
X1350Y650D02*
D03*
D54*
X1350Y1150D02*
D03*
X650Y650D02*
D03*
D55*
X750Y1400D02*
D03*
X1250D02*
D03*
Y400D02*
D03*
X750D02*
D03*
D56*
X8050Y-250D02*
D03*
X-250Y2050D02*
D03*
X8050D02*
D03*
X-250Y-250D02*
D03*
X5390Y630D02*
D03*
X5870Y620D02*
D03*
X5900Y130D02*
D03*
X5630D02*
D03*
X5610Y630D02*
D03*
X5750Y650D02*
D03*
X5760Y100D02*
D03*
X5530Y230D02*
D03*
X5520Y530D02*
D03*
X6270Y250D02*
D03*
X6120D02*
D03*
X5970D02*
D03*
Y790D02*
D03*
Y660D02*
D03*
Y530D02*
D03*
X6130Y790D02*
D03*
X6280D02*
D03*
X5390Y230D02*
D03*
X5470Y110D02*
D03*
D57*
X2424Y160D02*
D03*
D58*
X2170D02*
D03*
X1916D02*
D03*
X1662D02*
D03*
X250Y635D02*
D03*
Y889D02*
D03*
Y1143D02*
D03*
Y1397D02*
D03*
D59*
Y381D02*
D03*
D60*
X1570Y330D02*
D03*
X990Y1560D02*
D03*
Y730D02*
D03*
X2720Y1530D02*
D03*
X1780Y750D02*
D03*
X2970Y880D02*
D03*
X2930Y670D02*
D03*
X2730Y1380D02*
D03*
X5640Y1580D02*
D03*
X5450Y1580D02*
D03*
X2930Y460D02*
D03*
X2750D02*
D03*
X5450Y780D02*
D03*
Y980D02*
D03*
Y1180D02*
D03*
Y1380D02*
D03*
D61*
X1780Y480D02*
D03*
M02*
