M48
;Layer_Color=9474304
;FILE_FORMAT=4:2
METRIC,LZ
;TYPE=PLATED
T1F00S00C0.40
T2F00S00C0.50
T3F00S00C0.60
T4F00S00C0.80
T5F00S00C1.00
T6F00S00C1.14
T7F00S00C1.40
%
T01
X00805Y-00025
X-00025
Y00205
X00805
T02
X00547Y00011
X00563Y00013
X00576Y0001
X0059Y00013
X00597Y00025
X00612
X00627
X00553Y00023
X00539
X00293Y00046
X00275
X00293Y00067
X00297Y00088
X00273Y00138
X00272Y00153
X00178Y00075
X00157Y00033
X00099Y00073
Y00156
X00545Y00158
X00564Y00158
X00545Y00138
Y00118
Y00098
Y00078
X00539Y00063
X00561
X00575Y00065
X00587Y00062
X00597Y00066
Y00079
X00613
X00628
X00597Y00053
X00552
T03
X00168Y00125
X00188
T04
X00649Y00038
T05
X00075Y0004
X00125
Y0014
X00075
T06
X001662Y00016
X001916
X00217
X002424
X00025Y000381
Y000635
Y000889
Y001143
Y001397
T07
X00065Y00065
X00065Y00115
X00135
X00135Y00065
M30
