G04*
G04 #@! TF.GenerationSoftware,Altium Limited,Altium Designer,18.1.1 (9)*
G04*
G04 Layer_Physical_Order=1*
G04 Layer_Color=255*
%FSLAX42Y42*%
%MOMM*%
G71*
G01*
G75*
%ADD26R,0.80X1.00*%
%ADD27O,1.40X0.45*%
%ADD28R,4.50X1.20*%
%ADD29R,4.50X0.70*%
%ADD30R,1.15X1.40*%
%ADD31R,1.45X1.00*%
%ADD32R,1.00X0.80*%
%ADD33R,0.74X1.02*%
%ADD34R,2.50X1.20*%
%ADD35R,0.60X0.95*%
G04:AMPARAMS|DCode=36|XSize=0.86mm|YSize=1.35mm|CornerRadius=0.22mm|HoleSize=0mm|Usage=FLASHONLY|Rotation=0.000|XOffset=0mm|YOffset=0mm|HoleType=Round|Shape=RoundedRectangle|*
%AMROUNDEDRECTD36*
21,1,0.86,0.91,0,0,0.0*
21,1,0.42,1.35,0,0,0.0*
1,1,0.44,0.21,-0.46*
1,1,0.44,-0.21,-0.46*
1,1,0.44,-0.21,0.46*
1,1,0.44,0.21,0.46*
%
%ADD36ROUNDEDRECTD36*%
%ADD37C,1.00*%
%ADD38C,0.50*%
%ADD39C,0.30*%
%ADD40C,0.40*%
%ADD41C,0.25*%
%ADD42C,0.20*%
%ADD43C,0.80*%
%ADD44C,1.00*%
%ADD45R,1.71X1.71*%
%ADD46C,1.71*%
%ADD47R,1.71X1.71*%
%ADD48C,1.25*%
G36*
X4600Y39D02*
X4560D01*
Y100D01*
X4460D01*
X4360D01*
Y39D01*
X4080D01*
Y95D01*
X4095D01*
Y265D01*
X4080D01*
Y295D01*
X4095D01*
Y314D01*
X4374D01*
X4381Y305D01*
X4404Y287D01*
X4431Y276D01*
X4460Y273D01*
X4489Y276D01*
X4516Y287D01*
X4539Y305D01*
X4549Y318D01*
X4600D01*
Y39D01*
D02*
G37*
G36*
Y450D02*
X4549D01*
X4539Y463D01*
X4516Y481D01*
X4489Y492D01*
X4460Y495D01*
X4431Y492D01*
X4404Y481D01*
X4381Y463D01*
X4368Y446D01*
X4095D01*
Y465D01*
X4080D01*
Y495D01*
X4095D01*
Y665D01*
X4080D01*
Y695D01*
X4095D01*
Y729D01*
X4179D01*
X4187Y717D01*
X4206Y703D01*
X4227Y694D01*
X4250Y691D01*
X4273Y694D01*
X4294Y703D01*
X4313Y717D01*
X4327Y736D01*
X4336Y757D01*
X4339Y780D01*
X4336Y803D01*
X4327Y824D01*
X4313Y843D01*
X4294Y857D01*
X4273Y866D01*
X4260Y867D01*
Y893D01*
X4273Y894D01*
X4294Y903D01*
X4313Y917D01*
X4327Y936D01*
X4336Y957D01*
X4339Y980D01*
X4336Y1003D01*
X4327Y1024D01*
X4313Y1043D01*
X4294Y1057D01*
X4273Y1066D01*
X4260Y1067D01*
Y1093D01*
X4273Y1094D01*
X4294Y1103D01*
X4313Y1117D01*
X4327Y1136D01*
X4336Y1157D01*
X4339Y1180D01*
X4336Y1203D01*
X4327Y1224D01*
X4313Y1243D01*
X4294Y1257D01*
X4273Y1266D01*
X4260Y1267D01*
Y1293D01*
X4273Y1294D01*
X4294Y1303D01*
X4313Y1317D01*
X4327Y1336D01*
X4336Y1357D01*
X4339Y1380D01*
X4336Y1403D01*
X4327Y1424D01*
X4313Y1443D01*
X4294Y1457D01*
X4273Y1466D01*
X4250Y1469D01*
X4227Y1466D01*
X4206Y1457D01*
X4187Y1443D01*
X4179Y1431D01*
X4095D01*
Y1465D01*
X4080D01*
Y1495D01*
X4095D01*
Y1665D01*
X4080D01*
Y1761D01*
X4600D01*
Y450D01*
D02*
G37*
%LPC*%
G36*
X4560Y231D02*
X4490D01*
Y160D01*
X4560D01*
Y231D01*
D02*
G37*
G36*
X4430D02*
X4360D01*
Y160D01*
X4430D01*
Y231D01*
D02*
G37*
G36*
X4490Y734D02*
Y668D01*
X4556D01*
X4548Y689D01*
X4532Y710D01*
X4511Y726D01*
X4490Y734D01*
D02*
G37*
G36*
X4430Y734D02*
X4409Y726D01*
X4388Y710D01*
X4372Y689D01*
X4364Y668D01*
X4430D01*
Y734D01*
D02*
G37*
G36*
X4556Y608D02*
X4490D01*
Y542D01*
X4511Y550D01*
X4532Y566D01*
X4548Y587D01*
X4556Y608D01*
D02*
G37*
G36*
X4430D02*
X4364D01*
X4372Y587D01*
X4388Y566D01*
X4409Y550D01*
X4430Y542D01*
Y608D01*
D02*
G37*
%LPD*%
D26*
X582Y400D02*
D03*
X718D02*
D03*
D27*
X1260Y650D02*
D03*
Y715D02*
D03*
Y780D02*
D03*
Y845D02*
D03*
Y910D02*
D03*
Y975D02*
D03*
Y1040D02*
D03*
Y1105D02*
D03*
Y1170D02*
D03*
Y1235D02*
D03*
X670Y650D02*
D03*
Y715D02*
D03*
Y780D02*
D03*
Y845D02*
D03*
Y910D02*
D03*
Y975D02*
D03*
Y1040D02*
D03*
Y1105D02*
D03*
Y1170D02*
D03*
Y1235D02*
D03*
D28*
X5210Y1570D02*
D03*
Y370D02*
D03*
D29*
Y970D02*
D03*
D30*
X4860Y370D02*
D03*
X4690D02*
D03*
D31*
X1550Y180D02*
D03*
Y340D02*
D03*
D32*
X1730Y180D02*
D03*
Y315D02*
D03*
X460Y815D02*
D03*
Y680D02*
D03*
D33*
X1227Y390D02*
D03*
X1373D02*
D03*
D34*
X3945Y180D02*
D03*
Y380D02*
D03*
Y580D02*
D03*
Y780D02*
D03*
Y980D02*
D03*
Y1180D02*
D03*
Y1380D02*
D03*
Y1580D02*
D03*
X1995Y180D02*
D03*
Y380D02*
D03*
Y580D02*
D03*
Y780D02*
D03*
Y980D02*
D03*
Y1180D02*
D03*
Y1380D02*
D03*
Y1580D02*
D03*
D35*
X975Y1620D02*
D03*
X825D02*
D03*
Y1440D02*
D03*
X975D02*
D03*
D36*
X703Y1620D02*
D03*
X516D02*
D03*
X703Y1440D02*
D03*
X516D02*
D03*
D37*
X3945Y580D02*
X4200D01*
X4240Y540D01*
X4140Y180D02*
X4190Y230D01*
X4180D02*
X4190D01*
X3945Y180D02*
X4140D01*
X3945Y1580D02*
X4250D01*
X1730Y350D02*
Y460D01*
X1550Y360D02*
Y460D01*
D38*
X582Y281D02*
Y400D01*
X462Y160D02*
X582Y281D01*
X1070Y420D02*
X1227D01*
X190Y432D02*
X460D01*
Y680D01*
X3945Y780D02*
X4250D01*
X3945Y980D02*
X4250D01*
X3945Y1180D02*
X4250D01*
X3945Y1380D02*
X4250D01*
X1550Y180D02*
X1995D01*
X1373Y227D02*
Y390D01*
Y227D02*
X1420Y180D01*
X1550D01*
X1224Y160D02*
Y388D01*
D39*
X50Y826D02*
X190Y686D01*
X50Y1000D02*
X120Y1070D01*
X50Y826D02*
Y1000D01*
X120Y1070D02*
X450D01*
D40*
X1140Y1020D02*
Y1301D01*
X1165Y1326D01*
Y1345D01*
X1441Y1710D02*
X1480D01*
X1105Y1374D02*
X1441Y1710D01*
X1105Y1351D02*
Y1374D01*
X1080Y1326D02*
X1105Y1351D01*
X1080Y940D02*
Y1326D01*
X1045Y1376D02*
Y1585D01*
X1010Y1620D02*
X1045Y1585D01*
X975Y1620D02*
X1010D01*
X1080Y940D02*
X1175Y845D01*
X1020Y1351D02*
X1045Y1376D01*
X1020Y860D02*
Y1351D01*
X1140Y1020D02*
X1185Y975D01*
X1165Y1345D02*
X1370Y1550D01*
X1020Y860D02*
X1165Y715D01*
X960Y1425D02*
X975Y1440D01*
X960Y770D02*
Y1425D01*
Y770D02*
X1080Y650D01*
X815Y1105D02*
X890Y1030D01*
Y240D02*
Y1030D01*
Y240D02*
X970Y160D01*
X670Y1105D02*
X815D01*
X1370Y1550D02*
X1590D01*
X1370Y1170D02*
X1780Y1580D01*
X1260Y1170D02*
X1370D01*
X1450Y1680D02*
X1480Y1710D01*
X390Y1520D02*
X516D01*
Y1620D01*
Y1440D02*
Y1520D01*
X703Y1440D02*
X825D01*
X703Y1620D02*
X825D01*
X1080Y650D02*
X1260D01*
X1165Y715D02*
X1260D01*
X190Y1448D02*
X403Y1235D01*
X670D01*
X345Y815D02*
X460D01*
X490Y845D01*
X670D01*
X460Y680D02*
X480D01*
X580Y780D01*
X670D01*
X716Y160D02*
Y486D01*
X830Y600D01*
Y980D01*
X770Y1040D02*
X830Y980D01*
X670Y1040D02*
X770D01*
X450Y1070D02*
X545Y975D01*
X670D01*
X510Y910D02*
X670D01*
X480Y940D02*
X510Y910D01*
X190Y940D02*
X480D01*
X1780Y1580D02*
X1995D01*
X1665Y1375D02*
X1990D01*
X1395Y1105D02*
X1665Y1375D01*
X1260Y1105D02*
X1395D01*
X1480Y1040D02*
X1575Y1135D01*
X1260Y1040D02*
X1480D01*
X1260Y910D02*
X1570D01*
X1175Y845D02*
X1260D01*
X1185Y975D02*
X1260D01*
D41*
X1224Y390D02*
X1227Y420D01*
X1224Y390D02*
Y390D01*
X1224Y388D02*
X1224Y390D01*
X4676Y384D02*
X4690Y370D01*
X4456Y380D02*
X4460Y384D01*
X4250Y780D02*
X4250Y780D01*
X4250Y1180D02*
X4250Y1180D01*
X1550Y180D02*
X1550Y180D01*
X1990Y1375D02*
X1995Y1380D01*
D42*
X4250Y1580D02*
X4250Y1580D01*
D43*
X4860Y370D02*
X5210D01*
X4460Y384D02*
X4676D01*
X3945Y380D02*
X4456D01*
D44*
X5750Y-250D02*
D03*
X-250Y2050D02*
D03*
X5750D02*
D03*
X-250Y-250D02*
D03*
D45*
X1224Y160D02*
D03*
D46*
X970D02*
D03*
X716D02*
D03*
X462D02*
D03*
X4460Y384D02*
D03*
Y638D02*
D03*
X190Y686D02*
D03*
Y940D02*
D03*
Y1194D02*
D03*
Y1448D02*
D03*
D47*
X4460Y130D02*
D03*
X190Y432D02*
D03*
D48*
X1590Y1550D02*
D03*
X1450Y1680D02*
D03*
X390Y1520D02*
D03*
X440Y420D02*
D03*
X1070D02*
D03*
X345Y815D02*
D03*
X1575Y1135D02*
D03*
X1570Y910D02*
D03*
X4440Y1580D02*
D03*
X4190Y230D02*
D03*
X4290Y520D02*
D03*
X4190Y630D02*
D03*
X4270Y110D02*
D03*
X4250Y1580D02*
D03*
X1730Y460D02*
D03*
X1550D02*
D03*
X4250Y780D02*
D03*
Y980D02*
D03*
Y1180D02*
D03*
Y1380D02*
D03*
M02*
