M48
;Layer_Color=9474304
;FILE_FORMAT=4:2
METRIC,LZ
;TYPE=PLATED
T1F00S00C0.40
T2F00S00C0.50
T3F00S00C1.14
%
T01
X00575Y-00025
X-00025
Y00205
X00575
T02
X00427Y00011
X00419Y00023
X00173Y00046
X00155
X00157Y00091
X001575Y001135
X00159Y00155
X00145Y00168
X00039Y00152
X000345Y000815
X00044Y00042
X00107
X00429Y00052
X00419Y00063
X00425Y00078
Y00098
Y00118
Y00138
X00425Y00158
X00444Y00158
T03
X00446Y00013
X001224Y00016
X00097
X000716
X000462
X00019Y000432
Y000686
Y00094
Y001194
Y001448
X00446Y000638
Y000384
M30
