G04*
G04 #@! TF.GenerationSoftware,Altium Limited,Altium Designer,18.1.1 (9)*
G04*
G04 Layer_Color=16711935*
%FSLAX42Y42*%
%MOMM*%
G71*
G01*
G75*
%ADD11R,1.20X1.00*%
%ADD22C,1.40*%
%ADD23R,1.80X1.80*%
%ADD24C,2.40*%
%ADD25O,2.45X2.40*%
%ADD26C,2.00*%
%ADD27C,1.20*%
%ADD28R,1.91X1.91*%
%ADD29C,1.91*%
%ADD30R,1.91X1.91*%
%ADD31C,1.45*%
%ADD32C,1.20*%
%ADD62R,1.70X1.70*%
D11*
X1680Y1410D02*
D03*
Y1545D02*
D03*
X1880Y1410D02*
D03*
Y1545D02*
D03*
D22*
Y1250D02*
D03*
X1680D02*
D03*
D23*
X6490Y380D02*
D03*
D24*
X650Y1150D02*
D03*
X1350Y650D02*
D03*
D25*
X1350Y1150D02*
D03*
X650Y650D02*
D03*
D26*
X750Y1400D02*
D03*
X1250D02*
D03*
Y400D02*
D03*
X750D02*
D03*
D27*
X8050Y-250D02*
D03*
X-250Y2050D02*
D03*
X8050D02*
D03*
X-250Y-250D02*
D03*
D28*
X2424Y160D02*
D03*
D29*
X2170D02*
D03*
X1916D02*
D03*
X1662D02*
D03*
X250Y635D02*
D03*
Y889D02*
D03*
Y1143D02*
D03*
Y1397D02*
D03*
D30*
Y381D02*
D03*
D31*
X1570Y330D02*
D03*
X990Y1560D02*
D03*
Y730D02*
D03*
X2720Y1530D02*
D03*
X1780Y750D02*
D03*
X2970Y880D02*
D03*
X2930Y670D02*
D03*
X2730Y1380D02*
D03*
X5640Y1580D02*
D03*
X5450Y1580D02*
D03*
X2930Y460D02*
D03*
X2750D02*
D03*
X5450Y780D02*
D03*
Y980D02*
D03*
Y1180D02*
D03*
Y1380D02*
D03*
D32*
X5390Y630D02*
D03*
X5870Y620D02*
D03*
X5900Y130D02*
D03*
X5630D02*
D03*
X5610Y630D02*
D03*
X5750Y650D02*
D03*
X5760Y100D02*
D03*
X5530Y230D02*
D03*
X5520Y530D02*
D03*
X6270Y250D02*
D03*
X6120D02*
D03*
X5970D02*
D03*
Y790D02*
D03*
Y660D02*
D03*
Y530D02*
D03*
X6130Y790D02*
D03*
X6280D02*
D03*
X5390Y230D02*
D03*
X5470Y110D02*
D03*
D62*
X1780Y480D02*
D03*
M02*
