G04*
G04 #@! TF.GenerationSoftware,Altium Limited,Altium Designer,18.1.1 (9)*
G04*
G04 Layer_Color=8388736*
%FSLAX42Y42*%
%MOMM*%
G71*
G01*
G75*
%ADD10R,4.70X1.40*%
%ADD11R,4.70X0.90*%
%ADD12R,1.35X1.60*%
%ADD13R,1.65X1.20*%
%ADD14R,1.20X1.00*%
%ADD15R,0.94X1.22*%
%ADD16R,2.70X1.40*%
%ADD17R,0.80X1.15*%
%ADD18R,0.70X0.70*%
%ADD19R,0.45X1.00*%
%ADD20R,0.70X0.70*%
%ADD21R,1.00X0.45*%
%ADD22R,1.90X1.90*%
G04:AMPARAMS|DCode=23|XSize=1.06mm|YSize=1.55mm|CornerRadius=0.32mm|HoleSize=0mm|Usage=FLASHONLY|Rotation=180.000|XOffset=0mm|YOffset=0mm|HoleType=Round|Shape=RoundedRectangle|*
%AMROUNDEDRECTD23*
21,1,1.06,0.91,0,0,180.0*
21,1,0.42,1.55,0,0,180.0*
1,1,0.64,-0.21,0.46*
1,1,0.64,0.21,0.46*
1,1,0.64,0.21,-0.46*
1,1,0.64,-0.21,-0.46*
%
%ADD23ROUNDEDRECTD23*%
%ADD24R,1.91X1.91*%
%ADD25C,1.91*%
%ADD26R,1.91X1.91*%
%ADD27C,1.45*%
D10*
X5210Y1570D02*
D03*
Y370D02*
D03*
D11*
Y970D02*
D03*
D12*
X4860Y370D02*
D03*
X4690D02*
D03*
D13*
X1550Y180D02*
D03*
Y340D02*
D03*
D14*
X1730Y180D02*
D03*
Y315D02*
D03*
X810Y522D02*
D03*
Y657D02*
D03*
D15*
X1227Y390D02*
D03*
X1373D02*
D03*
D16*
X3945Y180D02*
D03*
Y380D02*
D03*
Y580D02*
D03*
Y780D02*
D03*
Y980D02*
D03*
Y1180D02*
D03*
Y1380D02*
D03*
Y1580D02*
D03*
X1995Y180D02*
D03*
Y380D02*
D03*
Y580D02*
D03*
Y780D02*
D03*
Y980D02*
D03*
Y1180D02*
D03*
Y1380D02*
D03*
Y1580D02*
D03*
D17*
X1105Y1050D02*
D03*
X1255D02*
D03*
Y800D02*
D03*
X1105D02*
D03*
X895Y390D02*
D03*
X1045D02*
D03*
D18*
X650Y788D02*
D03*
X925Y1062D02*
D03*
D19*
X712Y782D02*
D03*
X762D02*
D03*
X812D02*
D03*
X862D02*
D03*
Y1068D02*
D03*
X812D02*
D03*
X762Y1068D02*
D03*
X712D02*
D03*
D20*
X925Y788D02*
D03*
X650Y1062D02*
D03*
D21*
X930Y850D02*
D03*
Y900D02*
D03*
Y950D02*
D03*
Y1000D02*
D03*
X645D02*
D03*
Y950D02*
D03*
Y900D02*
D03*
Y850D02*
D03*
D22*
X788Y925D02*
D03*
D23*
X1386Y1050D02*
D03*
X1573D02*
D03*
X1386Y800D02*
D03*
X1573D02*
D03*
D24*
X1224Y160D02*
D03*
D25*
X970D02*
D03*
X716D02*
D03*
X462D02*
D03*
X4460Y384D02*
D03*
Y638D02*
D03*
X190Y686D02*
D03*
Y940D02*
D03*
Y1194D02*
D03*
Y1448D02*
D03*
D26*
X4460Y130D02*
D03*
X190Y432D02*
D03*
D27*
X4440Y1580D02*
D03*
X4190Y230D02*
D03*
X4290Y520D02*
D03*
X4190Y630D02*
D03*
X4270Y110D02*
D03*
X420Y900D02*
D03*
X500Y760D02*
D03*
X585Y555D02*
D03*
X740Y420D02*
D03*
X410Y560D02*
D03*
X4250Y1580D02*
D03*
X1730Y460D02*
D03*
X1550D02*
D03*
X862Y1210D02*
D03*
X1090Y1280D02*
D03*
X4250Y780D02*
D03*
Y980D02*
D03*
Y1180D02*
D03*
Y1380D02*
D03*
M02*
