G04*
G04 #@! TF.GenerationSoftware,Altium Limited,Altium Designer,18.1.1 (9)*
G04*
G04 Layer_Physical_Order=1*
G04 Layer_Color=255*
%FSLAX42Y42*%
%MOMM*%
G71*
G01*
G75*
%ADD28R,4.50X1.20*%
%ADD29R,4.50X0.70*%
%ADD30R,1.15X1.40*%
%ADD31R,1.45X1.00*%
%ADD32R,1.00X0.80*%
%ADD33R,0.74X1.02*%
%ADD34R,2.50X1.20*%
%ADD35R,0.60X0.95*%
%ADD36R,0.50X0.50*%
%ADD37R,0.25X0.80*%
%ADD38R,0.50X0.50*%
%ADD39R,0.80X0.25*%
%ADD40R,1.70X1.70*%
G04:AMPARAMS|DCode=41|XSize=0.86mm|YSize=1.35mm|CornerRadius=0.22mm|HoleSize=0mm|Usage=FLASHONLY|Rotation=180.000|XOffset=0mm|YOffset=0mm|HoleType=Round|Shape=RoundedRectangle|*
%AMROUNDEDRECTD41*
21,1,0.86,0.91,0,0,180.0*
21,1,0.42,1.35,0,0,180.0*
1,1,0.44,-0.21,0.46*
1,1,0.44,0.21,0.46*
1,1,0.44,0.21,-0.46*
1,1,0.44,-0.21,-0.46*
%
%ADD41ROUNDEDRECTD41*%
%ADD42C,1.00*%
%ADD43C,0.50*%
%ADD44C,0.25*%
%ADD45C,0.40*%
%ADD46C,0.20*%
%ADD47C,0.80*%
%ADD48R,1.71X1.71*%
%ADD49C,1.71*%
%ADD50R,1.71X1.71*%
%ADD51C,1.25*%
G36*
X4600Y39D02*
X4560D01*
Y100D01*
X4460D01*
X4360D01*
Y39D01*
X4080D01*
Y95D01*
X4095D01*
Y265D01*
X4080D01*
Y295D01*
X4095D01*
Y314D01*
X4374D01*
X4381Y305D01*
X4404Y287D01*
X4431Y276D01*
X4460Y273D01*
X4489Y276D01*
X4516Y287D01*
X4539Y305D01*
X4549Y318D01*
X4600D01*
Y39D01*
D02*
G37*
G36*
Y450D02*
X4549D01*
X4539Y463D01*
X4516Y481D01*
X4489Y492D01*
X4460Y495D01*
X4431Y492D01*
X4404Y481D01*
X4381Y463D01*
X4368Y446D01*
X4095D01*
Y465D01*
X4080D01*
Y495D01*
X4095D01*
Y665D01*
X4080D01*
Y695D01*
X4095D01*
Y729D01*
X4179D01*
X4187Y717D01*
X4206Y703D01*
X4227Y694D01*
X4250Y691D01*
X4273Y694D01*
X4294Y703D01*
X4313Y717D01*
X4327Y736D01*
X4336Y757D01*
X4339Y780D01*
X4336Y803D01*
X4327Y824D01*
X4313Y843D01*
X4294Y857D01*
X4273Y866D01*
X4260Y867D01*
Y893D01*
X4273Y894D01*
X4294Y903D01*
X4313Y917D01*
X4327Y936D01*
X4336Y957D01*
X4339Y980D01*
X4336Y1003D01*
X4327Y1024D01*
X4313Y1043D01*
X4294Y1057D01*
X4273Y1066D01*
X4260Y1067D01*
Y1093D01*
X4273Y1094D01*
X4294Y1103D01*
X4313Y1117D01*
X4327Y1136D01*
X4336Y1157D01*
X4339Y1180D01*
X4336Y1203D01*
X4327Y1224D01*
X4313Y1243D01*
X4294Y1257D01*
X4273Y1266D01*
X4260Y1267D01*
Y1293D01*
X4273Y1294D01*
X4294Y1303D01*
X4313Y1317D01*
X4327Y1336D01*
X4336Y1357D01*
X4339Y1380D01*
X4336Y1403D01*
X4327Y1424D01*
X4313Y1443D01*
X4294Y1457D01*
X4273Y1466D01*
X4250Y1469D01*
X4227Y1466D01*
X4206Y1457D01*
X4187Y1443D01*
X4179Y1431D01*
X4095D01*
Y1465D01*
X4080D01*
Y1495D01*
X4095D01*
Y1665D01*
X4080D01*
Y1761D01*
X4600D01*
Y450D01*
D02*
G37*
%LPC*%
G36*
X4560Y231D02*
X4490D01*
Y160D01*
X4560D01*
Y231D01*
D02*
G37*
G36*
X4430D02*
X4360D01*
Y160D01*
X4430D01*
Y231D01*
D02*
G37*
G36*
X4490Y734D02*
Y668D01*
X4556D01*
X4548Y689D01*
X4532Y710D01*
X4511Y726D01*
X4490Y734D01*
D02*
G37*
G36*
X4430Y734D02*
X4409Y726D01*
X4388Y710D01*
X4372Y689D01*
X4364Y668D01*
X4430D01*
Y734D01*
D02*
G37*
G36*
X4556Y608D02*
X4490D01*
Y542D01*
X4511Y550D01*
X4532Y566D01*
X4548Y587D01*
X4556Y608D01*
D02*
G37*
G36*
X4430D02*
X4364D01*
X4372Y587D01*
X4388Y566D01*
X4409Y550D01*
X4430Y542D01*
Y608D01*
D02*
G37*
%LPD*%
D28*
X5210Y1570D02*
D03*
Y370D02*
D03*
D29*
Y970D02*
D03*
D30*
X4860Y370D02*
D03*
X4690D02*
D03*
D31*
X1550Y180D02*
D03*
Y340D02*
D03*
D32*
X1730Y180D02*
D03*
Y315D02*
D03*
X810Y522D02*
D03*
Y657D02*
D03*
D33*
X1227Y390D02*
D03*
X1373D02*
D03*
D34*
X3945Y180D02*
D03*
Y380D02*
D03*
Y580D02*
D03*
Y780D02*
D03*
Y980D02*
D03*
Y1180D02*
D03*
Y1380D02*
D03*
Y1580D02*
D03*
X1995Y180D02*
D03*
Y380D02*
D03*
Y580D02*
D03*
Y780D02*
D03*
Y980D02*
D03*
Y1180D02*
D03*
Y1380D02*
D03*
Y1580D02*
D03*
D35*
X1105Y1050D02*
D03*
X1255D02*
D03*
Y800D02*
D03*
X1105D02*
D03*
X895Y390D02*
D03*
X1045D02*
D03*
D36*
X650Y788D02*
D03*
X925Y1062D02*
D03*
D37*
X712Y782D02*
D03*
X762D02*
D03*
X812D02*
D03*
X862D02*
D03*
Y1068D02*
D03*
X812D02*
D03*
X762Y1068D02*
D03*
X712D02*
D03*
D38*
X925Y788D02*
D03*
X650Y1062D02*
D03*
D39*
X930Y850D02*
D03*
Y900D02*
D03*
Y950D02*
D03*
Y1000D02*
D03*
X645D02*
D03*
Y950D02*
D03*
Y900D02*
D03*
Y850D02*
D03*
D40*
X788Y925D02*
D03*
D41*
X1386Y1050D02*
D03*
X1573D02*
D03*
X1386Y800D02*
D03*
X1573D02*
D03*
D42*
X4180Y230D02*
X4190D01*
X4160Y250D02*
X4180Y230D01*
X4190Y600D02*
Y630D01*
Y600D02*
X4210Y580D01*
X3945D02*
X4210D01*
X3945Y180D02*
X4140D01*
X3945Y1580D02*
X4250D01*
D43*
X750Y410D02*
X810Y470D01*
X740Y420D02*
X750Y410D01*
X190Y432D02*
X584D01*
X1730Y315D02*
Y460D01*
X1550Y340D02*
Y460D01*
X810Y470D02*
Y522D01*
X3945Y780D02*
X4250D01*
X3945Y980D02*
X4250D01*
X3945Y1180D02*
X4250D01*
X3945Y1380D02*
X4250D01*
X1550Y180D02*
X1995D01*
X1373Y227D02*
Y390D01*
Y227D02*
X1420Y180D01*
X1550D01*
X1227Y416D02*
X1573Y764D01*
Y800D02*
Y1050D01*
X1045Y390D02*
X1227D01*
X1224Y160D02*
Y388D01*
D44*
X650Y760D02*
Y788D01*
X450Y560D02*
X650Y760D01*
X386Y1000D02*
X530D01*
X325Y939D02*
X386Y1000D01*
X325Y905D02*
Y939D01*
X190Y770D02*
X325Y905D01*
X580Y950D02*
X645D01*
X530Y1000D02*
X580Y950D01*
X554Y1070D02*
X624Y1000D01*
X320Y1070D02*
X554D01*
X500Y760D02*
Y800D01*
X585Y555D02*
Y585D01*
X410Y560D02*
X450D01*
X624Y1000D02*
X645D01*
X190Y940D02*
X320Y1070D01*
X190Y686D02*
Y770D01*
X585Y585D02*
X712Y712D01*
X380Y860D02*
X420Y900D01*
X862Y1068D02*
Y1210D01*
X925Y1115D02*
X1090Y1280D01*
X785Y1375D02*
X1990D01*
X712Y1302D02*
X785Y1375D01*
X712Y1068D02*
Y1302D01*
X870Y1580D02*
X1995D01*
X650Y1360D02*
X870Y1580D01*
X650Y1062D02*
Y1360D01*
X862Y744D02*
X910Y696D01*
X862Y744D02*
Y782D01*
X910Y405D02*
Y696D01*
X895Y390D02*
X910Y405D01*
X712Y712D02*
Y782D01*
X4676Y384D02*
X4690Y370D01*
X4456Y380D02*
X4460Y384D01*
X4250Y780D02*
X4250Y780D01*
X4250Y1180D02*
X4250Y1180D01*
X1550Y180D02*
X1550Y180D01*
X1227Y390D02*
Y416D01*
X1573Y764D02*
Y800D01*
X1255D02*
X1386D01*
X1255Y1050D02*
X1386D01*
X1105Y975D02*
Y1050D01*
X1030Y900D02*
X1105Y975D01*
X930Y900D02*
X1030D01*
X1055Y850D02*
X1105Y800D01*
X930Y850D02*
X1055D01*
X925Y1062D02*
Y1115D01*
X500Y800D02*
X550Y850D01*
X420Y900D02*
X645D01*
X1990Y1375D02*
X1995Y1380D01*
X1224Y388D02*
X1227Y390D01*
X970Y160D02*
Y700D01*
X925Y745D02*
X970Y700D01*
X925Y745D02*
Y788D01*
X716Y160D02*
Y211D01*
X895Y390D01*
X788Y925D02*
X862Y1000D01*
Y1068D01*
X762Y900D02*
X788Y925D01*
X762Y782D02*
Y900D01*
X810Y657D02*
X812Y660D01*
Y782D01*
X550Y850D02*
X645D01*
D45*
X607Y432D02*
X720Y545D01*
Y630D01*
X584Y432D02*
X607D01*
X720Y630D02*
X747Y657D01*
X810D01*
D46*
X4250Y1580D02*
X4250Y1580D01*
D47*
X4860Y370D02*
X5210D01*
X4460Y384D02*
X4676D01*
X3945Y380D02*
X4456D01*
D48*
X1224Y160D02*
D03*
D49*
X970D02*
D03*
X716D02*
D03*
X462D02*
D03*
X4460Y384D02*
D03*
Y638D02*
D03*
X190Y686D02*
D03*
Y940D02*
D03*
Y1194D02*
D03*
Y1448D02*
D03*
D50*
X4460Y130D02*
D03*
X190Y432D02*
D03*
D51*
X4440Y1580D02*
D03*
X4190Y230D02*
D03*
X4290Y520D02*
D03*
X4190Y630D02*
D03*
X4270Y110D02*
D03*
X420Y900D02*
D03*
X500Y760D02*
D03*
X585Y555D02*
D03*
X740Y420D02*
D03*
X410Y560D02*
D03*
X4250Y1580D02*
D03*
X1730Y460D02*
D03*
X1550D02*
D03*
X862Y1210D02*
D03*
X1090Y1280D02*
D03*
X4250Y780D02*
D03*
Y980D02*
D03*
Y1180D02*
D03*
Y1380D02*
D03*
M02*
