G04*
G04 #@! TF.GenerationSoftware,Altium Limited,Altium Designer,18.1.1 (9)*
G04*
G04 Layer_Physical_Order=2*
G04 Layer_Color=16711680*
%FSLAX42Y42*%
%MOMM*%
G71*
G01*
G75*
%ADD43C,0.50*%
%ADD45C,0.40*%
%ADD48R,1.71X1.71*%
%ADD49C,1.71*%
%ADD50R,1.71X1.71*%
%ADD51C,1.25*%
G36*
X4590Y424D02*
X4565Y419D01*
X4557Y440D01*
X4539Y463D01*
X4516Y481D01*
X4489Y492D01*
X4460Y495D01*
X4431Y492D01*
X4404Y481D01*
X4381Y463D01*
X4363Y440D01*
X4352Y413D01*
X4349Y384D01*
X4352Y355D01*
X4363Y328D01*
X4381Y305D01*
X4404Y287D01*
X4431Y276D01*
X4460Y273D01*
X4489Y276D01*
X4516Y287D01*
X4539Y305D01*
X4557Y328D01*
X4565Y349D01*
X4590Y344D01*
Y39D01*
X4560D01*
Y100D01*
X4460D01*
X4360D01*
Y39D01*
X1356D01*
X1335Y49D01*
X1335Y64D01*
Y271D01*
X1186D01*
X1120Y336D01*
X1104Y347D01*
X1084Y351D01*
X343D01*
X301Y394D01*
Y519D01*
X301Y520D01*
X301Y520D01*
X301Y531D01*
X324Y537D01*
X333Y516D01*
X347Y497D01*
X366Y483D01*
X387Y474D01*
X410Y471D01*
X433Y474D01*
X454Y483D01*
X473Y497D01*
X482Y509D01*
X502Y510D01*
X503Y510D01*
X511Y508D01*
X522Y492D01*
X541Y478D01*
X562Y469D01*
X585Y466D01*
X608Y469D01*
X629Y478D01*
X648Y492D01*
X662Y511D01*
X671Y532D01*
X674Y555D01*
X671Y578D01*
X663Y597D01*
X779Y714D01*
X1217D01*
X1217Y714D01*
X1234Y717D01*
X1249Y727D01*
X1876Y1354D01*
X3611D01*
X4164Y800D01*
X4161Y780D01*
X4164Y757D01*
X4173Y736D01*
X4187Y717D01*
X4206Y703D01*
X4227Y694D01*
X4250Y691D01*
X4273Y694D01*
X4294Y703D01*
X4313Y717D01*
X4327Y736D01*
X4336Y757D01*
X4339Y780D01*
X4336Y803D01*
X4327Y824D01*
X4313Y843D01*
X4294Y857D01*
X4273Y866D01*
X4260Y867D01*
Y893D01*
X4273Y894D01*
X4294Y903D01*
X4313Y917D01*
X4327Y936D01*
X4336Y957D01*
X4339Y980D01*
X4336Y1003D01*
X4327Y1024D01*
X4313Y1043D01*
X4294Y1057D01*
X4273Y1066D01*
X4260Y1067D01*
Y1093D01*
X4273Y1094D01*
X4294Y1103D01*
X4313Y1117D01*
X4327Y1136D01*
X4336Y1157D01*
X4339Y1180D01*
X4336Y1203D01*
X4327Y1224D01*
X4313Y1243D01*
X4294Y1257D01*
X4273Y1266D01*
X4260Y1267D01*
Y1293D01*
X4273Y1294D01*
X4294Y1303D01*
X4313Y1317D01*
X4327Y1336D01*
X4336Y1357D01*
X4339Y1380D01*
X4336Y1403D01*
X4327Y1424D01*
X4313Y1443D01*
X4294Y1457D01*
X4273Y1466D01*
X4250Y1469D01*
X4230Y1466D01*
X3993Y1703D01*
X3978Y1713D01*
X3960Y1716D01*
X3960Y1716D01*
X1650D01*
X1632Y1713D01*
X1617Y1703D01*
X1617Y1703D01*
X1203Y1288D01*
X1176Y1297D01*
X1176Y1303D01*
X1167Y1324D01*
X1153Y1343D01*
X1134Y1357D01*
X1113Y1366D01*
X1090Y1369D01*
X1070Y1366D01*
X955Y1481D01*
X940Y1491D01*
X922Y1494D01*
X922Y1494D01*
X291D01*
X287Y1504D01*
X269Y1527D01*
X246Y1545D01*
X219Y1556D01*
X190Y1560D01*
X161Y1556D01*
X134Y1545D01*
X111Y1527D01*
X93Y1504D01*
X82Y1477D01*
X78Y1448D01*
X82Y1419D01*
X93Y1392D01*
X111Y1369D01*
X134Y1351D01*
X161Y1340D01*
X190Y1336D01*
X219Y1340D01*
X246Y1351D01*
X269Y1369D01*
X287Y1392D01*
X291Y1402D01*
X903D01*
X1004Y1300D01*
X1001Y1280D01*
X1004Y1257D01*
X1013Y1236D01*
X1027Y1217D01*
X1046Y1203D01*
X1067Y1194D01*
X1073Y1194D01*
X1082Y1167D01*
X961Y1046D01*
X550D01*
X550Y1046D01*
X532Y1043D01*
X517Y1033D01*
X517Y1033D01*
X462Y978D01*
X443Y986D01*
X420Y989D01*
X397Y986D01*
X376Y977D01*
X357Y963D01*
X343Y944D01*
X334Y923D01*
X331Y900D01*
X334Y877D01*
X343Y856D01*
X357Y837D01*
X376Y823D01*
X397Y814D01*
X400Y814D01*
X416Y787D01*
X414Y783D01*
X411Y760D01*
X414Y737D01*
X423Y716D01*
X437Y697D01*
X456Y683D01*
X464Y680D01*
X470Y657D01*
X461Y645D01*
X452Y638D01*
X433Y646D01*
X410Y649D01*
X387Y646D01*
X366Y637D01*
X347Y623D01*
X333Y604D01*
X324Y583D01*
X321Y561D01*
X321Y560D01*
X320Y550D01*
X298Y543D01*
X281Y543D01*
X79D01*
Y321D01*
X228D01*
X286Y264D01*
X302Y253D01*
X322Y249D01*
X359D01*
X371Y224D01*
X365Y216D01*
X354Y189D01*
X352Y173D01*
X462D01*
Y147D01*
X352D01*
X354Y131D01*
X365Y104D01*
X383Y81D01*
X405Y64D01*
X406Y61D01*
X400Y39D01*
X39D01*
Y1761D01*
X4590D01*
X4590Y424D01*
D02*
G37*
%LPC*%
G36*
X203Y1304D02*
Y1207D01*
X300D01*
X298Y1223D01*
X287Y1250D01*
X269Y1273D01*
X246Y1291D01*
X219Y1302D01*
X203Y1304D01*
D02*
G37*
G36*
X177D02*
X161Y1302D01*
X134Y1291D01*
X111Y1273D01*
X93Y1250D01*
X82Y1223D01*
X80Y1207D01*
X177D01*
Y1304D01*
D02*
G37*
G36*
X300Y1181D02*
X203D01*
Y1084D01*
X219Y1086D01*
X246Y1097D01*
X269Y1115D01*
X287Y1138D01*
X298Y1165D01*
X300Y1181D01*
D02*
G37*
G36*
X177D02*
X80D01*
X82Y1165D01*
X93Y1138D01*
X111Y1115D01*
X134Y1097D01*
X161Y1086D01*
X177Y1084D01*
Y1181D01*
D02*
G37*
G36*
X190Y1052D02*
X161Y1048D01*
X134Y1037D01*
X111Y1019D01*
X93Y996D01*
X82Y969D01*
X78Y940D01*
X82Y911D01*
X93Y884D01*
X111Y861D01*
X134Y843D01*
X161Y832D01*
X190Y828D01*
X219Y832D01*
X246Y843D01*
X269Y861D01*
X287Y884D01*
X298Y911D01*
X302Y940D01*
X298Y969D01*
X287Y996D01*
X269Y1019D01*
X246Y1037D01*
X219Y1048D01*
X190Y1052D01*
D02*
G37*
G36*
X4490Y734D02*
Y668D01*
X4556D01*
X4548Y689D01*
X4532Y710D01*
X4511Y726D01*
X4490Y734D01*
D02*
G37*
G36*
X4430Y734D02*
X4409Y726D01*
X4388Y710D01*
X4372Y689D01*
X4364Y668D01*
X4430D01*
Y734D01*
D02*
G37*
G36*
X190Y798D02*
X161Y794D01*
X134Y783D01*
X111Y765D01*
X93Y742D01*
X82Y715D01*
X78Y686D01*
X82Y657D01*
X93Y630D01*
X111Y607D01*
X134Y589D01*
X161Y578D01*
X190Y574D01*
X219Y578D01*
X246Y589D01*
X269Y607D01*
X287Y630D01*
X298Y657D01*
X302Y686D01*
X298Y715D01*
X287Y742D01*
X269Y765D01*
X246Y783D01*
X219Y794D01*
X190Y798D01*
D02*
G37*
G36*
X4556Y608D02*
X4490D01*
Y542D01*
X4511Y550D01*
X4532Y566D01*
X4548Y587D01*
X4556Y608D01*
D02*
G37*
G36*
X4430D02*
X4364D01*
X4372Y587D01*
X4388Y566D01*
X4409Y550D01*
X4430Y542D01*
Y608D01*
D02*
G37*
G36*
X4560Y231D02*
X4490D01*
Y160D01*
X4560D01*
Y231D01*
D02*
G37*
G36*
X4430D02*
X4360D01*
Y160D01*
X4430D01*
Y231D01*
D02*
G37*
%LPD*%
D43*
X1084Y300D02*
X1224Y160D01*
X322Y300D02*
X1084D01*
X190Y432D02*
X322Y300D01*
D45*
X420Y900D02*
X450D01*
X550Y1000D01*
X500Y760D02*
X660Y920D01*
X445Y560D02*
X735Y850D01*
X585Y555D02*
Y585D01*
X410Y560D02*
X445D01*
X735Y850D02*
X1140D01*
X585Y585D02*
X760Y760D01*
X1650Y1670D02*
X3960D01*
X980Y1000D02*
X1650Y1670D01*
X550Y1000D02*
X980D01*
X922Y1448D02*
X1090Y1280D01*
X190Y1448D02*
X922D01*
X1217Y760D02*
X1857Y1400D01*
X760Y760D02*
X1217D01*
X1780Y1490D02*
X3740D01*
X1140Y850D02*
X1780Y1490D01*
X3630Y1400D02*
X4250Y780D01*
X1857Y1400D02*
X3630D01*
X3740Y1490D02*
X4250Y980D01*
X3850Y1580D02*
X4250Y1180D01*
X1710Y1580D02*
X3850D01*
X1050Y920D02*
X1710Y1580D01*
X3960Y1670D02*
X4250Y1380D01*
X660Y920D02*
X1050D01*
D48*
X1224Y160D02*
D03*
D49*
X970D02*
D03*
X716D02*
D03*
X462D02*
D03*
X4460Y384D02*
D03*
Y638D02*
D03*
X190Y686D02*
D03*
Y940D02*
D03*
Y1194D02*
D03*
Y1448D02*
D03*
D50*
X4460Y130D02*
D03*
X190Y432D02*
D03*
D51*
X4440Y1580D02*
D03*
X4190Y230D02*
D03*
X4290Y520D02*
D03*
X4190Y630D02*
D03*
X4270Y110D02*
D03*
X420Y900D02*
D03*
X500Y760D02*
D03*
X585Y555D02*
D03*
X740Y420D02*
D03*
X410Y560D02*
D03*
X4250Y1580D02*
D03*
X1730Y460D02*
D03*
X1550D02*
D03*
X862Y1210D02*
D03*
X1090Y1280D02*
D03*
X4250Y780D02*
D03*
Y980D02*
D03*
Y1180D02*
D03*
Y1380D02*
D03*
M02*
