G04*
G04 #@! TF.GenerationSoftware,Altium Limited,Altium Designer,18.1.1 (9)*
G04*
G04 Layer_Physical_Order=1*
G04 Layer_Color=255*
%FSLAX42Y42*%
%MOMM*%
G71*
G01*
G75*
%ADD32C,1.20*%
%ADD33R,0.60X0.95*%
%ADD34R,1.00X0.80*%
%ADD35R,2.20X1.05*%
%ADD36R,1.40X1.00*%
%ADD37R,0.80X1.00*%
%ADD38O,1.40X0.45*%
%ADD39R,1.20X4.50*%
%ADD40R,0.70X4.50*%
%ADD41R,1.45X1.00*%
%ADD42R,0.74X1.02*%
%ADD43R,2.50X1.20*%
G04:AMPARAMS|DCode=44|XSize=0.86mm|YSize=1.35mm|CornerRadius=0.22mm|HoleSize=0mm|Usage=FLASHONLY|Rotation=0.000|XOffset=0mm|YOffset=0mm|HoleType=Round|Shape=RoundedRectangle|*
%AMROUNDEDRECTD44*
21,1,0.86,0.91,0,0,0.0*
21,1,0.42,1.35,0,0,0.0*
1,1,0.44,0.21,-0.46*
1,1,0.44,-0.21,-0.46*
1,1,0.44,-0.21,0.46*
1,1,0.44,0.21,0.46*
%
%ADD44ROUNDEDRECTD44*%
%ADD45C,0.30*%
%ADD46C,0.25*%
%ADD47C,0.40*%
%ADD48C,0.50*%
%ADD49C,1.00*%
%ADD50C,0.80*%
%ADD51C,0.20*%
%ADD52R,1.60X1.60*%
%ADD53C,2.20*%
%ADD54O,2.25X2.20*%
%ADD55C,1.80*%
%ADD56C,1.00*%
%ADD57R,1.71X1.71*%
%ADD58C,1.71*%
%ADD59R,1.71X1.71*%
%ADD60C,1.25*%
G36*
X6070Y297D02*
X6200D01*
X6200Y297D01*
X6220D01*
Y297D01*
X6225Y297D01*
X6350D01*
X6350Y272D01*
Y33D01*
X5280D01*
Y95D01*
X5295D01*
Y265D01*
X5280D01*
Y300D01*
X5290D01*
Y319D01*
X5520D01*
Y310D01*
X5600D01*
X5625Y308D01*
X5625Y285D01*
Y243D01*
X5760D01*
X5895D01*
Y294D01*
X5895Y308D01*
X5916Y319D01*
X6070D01*
Y297D01*
D02*
G37*
G36*
X6350Y730D02*
X6293D01*
Y665D01*
X6267D01*
Y730D01*
X6210D01*
X6205Y730D01*
X6185D01*
X6180Y730D01*
X6123D01*
Y665D01*
X6110D01*
Y652D01*
X6035D01*
Y613D01*
X6035Y600D01*
X6040Y577D01*
Y470D01*
X6049D01*
Y441D01*
X5916D01*
X5895Y452D01*
X5895Y466D01*
Y517D01*
X5760D01*
X5625D01*
Y475D01*
X5625Y452D01*
X5600Y450D01*
X5520D01*
Y441D01*
X5290D01*
Y460D01*
X5280D01*
Y495D01*
X5295D01*
Y665D01*
X5280D01*
Y700D01*
X5290D01*
Y734D01*
X5381D01*
X5391Y721D01*
X5408Y708D01*
X5428Y700D01*
X5450Y697D01*
X5472Y700D01*
X5492Y708D01*
X5509Y721D01*
X5522Y738D01*
X5530Y758D01*
X5533Y780D01*
X5530Y802D01*
X5522Y822D01*
X5509Y839D01*
X5492Y852D01*
X5472Y860D01*
X5450Y863D01*
X5428Y860D01*
X5408Y852D01*
X5391Y839D01*
X5381Y826D01*
X5290D01*
Y860D01*
X5280D01*
Y900D01*
X5290D01*
Y934D01*
X5381D01*
X5391Y921D01*
X5408Y908D01*
X5428Y900D01*
X5450Y897D01*
X5472Y900D01*
X5492Y908D01*
X5509Y921D01*
X5522Y938D01*
X5530Y958D01*
X5533Y980D01*
X5530Y1002D01*
X5522Y1022D01*
X5509Y1039D01*
X5492Y1052D01*
X5472Y1060D01*
X5450Y1063D01*
X5428Y1060D01*
X5408Y1052D01*
X5391Y1039D01*
X5381Y1026D01*
X5290D01*
Y1060D01*
X5280D01*
Y1100D01*
X5290D01*
Y1134D01*
X5381D01*
X5391Y1121D01*
X5408Y1108D01*
X5428Y1100D01*
X5450Y1097D01*
X5472Y1100D01*
X5492Y1108D01*
X5509Y1121D01*
X5522Y1138D01*
X5530Y1158D01*
X5533Y1180D01*
X5530Y1202D01*
X5522Y1222D01*
X5509Y1239D01*
X5492Y1252D01*
X5472Y1260D01*
X5450Y1263D01*
X5428Y1260D01*
X5408Y1252D01*
X5391Y1239D01*
X5381Y1226D01*
X5290D01*
Y1260D01*
X5280D01*
Y1300D01*
X5290D01*
Y1334D01*
X5381D01*
X5391Y1321D01*
X5408Y1308D01*
X5428Y1300D01*
X5450Y1297D01*
X5472Y1300D01*
X5492Y1308D01*
X5509Y1321D01*
X5522Y1338D01*
X5530Y1358D01*
X5533Y1380D01*
X5530Y1402D01*
X5522Y1422D01*
X5509Y1439D01*
X5492Y1452D01*
X5472Y1460D01*
X5450Y1463D01*
X5428Y1460D01*
X5408Y1452D01*
X5391Y1439D01*
X5381Y1426D01*
X5290D01*
Y1460D01*
X5280D01*
Y1495D01*
X5295D01*
Y1665D01*
X5280D01*
Y1767D01*
X6350D01*
X6350Y730D01*
D02*
G37*
%LPC*%
G36*
X5895Y217D02*
X5773D01*
Y152D01*
X5895D01*
Y217D01*
D02*
G37*
G36*
X5747D02*
X5625D01*
Y152D01*
X5747D01*
Y217D01*
D02*
G37*
G36*
X6097Y730D02*
X6035D01*
Y678D01*
X6097D01*
Y730D01*
D02*
G37*
G36*
X5895Y608D02*
X5773D01*
Y543D01*
X5895D01*
Y608D01*
D02*
G37*
G36*
X5747D02*
X5625D01*
Y543D01*
X5747D01*
Y608D01*
D02*
G37*
%LPD*%
D32*
X1880Y1250D02*
D03*
X1680D02*
D03*
D33*
X6285Y380D02*
D03*
X6135D02*
D03*
X2510Y1450D02*
D03*
X2360D02*
D03*
Y1610D02*
D03*
X2510D02*
D03*
D34*
X6280Y665D02*
D03*
Y530D02*
D03*
X6110Y665D02*
D03*
Y530D02*
D03*
X2930Y180D02*
D03*
Y315D02*
D03*
X1930Y795D02*
D03*
Y660D02*
D03*
D35*
X5760Y230D02*
D03*
Y530D02*
D03*
D36*
X5610Y380D02*
D03*
D37*
X1783Y400D02*
D03*
X1917D02*
D03*
D38*
X2720Y625D02*
D03*
Y690D02*
D03*
Y755D02*
D03*
Y820D02*
D03*
Y885D02*
D03*
Y950D02*
D03*
Y1015D02*
D03*
Y1080D02*
D03*
Y1145D02*
D03*
Y1210D02*
D03*
X2130Y625D02*
D03*
Y690D02*
D03*
Y755D02*
D03*
Y820D02*
D03*
Y885D02*
D03*
Y950D02*
D03*
Y1015D02*
D03*
Y1080D02*
D03*
Y1145D02*
D03*
Y1210D02*
D03*
D39*
X7690Y380D02*
D03*
X6490D02*
D03*
D40*
X7090D02*
D03*
D41*
X2750Y180D02*
D03*
Y340D02*
D03*
D42*
X2426Y390D02*
D03*
X2574D02*
D03*
D43*
X5145Y180D02*
D03*
Y380D02*
D03*
Y580D02*
D03*
Y780D02*
D03*
Y980D02*
D03*
Y1180D02*
D03*
Y1380D02*
D03*
Y1580D02*
D03*
X3195Y180D02*
D03*
Y380D02*
D03*
Y580D02*
D03*
Y780D02*
D03*
Y980D02*
D03*
Y1180D02*
D03*
Y1380D02*
D03*
Y1580D02*
D03*
D44*
X2240Y1450D02*
D03*
X2053D02*
D03*
X2243Y1620D02*
D03*
X2057D02*
D03*
D45*
X2648Y952D02*
X2720D01*
X2043Y1560D02*
X2053Y1550D01*
X1930Y660D02*
X1960D01*
X1910Y640D02*
X1930Y660D01*
X1880Y1250D02*
Y1300D01*
Y1240D02*
Y1250D01*
X1250Y1400D02*
X1260D01*
X2350Y1620D02*
X2360Y1610D01*
X2540Y1340D02*
X2730Y1530D01*
X2648Y823D02*
X2720D01*
X2720Y1530D02*
X2730D01*
X2480Y1610D02*
X2505D01*
X2440Y1570D02*
X2480Y1610D01*
X2440Y850D02*
Y1570D01*
Y850D02*
X2600Y690D01*
X2490Y1410D02*
X2520Y1440D01*
X2600Y690D02*
X2720D01*
X2490Y890D02*
Y1410D01*
Y890D02*
X2625Y755D01*
X2720D01*
X2540Y930D02*
X2648Y823D01*
X2540Y930D02*
Y1340D01*
X2590Y1240D02*
X2730Y1380D01*
X2590Y1010D02*
Y1240D01*
Y1010D02*
X2648Y952D01*
X6480Y380D02*
X6490Y390D01*
X6280Y385D02*
X6285Y380D01*
X6110Y405D02*
X6135Y380D01*
X5145Y380D02*
X5145Y380D01*
D46*
X2424Y388D02*
X2424Y390D01*
Y390D01*
X5450Y780D02*
X5450Y780D01*
X5450Y1180D02*
X5450Y1180D01*
X2750Y180D02*
X2750Y180D01*
D47*
X2050Y750D02*
X2125D01*
X1960Y660D02*
X2050Y750D01*
X2812Y888D02*
X2930Y770D01*
X2745Y888D02*
X2812D01*
X2948Y1077D02*
X3020Y1150D01*
X2750Y1077D02*
X2948D01*
X2745Y1082D02*
X2750Y1077D01*
X2250Y1080D02*
X2320Y1010D01*
X2130Y1080D02*
X2250D01*
X1930Y510D02*
X2045Y625D01*
X1500Y510D02*
X1930D01*
X1390Y400D02*
X1500Y510D01*
X2240Y1300D02*
X2380Y1160D01*
Y822D02*
Y1160D01*
Y822D02*
X2380Y822D01*
Y800D02*
Y822D01*
Y800D02*
X2390Y790D01*
X2020Y1300D02*
X2240D01*
X2555Y625D02*
X2720D01*
X2390Y790D02*
X2555Y625D01*
X1850Y1470D02*
X2020Y1300D01*
X1330Y1470D02*
X1850D01*
X2320Y400D02*
Y1010D01*
X2170Y250D02*
X2320Y400D01*
X2170Y160D02*
Y250D01*
X1916Y160D02*
Y400D01*
X2250Y480D02*
Y980D01*
X2215Y1015D02*
X2250Y980D01*
X2130Y1015D02*
X2215D01*
X2170Y400D02*
X2250Y480D01*
X2860Y1240D02*
Y1630D01*
X2758Y1733D02*
X2860Y1630D01*
X586Y1733D02*
X2758D01*
X2830Y1210D02*
X2860Y1240D01*
X2720Y1210D02*
X2830D01*
X2950Y1510D02*
X3020Y1580D01*
X2950Y1210D02*
Y1510D01*
X2885Y1145D02*
X2950Y1210D01*
X3020Y1340D02*
X3060Y1380D01*
X3020Y1150D02*
Y1340D01*
X2930Y670D02*
Y770D01*
X1910Y1210D02*
X2130D01*
X1880Y1240D02*
X1910Y1210D01*
X1690Y1240D02*
X1785Y1145D01*
X2130D01*
X1260Y1400D02*
X1330Y1470D01*
X1917Y400D02*
X2170D01*
X158Y1018D02*
X342D01*
X410Y950D01*
X80Y940D02*
X158Y1018D01*
X410Y950D02*
X2130D01*
X259Y880D02*
X2140D01*
X250Y889D02*
X259Y880D01*
X2240Y1450D02*
X2360D01*
X2243Y1620D02*
X2350D01*
X2045Y625D02*
X2130D01*
X1250Y400D02*
X1390D01*
X2720Y1145D02*
X2885D01*
X3060Y1380D02*
X3195D01*
X1870Y820D02*
X2120D01*
X1780Y750D02*
X1800D01*
X1870Y820D01*
X250Y1397D02*
X586Y1733D01*
X2833Y1018D02*
X2970Y880D01*
X2745Y1018D02*
X2833D01*
X3020Y1580D02*
X3195D01*
X155Y635D02*
X250D01*
X80Y710D02*
X155Y635D01*
X80Y710D02*
Y940D01*
D48*
X2053Y1450D02*
Y1550D01*
X1660Y640D02*
X1910D01*
X1485Y815D02*
X1660Y640D01*
X1075Y815D02*
X1485D01*
X990Y730D02*
X1075Y815D01*
X1550Y330D02*
X1570D01*
X1420Y200D02*
X1550Y330D01*
X990Y1560D02*
X2043D01*
X990Y200D02*
Y730D01*
Y200D02*
X1420D01*
X431D02*
X990D01*
X2574Y227D02*
Y390D01*
Y227D02*
X2620Y180D01*
X250Y381D02*
X431Y200D01*
X1783Y281D02*
Y400D01*
X1662Y160D02*
X1783Y281D01*
X5145Y780D02*
X5450D01*
X5145Y980D02*
X5450D01*
X5145Y1180D02*
X5450D01*
X5145Y1380D02*
X5450D01*
X2750Y180D02*
X3195D01*
X2620Y180D02*
X2750D01*
X2424Y160D02*
Y388D01*
D49*
X5145Y580D02*
X5400D01*
X5340Y180D02*
X5390Y230D01*
X5380D02*
X5390D01*
X5145Y180D02*
X5340D01*
X5145Y1580D02*
X5450D01*
X2930Y350D02*
Y460D01*
X2750Y360D02*
Y460D01*
D50*
X6285Y380D02*
X6480D01*
X6280Y385D02*
Y530D01*
X6110Y405D02*
Y530D01*
X5610Y380D02*
X6110D01*
X5145D02*
X5610D01*
D51*
X5450Y1580D02*
X5450Y1580D01*
D52*
X6490Y380D02*
D03*
D53*
X650Y1150D02*
D03*
X1350Y650D02*
D03*
D54*
X1350Y1150D02*
D03*
X650Y650D02*
D03*
D55*
X750Y1400D02*
D03*
X1250D02*
D03*
Y400D02*
D03*
X750D02*
D03*
D56*
X8050Y-250D02*
D03*
X-250Y2050D02*
D03*
X8050D02*
D03*
X-250Y-250D02*
D03*
X5390Y630D02*
D03*
X5870Y620D02*
D03*
X5900Y130D02*
D03*
X5630D02*
D03*
X5610Y630D02*
D03*
X5750Y650D02*
D03*
X5760Y100D02*
D03*
X5530Y230D02*
D03*
X5520Y530D02*
D03*
X6270Y250D02*
D03*
X6120D02*
D03*
X5970D02*
D03*
Y790D02*
D03*
Y660D02*
D03*
Y530D02*
D03*
X6130Y790D02*
D03*
X6280D02*
D03*
X5390Y230D02*
D03*
X5470Y110D02*
D03*
D57*
X2424Y160D02*
D03*
D58*
X2170D02*
D03*
X1916D02*
D03*
X1662D02*
D03*
X250Y635D02*
D03*
Y889D02*
D03*
Y1143D02*
D03*
Y1397D02*
D03*
D59*
Y381D02*
D03*
D60*
X1570Y330D02*
D03*
X990Y1560D02*
D03*
Y730D02*
D03*
X2720Y1530D02*
D03*
X1780Y750D02*
D03*
X2970Y880D02*
D03*
X2930Y670D02*
D03*
X2730Y1380D02*
D03*
X5640Y1580D02*
D03*
X5450Y1580D02*
D03*
X2930Y460D02*
D03*
X2750D02*
D03*
X5450Y780D02*
D03*
Y980D02*
D03*
Y1180D02*
D03*
Y1380D02*
D03*
M02*
