M48
;Layer_Color=9474304
;FILE_FORMAT=4:2
METRIC,LZ
;TYPE=PLATED
T1F00S00C0.50
T2F00S00C1.14
%
T01
X00427Y00011
X00419Y00023
X00173Y00046
X00155
X00074Y00042
X000585Y000555
X00041Y00056
X0005Y00076
X00042Y0009
X000862Y00121
X00109Y00128
X00425Y00118
Y00098
Y00078
X00419Y00063
X00429Y00052
X00425Y00138
X00425Y00158
X00444Y00158
T02
X00446Y00013
X001224Y00016
X00097
X000716
X000462
X00019Y000432
Y000686
Y00094
Y001194
Y001448
X00446Y000638
Y000384
M30
