G04*
G04 #@! TF.GenerationSoftware,Altium Limited,Altium Designer,18.1.1 (9)*
G04*
G04 Layer_Physical_Order=2*
G04 Layer_Color=16711680*
%FSLAX42Y42*%
%MOMM*%
G71*
G01*
G75*
%ADD38C,0.50*%
%ADD39C,0.30*%
%ADD40C,0.40*%
%ADD44C,1.00*%
%ADD45R,1.71X1.71*%
%ADD46C,1.71*%
%ADD47R,1.71X1.71*%
%ADD48C,1.25*%
G36*
X4590Y424D02*
X4565Y419D01*
X4557Y440D01*
X4539Y463D01*
X4516Y481D01*
X4489Y492D01*
X4460Y495D01*
X4431Y492D01*
X4404Y481D01*
X4381Y463D01*
X4363Y440D01*
X4352Y413D01*
X4349Y384D01*
X4352Y355D01*
X4363Y328D01*
X4381Y305D01*
X4404Y287D01*
X4431Y276D01*
X4460Y273D01*
X4489Y276D01*
X4516Y287D01*
X4539Y305D01*
X4557Y328D01*
X4565Y349D01*
X4590Y344D01*
Y39D01*
X4560D01*
Y100D01*
X4460D01*
X4360D01*
Y39D01*
X1356D01*
X1335Y49D01*
X1335Y64D01*
Y271D01*
X1113D01*
Y64D01*
X1113Y49D01*
X1092Y39D01*
X1032D01*
X1026Y61D01*
X1027Y64D01*
X1049Y81D01*
X1067Y104D01*
X1078Y131D01*
X1082Y160D01*
X1078Y189D01*
X1067Y216D01*
X1049Y239D01*
X1026Y257D01*
X999Y268D01*
X970Y272D01*
X941Y268D01*
X914Y257D01*
X891Y239D01*
X873Y216D01*
X862Y189D01*
X858Y160D01*
X862Y131D01*
X873Y104D01*
X891Y81D01*
X913Y64D01*
X914Y61D01*
X908Y39D01*
X778D01*
X772Y61D01*
X773Y64D01*
X795Y81D01*
X813Y104D01*
X824Y131D01*
X828Y160D01*
X824Y189D01*
X813Y216D01*
X795Y239D01*
X772Y257D01*
X745Y268D01*
X716Y272D01*
X687Y268D01*
X660Y257D01*
X637Y239D01*
X619Y216D01*
X608Y189D01*
X604Y160D01*
X608Y131D01*
X619Y104D01*
X637Y81D01*
X659Y64D01*
X660Y61D01*
X654Y39D01*
X524D01*
X518Y61D01*
X519Y64D01*
X541Y81D01*
X559Y104D01*
X570Y131D01*
X572Y147D01*
X462D01*
X352D01*
X354Y131D01*
X365Y104D01*
X383Y81D01*
X405Y64D01*
X406Y61D01*
X400Y39D01*
X39D01*
Y1761D01*
X1371D01*
X1375Y1757D01*
X1382Y1736D01*
X1373Y1724D01*
X1364Y1703D01*
X1361Y1680D01*
X1364Y1657D01*
X1373Y1636D01*
X1387Y1617D01*
X1406Y1603D01*
X1427Y1594D01*
X1450Y1591D01*
X1473Y1594D01*
X1489Y1601D01*
X1503Y1591D01*
X1509Y1583D01*
X1504Y1573D01*
X1501Y1550D01*
X1504Y1527D01*
X1513Y1506D01*
X1527Y1487D01*
X1546Y1473D01*
X1567Y1464D01*
X1590Y1461D01*
X1613Y1464D01*
X1634Y1473D01*
X1653Y1487D01*
X1667Y1506D01*
X1676Y1527D01*
X1677Y1534D01*
X1873D01*
X1883Y1509D01*
X1595Y1221D01*
X1575Y1224D01*
X1552Y1221D01*
X1531Y1212D01*
X1512Y1198D01*
X1498Y1179D01*
X1489Y1158D01*
X1486Y1135D01*
X1489Y1112D01*
X1498Y1091D01*
X1512Y1072D01*
X1531Y1058D01*
X1552Y1049D01*
X1575Y1046D01*
X1598Y1049D01*
X1619Y1058D01*
X1638Y1072D01*
X1652Y1091D01*
X1661Y1112D01*
X1664Y1135D01*
X1661Y1155D01*
X1949Y1444D01*
X2013D01*
X2023Y1419D01*
X1598Y994D01*
X1593Y996D01*
X1570Y999D01*
X1547Y996D01*
X1526Y987D01*
X1507Y973D01*
X1493Y954D01*
X1484Y933D01*
X1481Y910D01*
X1484Y887D01*
X1493Y866D01*
X1507Y847D01*
X1526Y833D01*
X1547Y824D01*
X1570Y821D01*
X1593Y824D01*
X1614Y833D01*
X1633Y847D01*
X1647Y866D01*
X1656Y887D01*
X1659Y910D01*
X1657Y922D01*
X2089Y1354D01*
X3611Y1354D01*
X4164Y800D01*
X4161Y780D01*
X4164Y757D01*
X4173Y736D01*
X4187Y717D01*
X4206Y703D01*
X4227Y694D01*
X4250Y691D01*
X4273Y694D01*
X4294Y703D01*
X4313Y717D01*
X4327Y736D01*
X4336Y757D01*
X4339Y780D01*
X4336Y803D01*
X4327Y824D01*
X4313Y843D01*
X4294Y857D01*
X4273Y866D01*
X4260Y867D01*
Y893D01*
X4273Y894D01*
X4294Y903D01*
X4313Y917D01*
X4327Y936D01*
X4336Y957D01*
X4339Y980D01*
X4336Y1003D01*
X4327Y1024D01*
X4313Y1043D01*
X4294Y1057D01*
X4273Y1066D01*
X4260Y1067D01*
Y1093D01*
X4273Y1094D01*
X4294Y1103D01*
X4313Y1117D01*
X4327Y1136D01*
X4336Y1157D01*
X4339Y1180D01*
X4336Y1203D01*
X4327Y1224D01*
X4313Y1243D01*
X4294Y1257D01*
X4273Y1266D01*
X4260Y1267D01*
Y1293D01*
X4273Y1294D01*
X4294Y1303D01*
X4313Y1317D01*
X4327Y1336D01*
X4336Y1357D01*
X4339Y1380D01*
X4336Y1403D01*
X4327Y1424D01*
X4313Y1443D01*
X4294Y1457D01*
X4273Y1466D01*
X4250Y1469D01*
X4230Y1466D01*
X3980Y1715D01*
X3965Y1725D01*
X3947Y1729D01*
X3947Y1729D01*
X1541D01*
X1536Y1736D01*
X1549Y1761D01*
X4590D01*
X4590Y424D01*
D02*
G37*
%LPC*%
G36*
X390Y1609D02*
X367Y1606D01*
X346Y1597D01*
X327Y1583D01*
X313Y1564D01*
X304Y1543D01*
X302Y1525D01*
X288Y1518D01*
X277Y1517D01*
X269Y1527D01*
X246Y1545D01*
X219Y1556D01*
X190Y1560D01*
X161Y1556D01*
X134Y1545D01*
X111Y1527D01*
X93Y1504D01*
X82Y1477D01*
X78Y1448D01*
X82Y1419D01*
X93Y1392D01*
X111Y1369D01*
X134Y1351D01*
X161Y1340D01*
X190Y1336D01*
X219Y1340D01*
X246Y1351D01*
X269Y1369D01*
X287Y1392D01*
X298Y1419D01*
X302Y1448D01*
X302Y1450D01*
X326Y1460D01*
X327Y1457D01*
X346Y1443D01*
X367Y1434D01*
X390Y1431D01*
X399Y1433D01*
X419Y1415D01*
Y506D01*
X417Y506D01*
X396Y497D01*
X377Y483D01*
X363Y464D01*
X354Y443D01*
X351Y420D01*
X354Y397D01*
X363Y376D01*
X377Y357D01*
X396Y343D01*
X417Y334D01*
X440Y331D01*
X463Y334D01*
X484Y343D01*
X503Y357D01*
X511Y369D01*
X999D01*
X1007Y357D01*
X1026Y343D01*
X1047Y334D01*
X1070Y331D01*
X1093Y334D01*
X1114Y343D01*
X1133Y357D01*
X1147Y376D01*
X1156Y397D01*
X1159Y420D01*
X1156Y443D01*
X1147Y464D01*
X1133Y483D01*
X1114Y497D01*
X1093Y506D01*
X1070Y509D01*
X1047Y506D01*
X1026Y497D01*
X1007Y483D01*
X999Y471D01*
X521D01*
Y1440D01*
X517Y1460D01*
X506Y1476D01*
X477Y1506D01*
X479Y1520D01*
X476Y1543D01*
X467Y1564D01*
X453Y1583D01*
X434Y1597D01*
X413Y1606D01*
X390Y1609D01*
D02*
G37*
G36*
X203Y1304D02*
Y1207D01*
X300D01*
X298Y1223D01*
X287Y1250D01*
X269Y1273D01*
X246Y1291D01*
X219Y1302D01*
X203Y1304D01*
D02*
G37*
G36*
X177D02*
X161Y1302D01*
X134Y1291D01*
X111Y1273D01*
X93Y1250D01*
X82Y1223D01*
X80Y1207D01*
X177D01*
Y1304D01*
D02*
G37*
G36*
X300Y1181D02*
X203D01*
Y1084D01*
X219Y1086D01*
X246Y1097D01*
X269Y1115D01*
X287Y1138D01*
X298Y1165D01*
X300Y1181D01*
D02*
G37*
G36*
X177D02*
X80D01*
X82Y1165D01*
X93Y1138D01*
X111Y1115D01*
X134Y1097D01*
X161Y1086D01*
X177Y1084D01*
Y1181D01*
D02*
G37*
G36*
X190Y1052D02*
X161Y1048D01*
X134Y1037D01*
X111Y1019D01*
X93Y996D01*
X82Y969D01*
X78Y940D01*
X82Y911D01*
X93Y884D01*
X111Y861D01*
X134Y843D01*
X161Y832D01*
X190Y828D01*
X219Y832D01*
X246Y843D01*
X269Y861D01*
X287Y884D01*
X298Y911D01*
X302Y940D01*
X298Y969D01*
X287Y996D01*
X269Y1019D01*
X246Y1037D01*
X219Y1048D01*
X190Y1052D01*
D02*
G37*
G36*
X4490Y734D02*
Y668D01*
X4556D01*
X4548Y689D01*
X4532Y710D01*
X4511Y726D01*
X4490Y734D01*
D02*
G37*
G36*
X4430Y734D02*
X4409Y726D01*
X4388Y710D01*
X4372Y689D01*
X4364Y668D01*
X4430D01*
Y734D01*
D02*
G37*
G36*
X190Y798D02*
X161Y794D01*
X134Y783D01*
X111Y765D01*
X93Y742D01*
X82Y715D01*
X78Y686D01*
X82Y657D01*
X93Y630D01*
X111Y607D01*
X134Y589D01*
X161Y578D01*
X190Y574D01*
X219Y578D01*
X246Y589D01*
X269Y607D01*
X287Y630D01*
X298Y657D01*
X302Y686D01*
X298Y715D01*
X287Y742D01*
X269Y765D01*
X246Y783D01*
X219Y794D01*
X190Y798D01*
D02*
G37*
G36*
X4556Y608D02*
X4490D01*
Y542D01*
X4511Y550D01*
X4532Y566D01*
X4548Y587D01*
X4556Y608D01*
D02*
G37*
G36*
X4430D02*
X4364D01*
X4372Y587D01*
X4388Y566D01*
X4409Y550D01*
X4430Y542D01*
Y608D01*
D02*
G37*
G36*
X301Y543D02*
X79D01*
Y321D01*
X301D01*
Y543D01*
D02*
G37*
G36*
X3515Y675D02*
X2372D01*
Y485D01*
X2295D01*
Y275D01*
X3605D01*
Y485D01*
X3515D01*
Y675D01*
D02*
G37*
G36*
X475Y270D02*
Y173D01*
X572D01*
X570Y189D01*
X559Y216D01*
X541Y239D01*
X518Y257D01*
X491Y268D01*
X475Y270D01*
D02*
G37*
G36*
X449D02*
X433Y268D01*
X406Y257D01*
X383Y239D01*
X365Y216D01*
X354Y189D01*
X352Y173D01*
X449D01*
Y270D01*
D02*
G37*
G36*
X4560Y231D02*
X4490D01*
Y160D01*
X4560D01*
Y231D01*
D02*
G37*
G36*
X4430D02*
X4360D01*
Y160D01*
X4430D01*
Y231D01*
D02*
G37*
%LPD*%
D38*
X390Y1520D02*
X470Y1440D01*
Y450D02*
Y1440D01*
X440Y420D02*
X1070D01*
D39*
X440D02*
X470Y450D01*
X3517Y330D02*
X3550Y363D01*
Y397D01*
X3517Y430D01*
X3400Y397D02*
X3450D01*
X3467Y380D01*
Y347D01*
X3450Y330D01*
X3400D01*
X3367D02*
X3333Y363D01*
Y397D01*
X3367Y430D01*
X3183D02*
Y330D01*
Y363D01*
X3117Y430D01*
X3167Y380D01*
X3117Y330D01*
X3067Y397D02*
X3033D01*
X3017Y380D01*
Y330D01*
X3067D01*
X3083Y347D01*
X3067Y363D01*
X3017D01*
X2967Y413D02*
Y397D01*
X2984D01*
X2950D01*
X2967D01*
Y347D01*
X2950Y330D01*
X2900Y397D02*
X2834D01*
X2900Y330D01*
X2834D01*
X2634D02*
X2700D01*
X2634Y397D01*
Y413D01*
X2650Y430D01*
X2684D01*
X2700Y413D01*
X2600D02*
X2584Y430D01*
X2550D01*
X2534Y413D01*
Y347D01*
X2550Y330D01*
X2584D01*
X2600Y347D01*
Y413D01*
X2500Y330D02*
X2467D01*
X2484D01*
Y430D01*
X2500Y413D01*
X2417D02*
X2400Y430D01*
X2367D01*
X2350Y413D01*
Y397D01*
X2367Y380D01*
X2350Y363D01*
Y347D01*
X2367Y330D01*
X2400D01*
X2417Y347D01*
Y363D01*
X2400Y380D01*
X2417Y397D01*
Y413D01*
X2400Y380D02*
X2367D01*
X3460Y520D02*
Y620D01*
X3410D01*
X3393Y603D01*
Y570D01*
X3410Y553D01*
X3460D01*
X3427D02*
X3393Y520D01*
X3293Y620D02*
X3360D01*
Y570D01*
X3327D01*
X3360D01*
Y520D01*
X3260Y620D02*
Y537D01*
X3243Y520D01*
X3210D01*
X3193Y537D01*
Y620D01*
X3160Y520D02*
Y587D01*
X3127Y620D01*
X3093Y587D01*
Y520D01*
Y570D01*
X3160D01*
X3060Y520D02*
Y620D01*
X3010D01*
X2993Y603D01*
Y570D01*
X3010Y553D01*
X3060D01*
X3027D02*
X2993Y520D01*
X2960Y620D02*
X2894D01*
X2927D01*
Y520D01*
X2760Y587D02*
X2727Y520D01*
X2694Y587D01*
X2660Y520D02*
X2627D01*
X2644D01*
Y620D01*
X2660Y603D01*
X2577Y520D02*
Y537D01*
X2560D01*
Y520D01*
X2577D01*
X2427D02*
X2494D01*
X2427Y587D01*
Y603D01*
X2444Y620D01*
X2477D01*
X2494Y603D01*
D40*
X1590Y1580D02*
X3850Y1580D01*
X3947Y1683D02*
X4250Y1380D01*
X1452Y1683D02*
X3947D01*
X1450Y1680D02*
X1452Y1683D01*
X1930Y1490D02*
X3740Y1490D01*
X1580Y1140D02*
X1930Y1490D01*
X2070Y1400D02*
X3630Y1400D01*
X1575Y905D02*
X2070Y1400D01*
X3630Y1400D02*
X4250Y780D01*
X3740Y1490D02*
X4250Y980D01*
X3850Y1580D02*
X4250Y1180D01*
D44*
X5750Y-250D02*
D03*
X-250Y2050D02*
D03*
X5750D02*
D03*
X-250Y-250D02*
D03*
D45*
X1224Y160D02*
D03*
D46*
X970D02*
D03*
X716D02*
D03*
X462D02*
D03*
X4460Y384D02*
D03*
Y638D02*
D03*
X190Y686D02*
D03*
Y940D02*
D03*
Y1194D02*
D03*
Y1448D02*
D03*
D47*
X4460Y130D02*
D03*
X190Y432D02*
D03*
D48*
X1590Y1550D02*
D03*
X1450Y1680D02*
D03*
X390Y1520D02*
D03*
X440Y420D02*
D03*
X1070D02*
D03*
X345Y815D02*
D03*
X1575Y1135D02*
D03*
X1570Y910D02*
D03*
X4440Y1580D02*
D03*
X4190Y230D02*
D03*
X4290Y520D02*
D03*
X4190Y630D02*
D03*
X4270Y110D02*
D03*
X4250Y1580D02*
D03*
X1730Y460D02*
D03*
X1550D02*
D03*
X4250Y780D02*
D03*
Y980D02*
D03*
Y1180D02*
D03*
Y1380D02*
D03*
M02*
