G04*
G04 #@! TF.GenerationSoftware,Altium Limited,Altium Designer,18.1.1 (9)*
G04*
G04 Layer_Color=16711935*
%FSLAX42Y42*%
%MOMM*%
G71*
G01*
G75*
%ADD20C,1.40*%
%ADD21R,1.40X1.40*%
%ADD22R,1.91X1.91*%
%ADD23C,1.91*%
%ADD24C,1.45*%
%ADD25C,1.20*%
D20*
X-3250Y20D02*
D03*
D21*
Y220D02*
D03*
D22*
X-3750Y-750D02*
D03*
D23*
Y-496D02*
D03*
Y-242D02*
D03*
Y12D02*
D03*
Y266D02*
D03*
D24*
X-3228Y-700D02*
D03*
X-2900Y380D02*
D03*
X-2906Y-1046D02*
D03*
X-3530Y-970D02*
D03*
X-3260Y-490D02*
D03*
D25*
X-450Y-850D02*
D03*
Y-1000D02*
D03*
X-600Y-850D02*
D03*
Y-1000D02*
D03*
Y-700D02*
D03*
X-300Y-1000D02*
D03*
X-150D02*
D03*
Y-850D02*
D03*
Y-700D02*
D03*
X-300D02*
D03*
X-450D02*
D03*
X-600Y-550D02*
D03*
Y-400D02*
D03*
Y-250D02*
D03*
Y-100D02*
D03*
X-1070Y-350D02*
D03*
X-225Y450D02*
D03*
X-100Y375D02*
D03*
X-50Y225D02*
D03*
X-350Y450D02*
D03*
X-475D02*
D03*
X-600D02*
D03*
X-725D02*
D03*
X-850D02*
D03*
X-975D02*
D03*
X-1100D02*
D03*
X-1225D02*
D03*
X-1350D02*
D03*
X-350Y100D02*
D03*
X-475D02*
D03*
X-850D02*
D03*
X-975D02*
D03*
X-1225D02*
D03*
X-1350D02*
D03*
M02*
