G04*
G04 #@! TF.GenerationSoftware,Altium Limited,Altium Designer,18.1.1 (9)*
G04*
G04 Layer_Physical_Order=2*
G04 Layer_Color=16711680*
%FSLAX42Y42*%
%MOMM*%
G71*
G01*
G75*
%ADD25C,1.20*%
%ADD37C,0.40*%
%ADD38C,0.25*%
%ADD61R,1.20X1.20*%
%ADD62R,1.71X1.71*%
%ADD63C,1.71*%
%ADD64C,1.25*%
%ADD65C,1.00*%
G36*
X17Y-20D02*
X-500D01*
Y-550D01*
X17D01*
Y-1167D01*
X-3917D01*
Y567D01*
X17D01*
Y-20D01*
D02*
G37*
%LPC*%
G36*
X-3165Y305D02*
X-3237D01*
Y233D01*
X-3165D01*
Y305D01*
D02*
G37*
G36*
X-3263D02*
X-3335D01*
Y233D01*
X-3263D01*
Y305D01*
D02*
G37*
G36*
X-3750Y372D02*
X-3778Y369D01*
X-3803Y358D01*
X-3825Y341D01*
X-3842Y319D01*
X-3853Y294D01*
X-3856Y266D01*
X-3853Y238D01*
X-3842Y213D01*
X-3825Y191D01*
X-3803Y174D01*
X-3778Y163D01*
X-3750Y160D01*
X-3722Y163D01*
X-3697Y174D01*
X-3675Y191D01*
X-3658Y213D01*
X-3647Y238D01*
X-3644Y266D01*
X-3647Y294D01*
X-3658Y319D01*
X-3675Y341D01*
X-3697Y358D01*
X-3722Y369D01*
X-3750Y372D01*
D02*
G37*
G36*
X-3165Y207D02*
X-3237D01*
Y135D01*
X-3165D01*
Y207D01*
D02*
G37*
G36*
X-3263D02*
X-3335D01*
Y135D01*
X-3263D01*
Y207D01*
D02*
G37*
G36*
X-3737Y122D02*
Y25D01*
X-3640D01*
X-3642Y41D01*
X-3653Y68D01*
X-3671Y91D01*
X-3694Y109D01*
X-3721Y120D01*
X-3737Y122D01*
D02*
G37*
G36*
X-3763D02*
X-3779Y120D01*
X-3806Y109D01*
X-3829Y91D01*
X-3847Y68D01*
X-3858Y41D01*
X-3860Y25D01*
X-3763D01*
Y122D01*
D02*
G37*
G36*
X-3640Y-1D02*
X-3737D01*
Y-98D01*
X-3721Y-96D01*
X-3694Y-85D01*
X-3671Y-67D01*
X-3653Y-44D01*
X-3642Y-17D01*
X-3640Y-1D01*
D02*
G37*
G36*
X-3763D02*
X-3860D01*
X-3858Y-17D01*
X-3847Y-44D01*
X-3829Y-67D01*
X-3806Y-85D01*
X-3779Y-96D01*
X-3763Y-98D01*
Y-1D01*
D02*
G37*
G36*
X-3750Y-136D02*
X-3778Y-139D01*
X-3803Y-150D01*
X-3825Y-167D01*
X-3842Y-189D01*
X-3853Y-214D01*
X-3856Y-242D01*
X-3853Y-270D01*
X-3842Y-295D01*
X-3825Y-317D01*
X-3803Y-334D01*
X-3778Y-345D01*
X-3750Y-348D01*
X-3722Y-345D01*
X-3697Y-334D01*
X-3675Y-317D01*
X-3658Y-295D01*
X-3647Y-270D01*
X-3644Y-242D01*
X-3647Y-214D01*
X-3658Y-189D01*
X-3675Y-167D01*
X-3697Y-150D01*
X-3722Y-139D01*
X-3750Y-136D01*
D02*
G37*
G36*
X-3250Y101D02*
X-3271Y98D01*
X-3290Y90D01*
X-3307Y77D01*
X-3320Y60D01*
X-3328Y41D01*
X-3331Y20D01*
X-3328Y-1D01*
X-3320Y-20D01*
X-3307Y-37D01*
X-3301Y-42D01*
Y-418D01*
X-3302Y-418D01*
X-3319Y-431D01*
X-3332Y-448D01*
X-3340Y-468D01*
X-3343Y-490D01*
X-3340Y-512D01*
X-3332Y-532D01*
X-3319Y-549D01*
X-3302Y-562D01*
X-3282Y-570D01*
X-3260Y-573D01*
X-3238Y-570D01*
X-3218Y-562D01*
X-3201Y-549D01*
X-3188Y-532D01*
X-3180Y-512D01*
X-3177Y-490D01*
X-3180Y-468D01*
X-3188Y-448D01*
X-3201Y-431D01*
X-3218Y-418D01*
X-3219Y-418D01*
Y-54D01*
X-3210Y-50D01*
X-3193Y-37D01*
X-3180Y-20D01*
X-3172Y-1D01*
X-3169Y20D01*
X-3172Y41D01*
X-3180Y60D01*
X-3193Y77D01*
X-3210Y90D01*
X-3229Y98D01*
X-3250Y101D01*
D02*
G37*
G36*
X-3750Y-390D02*
X-3778Y-393D01*
X-3803Y-404D01*
X-3825Y-421D01*
X-3842Y-443D01*
X-3853Y-468D01*
X-3856Y-496D01*
X-3853Y-524D01*
X-3842Y-549D01*
X-3825Y-571D01*
X-3803Y-588D01*
X-3778Y-599D01*
X-3750Y-602D01*
X-3722Y-599D01*
X-3697Y-588D01*
X-3675Y-571D01*
X-3658Y-549D01*
X-3647Y-524D01*
X-3644Y-496D01*
X-3647Y-468D01*
X-3658Y-443D01*
X-3675Y-421D01*
X-3697Y-404D01*
X-3722Y-393D01*
X-3750Y-390D01*
D02*
G37*
G36*
X-3644Y-645D02*
X-3856D01*
Y-856D01*
X-3644D01*
Y-645D01*
D02*
G37*
%LPD*%
D25*
X-3250Y20D02*
D03*
D37*
X-3260Y-490D02*
Y-30D01*
D38*
X-3250Y-20D01*
D61*
X-3250Y220D02*
D03*
D62*
X-3750Y-750D02*
D03*
D63*
Y-496D02*
D03*
Y-242D02*
D03*
Y12D02*
D03*
Y266D02*
D03*
D64*
X-3228Y-700D02*
D03*
X-2900Y380D02*
D03*
X-2906Y-1046D02*
D03*
X-3530Y-970D02*
D03*
X-3260Y-490D02*
D03*
D65*
X-450Y-850D02*
D03*
Y-1000D02*
D03*
X-600Y-850D02*
D03*
Y-1000D02*
D03*
Y-700D02*
D03*
X-300Y-1000D02*
D03*
X-150D02*
D03*
Y-850D02*
D03*
Y-700D02*
D03*
X-300D02*
D03*
X-450D02*
D03*
X-600Y-550D02*
D03*
Y-400D02*
D03*
Y-250D02*
D03*
Y-100D02*
D03*
X-1070Y-350D02*
D03*
X-225Y450D02*
D03*
X-100Y375D02*
D03*
X-50Y225D02*
D03*
X-350Y450D02*
D03*
X-475D02*
D03*
X-600D02*
D03*
X-725D02*
D03*
X-850D02*
D03*
X-975D02*
D03*
X-1100D02*
D03*
X-1225D02*
D03*
X-1350D02*
D03*
X-350Y100D02*
D03*
X-475D02*
D03*
X-850D02*
D03*
X-975D02*
D03*
X-1225D02*
D03*
X-1350D02*
D03*
M02*
