G04*
G04 #@! TF.GenerationSoftware,Altium Limited,Altium Designer,18.1.1 (9)*
G04*
G04 Layer_Color=8388736*
%FSLAX42Y42*%
%MOMM*%
G71*
G01*
G75*
%ADD10R,1.60X0.60*%
%ADD11R,1.60X0.60*%
%ADD12O,2.00X0.90*%
%ADD13R,0.84X0.84*%
%ADD14R,1.40X2.15*%
%ADD15R,1.20X1.65*%
%ADD16R,1.20X1.00*%
%ADD17R,1.00X1.20*%
%ADD18R,0.80X1.15*%
%ADD19R,0.94X1.22*%
%ADD20C,1.40*%
%ADD21R,1.40X1.40*%
%ADD22R,1.91X1.91*%
%ADD23C,1.91*%
%ADD24C,1.45*%
%ADD25C,1.20*%
D10*
X-80Y-400D02*
D03*
D11*
Y-80D02*
D03*
D12*
X-2740Y385D02*
D03*
Y275D02*
D03*
Y165D02*
D03*
Y55D02*
D03*
Y-55D02*
D03*
Y-355D02*
D03*
Y-465D02*
D03*
Y-575D02*
D03*
Y-685D02*
D03*
Y-795D02*
D03*
Y-905D02*
D03*
Y-1015D02*
D03*
X-1560Y385D02*
D03*
Y275D02*
D03*
Y165D02*
D03*
Y55D02*
D03*
Y-55D02*
D03*
Y-355D02*
D03*
Y-465D02*
D03*
Y-575D02*
D03*
Y-685D02*
D03*
Y-795D02*
D03*
Y-905D02*
D03*
Y-1015D02*
D03*
D13*
X-40Y-498D02*
D03*
Y-590D02*
D03*
X-280Y-470D02*
D03*
Y-378D02*
D03*
D14*
X-3460Y-495D02*
D03*
Y-740D02*
D03*
D15*
X-3240Y-970D02*
D03*
X-3400D02*
D03*
D16*
X-3070Y-1077D02*
D03*
Y-943D02*
D03*
X-660Y120D02*
D03*
Y255D02*
D03*
X-1080Y130D02*
D03*
Y265D02*
D03*
D17*
X-3127Y-800D02*
D03*
X-2992D02*
D03*
X-1223Y270D02*
D03*
X-1357D02*
D03*
D18*
X-1355Y-350D02*
D03*
X-1205D02*
D03*
D19*
X-797Y270D02*
D03*
X-944D02*
D03*
D20*
X-3250Y20D02*
D03*
D21*
Y220D02*
D03*
D22*
X-3750Y-750D02*
D03*
D23*
Y-496D02*
D03*
Y-242D02*
D03*
Y12D02*
D03*
Y266D02*
D03*
D24*
X-3228Y-700D02*
D03*
X-2900Y380D02*
D03*
X-2906Y-1046D02*
D03*
X-3530Y-970D02*
D03*
X-3260Y-490D02*
D03*
D25*
X-450Y-850D02*
D03*
Y-1000D02*
D03*
X-600Y-850D02*
D03*
Y-1000D02*
D03*
Y-700D02*
D03*
X-300Y-1000D02*
D03*
X-150D02*
D03*
Y-850D02*
D03*
Y-700D02*
D03*
X-300D02*
D03*
X-450D02*
D03*
X-600Y-550D02*
D03*
Y-400D02*
D03*
Y-250D02*
D03*
Y-100D02*
D03*
X-1070Y-350D02*
D03*
X-225Y450D02*
D03*
X-100Y375D02*
D03*
X-50Y225D02*
D03*
X-350Y450D02*
D03*
X-475D02*
D03*
X-600D02*
D03*
X-725D02*
D03*
X-850D02*
D03*
X-975D02*
D03*
X-1100D02*
D03*
X-1225D02*
D03*
X-1350D02*
D03*
X-350Y100D02*
D03*
X-475D02*
D03*
X-850D02*
D03*
X-975D02*
D03*
X-1225D02*
D03*
X-1350D02*
D03*
M02*
