M48
;Layer_Color=9474304
;FILE_FORMAT=4:2
METRIC,LZ
;TYPE=PLATED
T1F00S00C0.50
T2F00S00C0.80
T3F00S00C1.14
%
T01
X-0006Y-001
X-00045
Y-00085
X-0006
Y-0007
X-00045
X-0003
X-00015
Y-00085
Y-001
X-0003
X-0006Y-00055
Y-0004
Y-00025
Y-0001
X-000475Y0001
X-00035
Y00045
X-000225
X-0001Y000375
X-00005Y000225
X-000475Y00045
X-0006
X-000725
X-00085
X-000975
X-0011
X-001225
X-00135
Y0001
X-001225
X-000975
X-00085
X-00107Y-00035
X-00326Y-00049
X-003228Y-0007
X-00353Y-00097
X-002906Y-001046
X-0029Y00038
T02
X-00325Y00002
Y00022
T03
X-00375Y-00075
Y-000496
Y-000242
Y000012
Y000266
M30
