M48
;Layer_Color=9474304
;FILE_FORMAT=4:2
METRIC,LZ
;TYPE=PLATED
T1F00S00C0.40
T2F00S00C0.50
T3F00S00C0.60
T4F00S00C0.66
%
T01
X0077Y00075
X00785
X00765Y00085
Y0011
X0077Y00125
X00785
Y0016
X0077
Y0024
X00785
X0078Y0028
X00765
Y0032
X0078
X0075
X00735
Y00335
Y0035
X0075Y0036
X00735Y00385
X00715
Y00365
X00695
Y00385
X00675
X00655
X00635
X00615
X00595
X00575
X00555
X00535
X00515
X00495
X00366Y00364
X00363Y00331
X00378Y00331
X00386Y003
X004Y00292
X00363Y00305
X00369Y0025
X003813Y002583
X00378Y00238
X00375Y00203
X00427Y00175
X00452
X00467
X00493Y00168
X00506Y00176
X00503Y00154
X00488Y00143
X00499Y00074
X00515Y00075
X0053
X0059
Y0009
X00602Y00088
X006Y001
X00602Y0011
X0059Y00105
Y0012
Y00135
Y0015
Y00165
Y0018
X0063Y00205
X0065
X0067
X0069
X00695Y00215
X0071
X00725
Y0023
Y00245
Y0026
Y00275
X0072Y00285
X00735Y0028
X0075
X00755Y0024
X0074
X0069Y00265
Y00285
Y00305
Y00325
Y00345
X00706Y00331
X0072Y0032
X00648Y00325
Y00345
Y00365
Y00305
Y00285
Y00265
X0063
Y00245
X00645
X00649Y00225
X0063
X00638Y00144
X0064Y00085
X0066
X0068
X00705
X00725
X00745
X0074Y00075
X00755
X0073Y00065
Y0005
X0074Y0004
X00755
X00745Y0011
X0074Y00125
X00755
X0073Y00135
Y0015
X0074Y0016
X00755
X00725Y0011
X00705
X0068Y00111
X0062Y00075
X00605
X00473Y00054
X00336Y00086
X003375Y001245
X00312Y00154
Y00196
X00334Y00185
X003505Y001895
X00353Y00226
X00355Y00258
X00349Y0029
X00331Y002975
X00299Y00278
X00303Y00261
X00313Y00239
X0027Y0026
X00225Y00306
X00237Y0034
X00205Y00341
X001908Y003625
X0016Y00377
X00097Y00311
X00096Y0027
X00084Y0028
X00072Y00246
X00153Y00232
X00191Y00247
X0019Y00213
X00202Y00165
X00239Y00188
X0023Y00071
X00124Y00054
X00094Y00076
X00141Y00112
T02
X00775Y00025
Y00375
X00425Y00315
Y00085
X00335Y0005
X00325Y00025
X00275
X00265Y0005
X00145Y00085
X001Y001246
Y0015
Y001754
X0005
Y0015
Y001246
Y000992
X00025Y00025
X0005Y002008
Y002619
Y002873
Y003127
Y003381
X00025Y00375
X00275
X00265Y0035
X00335
X00325Y00375
X00145Y002
T03
X0023Y00222
Y00242
T04
X00269Y00176
X003178
M30
