G04*
G04 #@! TF.GenerationSoftware,Altium Limited,Altium Designer,18.1.1 (9)*
G04*
G04 Layer_Color=16711935*
%FSLAX42Y42*%
%MOMM*%
G71*
G01*
G75*
%ADD22R,5.10X1.80*%
%ADD28C,1.26*%
%ADD29C,2.00*%
G04:AMPARAMS|DCode=30|XSize=2mm|YSize=2mm|CornerRadius=0.55mm|HoleSize=0mm|Usage=FLASHONLY|Rotation=270.000|XOffset=0mm|YOffset=0mm|HoleType=Round|Shape=RoundedRectangle|*
%AMROUNDEDRECTD30*
21,1,2.00,0.90,0,0,270.0*
21,1,0.90,2.00,0,0,270.0*
1,1,1.10,-0.45,-0.45*
1,1,1.10,-0.45,0.45*
1,1,1.10,0.45,0.45*
1,1,1.10,0.45,-0.45*
%
%ADD30ROUNDEDRECTD30*%
%ADD31O,2.45X2.40*%
%ADD32C,2.40*%
%ADD33C,2.20*%
%ADD34C,4.20*%
%ADD35C,2.30*%
%ADD36C,1.20*%
%ADD37C,4.00*%
D22*
X7693Y1425D02*
D03*
Y575D02*
D03*
Y2575D02*
D03*
Y3425D02*
D03*
D28*
X2686Y1760D02*
D03*
X3174D02*
D03*
D29*
X500Y2242D02*
D03*
Y2496D02*
D03*
Y3004D02*
D03*
Y2750D02*
D03*
X3250Y3750D02*
D03*
X2750D02*
D03*
X500Y1250D02*
D03*
Y1504D02*
D03*
Y996D02*
D03*
Y742D02*
D03*
X3250Y250D02*
D03*
X2750D02*
D03*
D30*
X500Y3258D02*
D03*
Y1758D02*
D03*
D31*
X3350Y3500D02*
D03*
X2650Y500D02*
D03*
D32*
X2650Y3500D02*
D03*
X3350Y500D02*
D03*
D33*
X1450Y850D02*
D03*
Y2000D02*
D03*
D34*
X4250Y850D02*
D03*
Y3150D02*
D03*
D35*
X1000Y1246D02*
D03*
Y1754D02*
D03*
Y1500D02*
D03*
D36*
X6710Y2040D02*
D03*
X6500D02*
D03*
X6300D02*
D03*
X3120Y3370D02*
D03*
X7350Y3650D02*
D03*
X7290Y660D02*
D03*
X2720Y2490D02*
D03*
X2970Y2330D02*
D03*
X3160Y2390D02*
D03*
X970Y2960D02*
D03*
Y3110D02*
D03*
X1000Y2710D02*
D03*
X2200Y2940D02*
D03*
X865Y2835D02*
D03*
X2570Y3100D02*
D03*
X3530Y2820D02*
D03*
X3000Y1890D02*
D03*
X320Y1190D02*
D03*
X2240Y2770D02*
D03*
X2190Y2640D02*
D03*
X2310Y2662D02*
D03*
X2240Y2390D02*
D03*
X2220Y2100D02*
D03*
X3780Y2380D02*
D03*
Y2250D02*
D03*
X3615Y2200D02*
D03*
X3750Y2030D02*
D03*
X3660Y2420D02*
D03*
X3495Y2250D02*
D03*
X3505Y1895D02*
D03*
X2090Y2550D02*
D03*
X4140Y2690D02*
D03*
X4010Y2750D02*
D03*
X3850Y2830D02*
D03*
X3845Y2970D02*
D03*
X3650Y2680D02*
D03*
X3640Y2960D02*
D03*
X3910Y2670D02*
D03*
X3580Y2510D02*
D03*
X3370Y3220D02*
D03*
X3220Y1950D02*
D03*
X7150Y3650D02*
D03*
X6950D02*
D03*
X7350Y3850D02*
D03*
X7150D02*
D03*
X6950D02*
D03*
X6750D02*
D03*
X6550D02*
D03*
X6350D02*
D03*
X6150D02*
D03*
X5950D02*
D03*
X5750D02*
D03*
X5550D02*
D03*
X5350D02*
D03*
X5150D02*
D03*
X4950D02*
D03*
X5300Y750D02*
D03*
X5150D02*
D03*
X7500Y3600D02*
D03*
X7350Y3500D02*
D03*
Y3350D02*
D03*
X7800Y3200D02*
D03*
X7650D02*
D03*
X7500D02*
D03*
X7350D02*
D03*
X7200D02*
D03*
X7050Y3300D02*
D03*
X7850Y2400D02*
D03*
X7700D02*
D03*
X7550D02*
D03*
X7400D02*
D03*
X7800Y2800D02*
D03*
X7650D02*
D03*
X7200Y2850D02*
D03*
X7500Y2800D02*
D03*
X7350D02*
D03*
X7250Y2750D02*
D03*
Y2600D02*
D03*
Y2450D02*
D03*
Y2300D02*
D03*
Y2150D02*
D03*
X7100D02*
D03*
X6950D02*
D03*
X6300Y2250D02*
D03*
Y2450D02*
D03*
Y2650D02*
D03*
X6000Y1000D02*
D03*
X5900Y900D02*
D03*
Y1050D02*
D03*
Y1200D02*
D03*
Y1350D02*
D03*
Y1500D02*
D03*
Y1650D02*
D03*
Y1800D02*
D03*
X6480Y2450D02*
D03*
X6900Y3450D02*
D03*
Y3250D02*
D03*
Y3050D02*
D03*
Y2850D02*
D03*
Y2650D02*
D03*
X7290Y520D02*
D03*
X7400Y400D02*
D03*
Y750D02*
D03*
X7550D02*
D03*
Y400D02*
D03*
X7850Y750D02*
D03*
X7700D02*
D03*
X7400Y1250D02*
D03*
X7850D02*
D03*
X7700D02*
D03*
X7550D02*
D03*
X7300Y1350D02*
D03*
Y1500D02*
D03*
X7400Y1600D02*
D03*
X7550D02*
D03*
X7700D02*
D03*
X7850D02*
D03*
X7650Y1100D02*
D03*
X7450D02*
D03*
X7250D02*
D03*
X7050D02*
D03*
X6800D02*
D03*
X7650Y850D02*
D03*
X7450D02*
D03*
X7250D02*
D03*
X7050D02*
D03*
X6800D02*
D03*
X6600D02*
D03*
X6400D02*
D03*
X6390Y1170D02*
D03*
X6380Y1440D02*
D03*
X6020Y1100D02*
D03*
X6020Y880D02*
D03*
X6480Y3650D02*
D03*
X4990Y740D02*
D03*
X4730Y540D02*
D03*
X2210Y320D02*
D03*
X2210Y890D02*
D03*
X1723Y730D02*
D03*
X1780Y820D02*
D03*
X6490Y2250D02*
D03*
X6480Y2650D02*
D03*
X5060Y1760D02*
D03*
X4270Y1750D02*
D03*
X4520D02*
D03*
X4670D02*
D03*
X2390Y1880D02*
D03*
X1410Y1120D02*
D03*
X1670Y1210D02*
D03*
X2020Y1650D02*
D03*
X3375Y1245D02*
D03*
X3380Y1880D02*
D03*
X5030Y1540D02*
D03*
X4940Y1650D02*
D03*
X6480Y2850D02*
D03*
Y3050D02*
D03*
Y3250D02*
D03*
Y3450D02*
D03*
D37*
X250Y250D02*
D03*
Y3750D02*
D03*
X7750Y250D02*
D03*
Y3750D02*
D03*
M02*
