G04*
G04 #@! TF.GenerationSoftware,Altium Limited,Altium Designer,18.1.1 (9)*
G04*
G04 Layer_Physical_Order=1*
G04 Layer_Color=255*
%FSLAX42Y42*%
%MOMM*%
G71*
G01*
G75*
%ADD37C,4.00*%
G04:AMPARAMS|DCode=38|XSize=1.66mm|YSize=2.42mm|CornerRadius=0.25mm|HoleSize=0mm|Usage=FLASHONLY|Rotation=270.000|XOffset=0mm|YOffset=0mm|HoleType=Round|Shape=RoundedRectangle|*
%AMROUNDEDRECTD38*
21,1,1.66,1.92,0,0,270.0*
21,1,1.16,2.42,0,0,270.0*
1,1,0.50,-0.96,-0.58*
1,1,0.50,-0.96,0.58*
1,1,0.50,0.96,0.58*
1,1,0.50,0.96,-0.58*
%
%ADD38ROUNDEDRECTD38*%
G04:AMPARAMS|DCode=39|XSize=1.66mm|YSize=2.42mm|CornerRadius=0.25mm|HoleSize=0mm|Usage=FLASHONLY|Rotation=0.000|XOffset=0mm|YOffset=0mm|HoleType=Round|Shape=RoundedRectangle|*
%AMROUNDEDRECTD39*
21,1,1.66,1.92,0,0,0.0*
21,1,1.16,2.42,0,0,0.0*
1,1,0.50,0.58,-0.96*
1,1,0.50,-0.58,-0.96*
1,1,0.50,-0.58,0.96*
1,1,0.50,0.58,0.96*
%
%ADD39ROUNDEDRECTD39*%
%ADD40R,1.00X0.80*%
%ADD41R,0.80X1.00*%
%ADD42R,1.02X0.74*%
%ADD43O,1.45X0.30*%
%ADD44O,0.30X1.45*%
%ADD45R,0.95X0.60*%
%ADD46R,0.60X1.00*%
%ADD47R,1.00X0.60*%
%ADD48R,0.60X0.95*%
%ADD49R,0.74X1.02*%
%ADD50R,4.90X1.60*%
%ADD51R,2.35X1.50*%
%ADD52R,1.45X1.00*%
G04:AMPARAMS|DCode=53|XSize=0.86mm|YSize=1.35mm|CornerRadius=0.22mm|HoleSize=0mm|Usage=FLASHONLY|Rotation=0.000|XOffset=0mm|YOffset=0mm|HoleType=Round|Shape=RoundedRectangle|*
%AMROUNDEDRECTD53*
21,1,0.86,0.91,0,0,0.0*
21,1,0.42,1.35,0,0,0.0*
1,1,0.44,0.21,-0.46*
1,1,0.44,-0.21,-0.46*
1,1,0.44,-0.21,0.46*
1,1,0.44,0.21,0.46*
%
%ADD53ROUNDEDRECTD53*%
%ADD54R,2.50X1.20*%
%ADD55O,2.00X0.70*%
%ADD56C,0.25*%
%ADD57C,0.50*%
%ADD58C,0.70*%
%ADD59C,0.80*%
%ADD60C,1.06*%
%ADD61C,1.80*%
G04:AMPARAMS|DCode=62|XSize=1.8mm|YSize=1.8mm|CornerRadius=0.45mm|HoleSize=0mm|Usage=FLASHONLY|Rotation=270.000|XOffset=0mm|YOffset=0mm|HoleType=Round|Shape=RoundedRectangle|*
%AMROUNDEDRECTD62*
21,1,1.80,0.90,0,0,270.0*
21,1,0.90,1.80,0,0,270.0*
1,1,0.90,-0.45,-0.45*
1,1,0.90,-0.45,0.45*
1,1,0.90,0.45,0.45*
1,1,0.90,0.45,-0.45*
%
%ADD62ROUNDEDRECTD62*%
%ADD63O,2.25X2.20*%
%ADD64C,2.20*%
%ADD65C,2.00*%
%ADD66C,2.10*%
%ADD67C,1.00*%
%ADD68C,3.80*%
G36*
X7969Y3553D02*
X7963Y3530D01*
X7944Y3530D01*
X7705D01*
Y3425D01*
Y3320D01*
X7944D01*
X7963Y3320D01*
X7969Y3297D01*
Y3095D01*
X7712D01*
Y3061D01*
X7147D01*
X7125Y3070D01*
X7125Y3086D01*
Y3122D01*
X7050D01*
X6975D01*
Y3083D01*
X6975Y3070D01*
X6980Y3047D01*
Y2940D01*
X6989D01*
Y2850D01*
X6982D01*
Y2750D01*
X7017D01*
X7027Y2743D01*
X7050Y2739D01*
X7073Y2743D01*
X7083Y2750D01*
X7118D01*
Y2850D01*
X7111D01*
Y2939D01*
X7712D01*
Y2905D01*
X7969D01*
Y2703D01*
X7963Y2680D01*
X7944Y2680D01*
X7705D01*
Y2575D01*
Y2470D01*
X7944D01*
X7963Y2470D01*
X7969Y2447D01*
Y1553D01*
X7963Y1530D01*
X7944Y1530D01*
X7705D01*
Y1425D01*
Y1320D01*
X7944D01*
X7963Y1320D01*
X7969Y1297D01*
Y1095D01*
X7712D01*
Y1051D01*
X6606D01*
Y1080D01*
X6631D01*
Y1194D01*
X6489D01*
Y1083D01*
X6476Y1060D01*
X6460Y1060D01*
X6350D01*
Y1046D01*
X6317D01*
X6303Y1071D01*
X6307Y1076D01*
X6309Y1087D01*
X6185D01*
X6061D01*
X6063Y1076D01*
X6076Y1056D01*
X6079Y1037D01*
X6078Y1026D01*
X6068Y1011D01*
X6064Y990D01*
X6068Y969D01*
X6078Y954D01*
X6079Y943D01*
X6076Y924D01*
X6063Y904D01*
X6061Y893D01*
X6185D01*
X6309D01*
X6307Y904D01*
X6303Y909D01*
X6317Y934D01*
X6350D01*
Y920D01*
X6460D01*
X6485Y920D01*
X6495Y920D01*
X6605D01*
Y929D01*
X7712D01*
Y905D01*
X7969D01*
Y703D01*
X7963Y680D01*
X7944Y680D01*
X7705D01*
Y575D01*
Y470D01*
X7944D01*
X7963Y470D01*
X7969Y447D01*
Y31D01*
X4900D01*
Y766D01*
X4915Y785D01*
X4925Y785D01*
X4977D01*
Y850D01*
X4990D01*
Y863D01*
X5065D01*
Y902D01*
X5065Y915D01*
X5065Y919D01*
X5078Y937D01*
X5105Y934D01*
X5109Y923D01*
X5110Y919D01*
X5098Y901D01*
X5094Y880D01*
X5098Y859D01*
X5110Y840D01*
X5129Y828D01*
X5150Y824D01*
X5280D01*
X5301Y828D01*
X5320Y840D01*
X5332Y859D01*
X5336Y880D01*
X5332Y901D01*
X5320Y920D01*
X5319Y920D01*
Y950D01*
X5320Y950D01*
X5332Y969D01*
X5336Y990D01*
X5332Y1011D01*
X5320Y1030D01*
X5319Y1030D01*
Y1060D01*
X5320Y1060D01*
X5332Y1079D01*
X5336Y1100D01*
X5332Y1121D01*
X5320Y1140D01*
X5319Y1140D01*
Y1170D01*
X5320Y1170D01*
X5332Y1189D01*
X5336Y1210D01*
X5332Y1231D01*
X5320Y1250D01*
X5319Y1250D01*
Y1280D01*
X5320Y1280D01*
X5332Y1299D01*
X5336Y1320D01*
X5332Y1341D01*
X5320Y1360D01*
X5319Y1360D01*
Y1390D01*
X5320Y1390D01*
X5332Y1409D01*
X5336Y1430D01*
X5332Y1451D01*
X5320Y1470D01*
X5319Y1470D01*
Y1500D01*
X5320Y1500D01*
X5332Y1519D01*
X5336Y1540D01*
X5332Y1561D01*
X5320Y1580D01*
X5319Y1580D01*
Y1610D01*
X5320Y1610D01*
X5332Y1629D01*
X5336Y1650D01*
X5332Y1671D01*
X5322Y1686D01*
X5321Y1697D01*
X5324Y1716D01*
X5337Y1736D01*
X5339Y1747D01*
X5215D01*
X5091D01*
X5093Y1736D01*
X5106Y1716D01*
X5108Y1707D01*
X5091Y1683D01*
X5002D01*
X5001Y1685D01*
X4990Y1700D01*
X4975Y1711D01*
X4958Y1718D01*
X4940Y1721D01*
X4925Y1719D01*
X4919Y1720D01*
X4900Y1736D01*
Y3969D01*
X7969D01*
Y3553D01*
D02*
G37*
%LPC*%
G36*
X6845Y3735D02*
X6708D01*
Y3663D01*
X6845D01*
Y3735D01*
D02*
G37*
G36*
X6682D02*
X6545D01*
Y3663D01*
X6682D01*
Y3735D01*
D02*
G37*
G36*
X6845Y3637D02*
X6708D01*
Y3565D01*
X6845D01*
Y3637D01*
D02*
G37*
G36*
X6682D02*
X6545D01*
Y3565D01*
X6682D01*
Y3637D01*
D02*
G37*
G36*
X6840Y3530D02*
X6550D01*
Y3515D01*
X6542Y3509D01*
X6525Y3504D01*
X6515Y3511D01*
X6498Y3518D01*
X6480Y3521D01*
X6462Y3518D01*
X6445Y3511D01*
X6430Y3500D01*
X6419Y3485D01*
X6412Y3468D01*
X6409Y3450D01*
X6412Y3432D01*
X6419Y3415D01*
X6430Y3400D01*
X6445Y3389D01*
X6462Y3382D01*
X6480Y3379D01*
X6498Y3382D01*
X6515Y3389D01*
X6525Y3396D01*
X6542Y3391D01*
X6550Y3385D01*
Y3370D01*
X6840D01*
Y3530D01*
D02*
G37*
G36*
X7680Y3530D02*
X7422D01*
Y3438D01*
X7680D01*
Y3530D01*
D02*
G37*
G36*
Y3412D02*
X7422D01*
Y3320D01*
X7680D01*
Y3412D01*
D02*
G37*
G36*
X6840Y3330D02*
X6550D01*
Y3315D01*
X6542Y3309D01*
X6525Y3304D01*
X6515Y3311D01*
X6498Y3318D01*
X6480Y3321D01*
X6462Y3318D01*
X6445Y3311D01*
X6430Y3300D01*
X6419Y3285D01*
X6412Y3268D01*
X6409Y3250D01*
X6412Y3232D01*
X6419Y3215D01*
X6430Y3200D01*
X6445Y3189D01*
X6462Y3182D01*
X6480Y3179D01*
X6498Y3182D01*
X6515Y3189D01*
X6525Y3196D01*
X6542Y3191D01*
X6550Y3185D01*
Y3170D01*
X6840D01*
Y3330D01*
D02*
G37*
G36*
X7125Y3200D02*
X7063D01*
Y3148D01*
X7125D01*
Y3200D01*
D02*
G37*
G36*
X7037D02*
X6975D01*
Y3148D01*
X7037D01*
Y3200D01*
D02*
G37*
G36*
X6840Y3130D02*
X6550D01*
Y3115D01*
X6542Y3109D01*
X6525Y3104D01*
X6515Y3111D01*
X6498Y3118D01*
X6480Y3121D01*
X6462Y3118D01*
X6445Y3111D01*
X6430Y3100D01*
X6419Y3085D01*
X6412Y3068D01*
X6409Y3050D01*
X6412Y3032D01*
X6419Y3015D01*
X6430Y3000D01*
X6445Y2989D01*
X6462Y2982D01*
X6480Y2979D01*
X6498Y2982D01*
X6515Y2989D01*
X6525Y2996D01*
X6542Y2991D01*
X6550Y2985D01*
Y2970D01*
X6840D01*
Y3130D01*
D02*
G37*
G36*
Y2930D02*
X6550D01*
Y2915D01*
X6542Y2909D01*
X6525Y2904D01*
X6515Y2911D01*
X6498Y2918D01*
X6480Y2921D01*
X6462Y2918D01*
X6445Y2911D01*
X6430Y2900D01*
X6419Y2885D01*
X6412Y2868D01*
X6409Y2850D01*
X6412Y2832D01*
X6419Y2815D01*
X6430Y2800D01*
X6445Y2789D01*
X6462Y2782D01*
X6480Y2779D01*
X6498Y2782D01*
X6515Y2789D01*
X6525Y2796D01*
X6542Y2791D01*
X6550Y2785D01*
Y2770D01*
X6840D01*
Y2930D01*
D02*
G37*
G36*
X6845Y2735D02*
X6708D01*
Y2663D01*
X6845D01*
Y2735D01*
D02*
G37*
G36*
X6682D02*
X6545D01*
Y2663D01*
X6682D01*
Y2735D01*
D02*
G37*
G36*
X7680Y2680D02*
X7422D01*
Y2588D01*
X7680D01*
Y2680D01*
D02*
G37*
G36*
X6845Y2637D02*
X6708D01*
Y2565D01*
X6845D01*
Y2637D01*
D02*
G37*
G36*
X6682D02*
X6545D01*
Y2565D01*
X6682D01*
Y2637D01*
D02*
G37*
G36*
X7050Y2711D02*
X7027Y2707D01*
X7017Y2700D01*
X6982D01*
Y2600D01*
X6989D01*
Y2511D01*
X6840D01*
Y2530D01*
X6550D01*
Y2370D01*
X6840D01*
Y2389D01*
X6953D01*
X6975Y2380D01*
X6975Y2364D01*
Y2328D01*
X7125D01*
Y2367D01*
X7125Y2380D01*
X7120Y2403D01*
Y2510D01*
X7111D01*
Y2600D01*
X7118D01*
Y2700D01*
X7083D01*
X7073Y2707D01*
X7050Y2711D01*
D02*
G37*
G36*
X7680Y2562D02*
X7422D01*
Y2470D01*
X7680D01*
Y2562D01*
D02*
G37*
G36*
X6845Y2335D02*
X6708D01*
Y2263D01*
X6845D01*
Y2335D01*
D02*
G37*
G36*
X6682D02*
X6545D01*
Y2263D01*
X6682D01*
Y2335D01*
D02*
G37*
G36*
X7125Y2302D02*
X7063D01*
Y2250D01*
X7125D01*
Y2302D01*
D02*
G37*
G36*
X7037D02*
X6975D01*
Y2250D01*
X7037D01*
Y2302D01*
D02*
G37*
G36*
X6845Y2237D02*
X6708D01*
Y2165D01*
X6845D01*
Y2237D01*
D02*
G37*
G36*
X6682D02*
X6545D01*
Y2165D01*
X6682D01*
Y2237D01*
D02*
G37*
G36*
X6710Y2111D02*
X6692Y2108D01*
X6675Y2101D01*
X6660Y2090D01*
X6649Y2075D01*
X6642Y2058D01*
X6639Y2040D01*
X6642Y2022D01*
X6649Y2005D01*
X6660Y1990D01*
X6675Y1979D01*
X6692Y1972D01*
X6710Y1969D01*
X6728Y1972D01*
X6745Y1979D01*
X6760Y1990D01*
X6771Y2005D01*
X6778Y2022D01*
X6781Y2040D01*
X6778Y2058D01*
X6771Y2075D01*
X6760Y2090D01*
X6745Y2101D01*
X6728Y2108D01*
X6710Y2111D01*
D02*
G37*
G36*
X6500D02*
X6482Y2108D01*
X6465Y2101D01*
X6450Y2090D01*
X6439Y2075D01*
X6432Y2058D01*
X6429Y2040D01*
X6432Y2022D01*
X6439Y2005D01*
X6450Y1990D01*
X6465Y1979D01*
X6482Y1972D01*
X6500Y1969D01*
X6518Y1972D01*
X6535Y1979D01*
X6550Y1990D01*
X6561Y2005D01*
X6568Y2022D01*
X6571Y2040D01*
X6568Y2058D01*
X6561Y2075D01*
X6550Y2090D01*
X6535Y2101D01*
X6518Y2108D01*
X6500Y2111D01*
D02*
G37*
G36*
X6300D02*
X6282Y2108D01*
X6265Y2101D01*
X6250Y2090D01*
X6239Y2075D01*
X6232Y2058D01*
X6229Y2040D01*
X6232Y2022D01*
X6239Y2005D01*
X6250Y1990D01*
X6265Y1979D01*
X6282Y1972D01*
X6300Y1969D01*
X6318Y1972D01*
X6335Y1979D01*
X6350Y1990D01*
X6361Y2005D01*
X6368Y2022D01*
X6371Y2040D01*
X6368Y2058D01*
X6361Y2075D01*
X6350Y2090D01*
X6335Y2101D01*
X6318Y2108D01*
X6300Y2111D01*
D02*
G37*
G36*
X5280Y1822D02*
X5228D01*
Y1773D01*
X5339D01*
X5337Y1784D01*
X5324Y1804D01*
X5304Y1817D01*
X5280Y1822D01*
D02*
G37*
G36*
X5202D02*
X5150D01*
X5126Y1817D01*
X5106Y1804D01*
X5093Y1784D01*
X5091Y1773D01*
X5202D01*
Y1822D01*
D02*
G37*
G36*
X6615Y1653D02*
X6553D01*
Y1600D01*
X6615D01*
Y1653D01*
D02*
G37*
G36*
X6527D02*
X6465D01*
Y1600D01*
X6527D01*
Y1653D01*
D02*
G37*
G36*
X7680Y1530D02*
X7422D01*
Y1438D01*
X7680D01*
Y1530D01*
D02*
G37*
G36*
Y1412D02*
X7422D01*
Y1320D01*
X7680D01*
Y1412D01*
D02*
G37*
G36*
X6250Y1816D02*
X6120D01*
X6099Y1812D01*
X6080Y1800D01*
X6068Y1781D01*
X6064Y1760D01*
X6068Y1739D01*
X6080Y1720D01*
X6081Y1720D01*
Y1690D01*
X6080Y1690D01*
X6068Y1671D01*
X6064Y1650D01*
X6068Y1629D01*
X6080Y1610D01*
X6081Y1610D01*
Y1580D01*
X6080Y1580D01*
X6068Y1561D01*
X6064Y1540D01*
X6068Y1519D01*
X6080Y1500D01*
X6081Y1500D01*
Y1470D01*
X6080Y1470D01*
X6068Y1451D01*
X6064Y1430D01*
X6068Y1409D01*
X6080Y1390D01*
X6081Y1390D01*
Y1360D01*
X6080Y1360D01*
X6068Y1341D01*
X6064Y1320D01*
X6068Y1299D01*
X6080Y1280D01*
X6081Y1280D01*
Y1250D01*
X6080Y1250D01*
X6068Y1231D01*
X6064Y1210D01*
X6068Y1189D01*
X6078Y1174D01*
X6079Y1163D01*
X6076Y1144D01*
X6063Y1124D01*
X6061Y1113D01*
X6185D01*
X6309D01*
X6307Y1124D01*
X6294Y1144D01*
X6291Y1163D01*
X6292Y1174D01*
X6302Y1189D01*
X6306Y1210D01*
X6302Y1231D01*
X6290Y1249D01*
X6291Y1253D01*
X6298Y1274D01*
X6489D01*
Y1227D01*
X6631D01*
Y1340D01*
X6586D01*
Y1393D01*
X6610D01*
Y1499D01*
X6615Y1522D01*
X6615Y1535D01*
Y1575D01*
X6465D01*
Y1535D01*
X6465Y1522D01*
X6470Y1499D01*
Y1393D01*
X6494D01*
Y1366D01*
X6298D01*
X6291Y1387D01*
X6290Y1391D01*
X6302Y1409D01*
X6306Y1430D01*
X6302Y1451D01*
X6290Y1470D01*
X6289Y1470D01*
Y1500D01*
X6290Y1500D01*
X6302Y1519D01*
X6306Y1540D01*
X6302Y1561D01*
X6290Y1580D01*
X6289Y1580D01*
Y1610D01*
X6290Y1610D01*
X6302Y1629D01*
X6306Y1650D01*
X6302Y1671D01*
X6290Y1690D01*
X6289Y1690D01*
Y1720D01*
X6290Y1720D01*
X6302Y1739D01*
X6306Y1760D01*
X6302Y1781D01*
X6290Y1800D01*
X6271Y1812D01*
X6250Y1816D01*
D02*
G37*
G36*
X6309Y867D02*
X6198D01*
Y818D01*
X6250D01*
X6274Y823D01*
X6294Y836D01*
X6307Y856D01*
X6309Y867D01*
D02*
G37*
G36*
X6172D02*
X6061D01*
X6063Y856D01*
X6076Y836D01*
X6096Y823D01*
X6120Y818D01*
X6172D01*
Y867D01*
D02*
G37*
G36*
X5065Y837D02*
X5003D01*
Y785D01*
X5065D01*
Y837D01*
D02*
G37*
G36*
X7680Y680D02*
X7422D01*
Y588D01*
X7680D01*
Y680D01*
D02*
G37*
G36*
Y562D02*
X7422D01*
Y470D01*
X7680D01*
Y562D01*
D02*
G37*
%LPD*%
D37*
X4250Y850D02*
D03*
Y3150D02*
D03*
D38*
X1800Y1393D02*
D03*
Y1688D02*
D03*
X4730Y998D02*
D03*
Y703D02*
D03*
D39*
X2017Y570D02*
D03*
X1723D02*
D03*
D40*
X3370Y2983D02*
D03*
Y3117D02*
D03*
X6540Y1588D02*
D03*
Y1452D02*
D03*
X2350Y3048D02*
D03*
Y2912D02*
D03*
X2260Y1895D02*
D03*
Y1760D02*
D03*
X2060Y1362D02*
D03*
Y1498D02*
D03*
X1670Y970D02*
D03*
Y1105D02*
D03*
X7050Y3135D02*
D03*
Y3000D02*
D03*
Y2450D02*
D03*
Y2315D02*
D03*
X4710Y2038D02*
D03*
Y1902D02*
D03*
X3610Y1895D02*
D03*
Y1760D02*
D03*
X4990Y985D02*
D03*
Y850D02*
D03*
D41*
X2508Y2130D02*
D03*
X2373D02*
D03*
X6410Y990D02*
D03*
X6545D02*
D03*
X868Y3110D02*
D03*
X732D02*
D03*
X2017Y820D02*
D03*
X1883D02*
D03*
X3372Y2130D02*
D03*
X3508D02*
D03*
D42*
X6560Y1136D02*
D03*
Y1284D02*
D03*
D43*
X2523Y2277D02*
D03*
Y2327D02*
D03*
Y2377D02*
D03*
Y2427D02*
D03*
Y2477D02*
D03*
Y2527D02*
D03*
Y2577D02*
D03*
Y2627D02*
D03*
Y2677D02*
D03*
Y2727D02*
D03*
Y2777D02*
D03*
Y2827D02*
D03*
X3367D02*
D03*
Y2777D02*
D03*
Y2727D02*
D03*
Y2677D02*
D03*
Y2627D02*
D03*
Y2577D02*
D03*
Y2527D02*
D03*
Y2477D02*
D03*
Y2427D02*
D03*
Y2377D02*
D03*
Y2327D02*
D03*
Y2277D02*
D03*
D44*
X2670Y2975D02*
D03*
X2720D02*
D03*
X2770D02*
D03*
X2820D02*
D03*
X2870D02*
D03*
X2920D02*
D03*
X2970D02*
D03*
X3020D02*
D03*
X3070D02*
D03*
X3120D02*
D03*
X3170D02*
D03*
X3220D02*
D03*
Y2130D02*
D03*
X3170D02*
D03*
X3120D02*
D03*
X3070D02*
D03*
X3020D02*
D03*
X2970D02*
D03*
X2920D02*
D03*
X2870D02*
D03*
X2820D02*
D03*
X2770D02*
D03*
X2720D02*
D03*
X2670D02*
D03*
D45*
X750Y2835D02*
D03*
Y2985D02*
D03*
X4270Y1855D02*
D03*
Y2005D02*
D03*
X2090Y2245D02*
D03*
Y2395D02*
D03*
X7050Y2800D02*
D03*
Y2650D02*
D03*
X3770Y1745D02*
D03*
Y1895D02*
D03*
X3920Y2405D02*
D03*
Y2555D02*
D03*
D46*
X2025Y1210D02*
D03*
X1930D02*
D03*
X1835D02*
D03*
Y970D02*
D03*
X2025D02*
D03*
D47*
X1330Y1500D02*
D03*
X1570Y1595D02*
D03*
Y1405D02*
D03*
X2450Y1055D02*
D03*
Y1245D02*
D03*
X2210Y1150D02*
D03*
X2440Y485D02*
D03*
Y675D02*
D03*
X2200Y580D02*
D03*
D48*
X1410Y1240D02*
D03*
X1560D02*
D03*
X2295Y890D02*
D03*
X2445D02*
D03*
X2295Y320D02*
D03*
X2445D02*
D03*
D49*
X4733Y1240D02*
D03*
X4587D02*
D03*
X4367Y2250D02*
D03*
X4513D02*
D03*
D50*
X7693Y1425D02*
D03*
Y575D02*
D03*
Y2575D02*
D03*
Y3425D02*
D03*
D51*
X7850Y1000D02*
D03*
Y3000D02*
D03*
D52*
X4520Y2040D02*
D03*
Y1880D02*
D03*
D53*
X4094Y2250D02*
D03*
X3906D02*
D03*
Y2000D02*
D03*
X4094D02*
D03*
X3906Y1750D02*
D03*
X4094D02*
D03*
D54*
X6695Y2250D02*
D03*
Y2450D02*
D03*
Y2650D02*
D03*
Y2850D02*
D03*
Y3050D02*
D03*
Y3250D02*
D03*
Y3450D02*
D03*
Y3650D02*
D03*
X4745Y2250D02*
D03*
Y2450D02*
D03*
Y2650D02*
D03*
Y2850D02*
D03*
Y3050D02*
D03*
Y3250D02*
D03*
Y3450D02*
D03*
Y3650D02*
D03*
D55*
X5215Y1760D02*
D03*
Y1650D02*
D03*
Y1540D02*
D03*
Y1430D02*
D03*
Y1320D02*
D03*
Y1210D02*
D03*
Y1100D02*
D03*
Y990D02*
D03*
Y880D02*
D03*
X6185Y1760D02*
D03*
Y1650D02*
D03*
Y1540D02*
D03*
Y1430D02*
D03*
Y1320D02*
D03*
Y1210D02*
D03*
Y1100D02*
D03*
Y990D02*
D03*
Y880D02*
D03*
D56*
X2342Y2630D02*
X2523D01*
X1430Y3350D02*
X2910D01*
X1220Y3560D02*
X1430Y3350D01*
X433Y3560D02*
X1220D01*
X1390Y3300D02*
X2870D01*
X1175Y3515D02*
X1390Y3300D01*
X451Y3515D02*
X1175D01*
X1360Y3240D02*
X2840D01*
X1130Y3470D02*
X1360Y3240D01*
X470Y3470D02*
X1130D01*
X195Y1047D02*
Y3322D01*
X433Y3560D01*
X240Y3304D02*
X451Y3515D01*
X240Y1270D02*
Y3304D01*
X290Y3290D02*
X470Y3470D01*
X290Y1460D02*
Y3290D01*
X2090Y2230D02*
X2220Y2100D01*
X2090Y2230D02*
Y2245D01*
X3903Y2573D02*
X3910Y2580D01*
X2720Y2440D02*
Y2490D01*
X2658Y2377D02*
X2720Y2440D01*
X2523Y2377D02*
X2658D01*
X3020Y2130D02*
Y2280D01*
X2970Y2330D02*
X3020Y2280D01*
X3070Y2130D02*
Y2400D01*
X3010Y2460D02*
X3070Y2400D01*
X2851Y2460D02*
X3010D01*
X3160Y2390D02*
X3170Y2400D01*
Y2975D01*
X3242Y2783D02*
X3288Y2827D01*
X3242Y2262D02*
Y2783D01*
X460Y2990D02*
X597Y3127D01*
X970Y2960D02*
Y2993D01*
X915Y2750D02*
X1355Y3190D01*
X500Y2750D02*
X915D01*
X935Y2985D02*
X950Y2970D01*
X750Y2985D02*
X935D01*
X732Y3002D02*
X750Y2985D01*
X732Y3002D02*
Y3110D01*
X2102Y2852D02*
X2274D01*
X1746Y2496D02*
X2102Y2852D01*
X500Y2496D02*
X1746D01*
X2274Y2852D02*
X2299Y2827D01*
X2523D01*
X2200Y2915D02*
Y2940D01*
X1355Y3190D02*
X2740Y3190D01*
X750Y2835D02*
X865D01*
X2670Y2277D02*
X2777D01*
X2851Y2351D01*
Y2649D01*
X3370Y3117D02*
X3453D01*
X3530Y3040D01*
Y2820D02*
Y3040D01*
X2373Y2130D02*
Y2273D01*
X2427Y2327D01*
X2523D01*
X2508Y2983D02*
X2670D01*
Y2830D02*
Y2975D01*
Y2830D02*
X2851Y2649D01*
X2570Y3100D02*
X2700D01*
X2740Y3190D02*
X2770Y3160D01*
X2700Y3100D02*
X2720Y3080D01*
Y2975D02*
Y3080D01*
X2770Y2975D02*
Y3160D01*
X2840Y3240D02*
X2917Y3162D01*
X2870Y3300D02*
X2970Y3200D01*
X2910Y3350D02*
X3020Y3240D01*
X2917Y2977D02*
Y3162D01*
X2970Y2975D02*
Y3200D01*
X3020Y2975D02*
Y3240D01*
X3497Y2777D02*
X3520Y2800D01*
X3367Y2777D02*
X3497D01*
X2917Y1833D02*
X2990Y1760D01*
X2917Y1833D02*
Y1924D01*
X2920Y1927D02*
Y2130D01*
X2917Y1924D02*
X2920Y1927D01*
X2970Y1950D02*
X3010Y1910D01*
X3174Y1760D02*
X3610D01*
X2990D02*
X3174D01*
X2970Y1950D02*
Y2130D01*
X240Y1270D02*
X320Y1190D01*
X195Y1047D02*
X500Y742D01*
X290Y1460D02*
X500Y1250D01*
X2240Y2770D02*
X2320D01*
X2320Y2770D01*
X2200Y2915D02*
X2202Y2912D01*
X2190Y2640D02*
X2250Y2580D01*
X2310Y2662D02*
X2342Y2630D01*
X2250Y2580D02*
X2520D01*
X2112Y2527D02*
X2523D01*
X2142Y2477D02*
X2523D01*
X2320Y2770D02*
X2412Y2677D01*
X2202Y2912D02*
X2350D01*
X2917Y2977D02*
X2920Y2975D01*
X2867Y2977D02*
X2870Y2975D01*
X3120D02*
Y3370D01*
X2240Y2390D02*
X2277Y2427D01*
X3607Y2292D02*
X3738D01*
X3780Y2250D01*
X3737Y2380D02*
X3780D01*
X3750Y1990D02*
Y2030D01*
X3660Y2420D02*
Y2425D01*
X3565Y2335D02*
X3607Y2292D01*
X3458Y2335D02*
X3565D01*
X3470Y2275D02*
X3495Y2250D01*
X3694Y2337D02*
X3737Y2380D01*
X3626Y2337D02*
X3694D01*
X3583Y2380D02*
X3626Y2337D01*
X3370Y2380D02*
X3583D01*
X3658Y2427D02*
X3660Y2425D01*
X2090Y2550D02*
X2112Y2527D01*
X2075Y2410D02*
X2142Y2477D01*
X2277Y2427D02*
X2523D01*
X2412Y2677D02*
X2523D01*
Y2627D02*
Y2630D01*
X2520Y2580D02*
X2523Y2577D01*
X4140Y2690D02*
X4220D01*
X4460Y2450D01*
X4130Y2800D02*
X4440D01*
X4080Y2750D02*
X4130Y2800D01*
X4010Y2750D02*
X4080D01*
X3870Y2850D02*
X4745D01*
X3950Y2900D02*
X4400D01*
X3850Y2830D02*
X3870Y2850D01*
X3845Y2970D02*
X3880D01*
X3950Y2900D01*
X3740Y2900D02*
Y3050D01*
X4100Y3410D01*
X3567Y2727D02*
X3740Y2900D01*
X3367Y2727D02*
X3567D01*
X3670Y2700D02*
X3690Y2680D01*
X3630Y2660D02*
X3650Y2680D01*
X3510Y2660D02*
X3630D01*
X3492Y2677D02*
X3510Y2660D01*
X3670Y2700D02*
Y2700D01*
X3650Y2680D02*
X3670Y2700D01*
X3650Y2680D02*
X3690D01*
X3640Y3050D02*
X4045Y3455D01*
X3640Y2960D02*
Y3050D01*
X4440Y2800D02*
X4590Y2650D01*
X4460Y2450D02*
X4745D01*
X3910Y2580D02*
Y2670D01*
X4590Y2650D02*
X4745D01*
X4400Y2900D02*
X4550Y3050D01*
X4745D01*
X4100Y3410D02*
X4420D01*
X4045Y3455D02*
X4740D01*
X3367Y2677D02*
X3492D01*
X4740Y3455D02*
X4745Y3450D01*
X4580Y3250D02*
X4745D01*
X4420Y3410D02*
X4580Y3250D01*
X3760Y3650D02*
X4745D01*
X3467Y3358D02*
X3760Y3650D01*
X3378Y3358D02*
X3467D01*
X3220Y3200D02*
X3378Y3358D01*
X3220Y2975D02*
Y3200D01*
X3547Y2477D02*
X3580Y2510D01*
X3367Y2477D02*
X3547D01*
X3367Y2427D02*
X3658D01*
X3470Y2275D02*
Y2277D01*
X3367D02*
X3470D01*
X3451Y2327D02*
X3458Y2335D01*
X3367Y2327D02*
X3451D01*
X3367Y2377D02*
X3370Y2380D01*
X3903Y2573D02*
X3920Y2555D01*
X3370Y3117D02*
Y3220D01*
X2230Y2130D02*
X2373D01*
X2508D02*
X2670D01*
X3367Y2980D02*
X3370Y2983D01*
X3367Y2827D02*
Y2980D01*
X2670Y2130D02*
Y2277D01*
X2523D02*
X2670D01*
X3288Y2827D02*
X3367D01*
X3220Y2130D02*
X3220Y2130D01*
X3220Y1950D02*
Y2130D01*
X2870Y1940D02*
Y2130D01*
X6545Y990D02*
X6560Y1005D01*
X6410Y990D02*
X6410Y990D01*
X6533Y1320D02*
X6540Y1314D01*
X597Y3127D02*
X716D01*
X3750Y1990D02*
X3780Y1960D01*
X1800Y1393D02*
X1835D01*
X4265Y2000D02*
X4270Y2005D01*
X4094Y2000D02*
X4265D01*
X3901Y1745D02*
X3906Y1750D01*
X3770Y1745D02*
X3901D01*
X3780Y1910D02*
Y1960D01*
X4730Y1000D02*
X4733Y1003D01*
X4730Y1000D02*
X4740Y990D01*
X4940Y1650D02*
X5215D01*
X5030Y1540D02*
X5215D01*
X7050Y2450D02*
X7050Y2450D01*
X6480Y2850D02*
X6695D01*
X6480Y3050D02*
X6695D01*
X6480Y3250D02*
X6695D01*
X6480Y3450D02*
X6695D01*
X4513Y2230D02*
X4533Y2250D01*
X4513Y2230D02*
X4520Y2224D01*
X4710Y2215D02*
X4745Y2250D01*
X3906D02*
X3920Y2264D01*
Y2405D01*
X3906Y1750D02*
X3920Y1764D01*
X2690Y1760D02*
X2870Y1940D01*
X2260Y1760D02*
X2690D01*
X2440Y325D02*
Y485D01*
Y325D02*
X2445Y320D01*
Y1050D02*
X2450Y1055D01*
X2445Y890D02*
Y1050D01*
X1670Y970D02*
X1835D01*
X1773Y1393D02*
X1800D01*
X1560Y1395D02*
X1570Y1405D01*
X1560Y1240D02*
Y1395D01*
X1320Y1500D02*
X1330Y1490D01*
D57*
X3233Y2270D02*
X3372Y2130D01*
X3080Y2270D02*
X3233D01*
X868Y3110D02*
X970D01*
X2130Y3050D02*
X2440D01*
X1790Y2710D02*
X2130Y3050D01*
X1000Y2710D02*
X1790D01*
X1000D02*
Y2720D01*
X2440Y3050D02*
X2508Y2983D01*
X500Y1758D02*
X500Y1850D01*
X640Y1990D02*
X1110D01*
X500Y1850D02*
X640Y1990D01*
X1110D02*
X1250Y1850D01*
X3599Y2200D02*
X3615D01*
X3690Y2130D02*
X4030D01*
X3561Y2001D02*
X3690Y2130D01*
X3380Y2001D02*
X3561D01*
X3505Y1895D02*
X3610D01*
X3589Y2210D02*
X3599Y2200D01*
X3509Y2130D02*
X3589Y2210D01*
X3508Y2130D02*
X3509D01*
X6560Y1005D02*
Y1136D01*
X6540Y1314D02*
Y1452D01*
X6185Y1320D02*
X6533D01*
X3906Y2000D02*
Y2110D01*
X1883Y820D02*
X1930Y868D01*
X1835Y1210D02*
Y1393D01*
X2030D01*
X6020Y1100D02*
X6185D01*
X6185Y1100D01*
X6020Y880D02*
X6185D01*
X6480Y3650D02*
X6695D01*
X4990Y740D02*
Y850D01*
X4730Y540D02*
Y705D01*
X2210Y890D02*
X2295D01*
X2210Y320D02*
X2295D01*
X1740Y760D02*
X1800Y820D01*
X1723Y760D02*
X1740D01*
X1723Y570D02*
Y760D01*
X1800Y820D02*
X1883D01*
X1670Y1105D02*
X1905D01*
X1930Y868D02*
Y1210D01*
X6470Y2250D02*
X6695D01*
X6480Y2650D02*
X6695D01*
X5060Y1760D02*
X5215D01*
X4670Y1750D02*
X4710Y1790D01*
Y1902D01*
X4520Y1750D02*
Y1880D01*
X4270Y1750D02*
Y1855D01*
X2260Y1895D02*
X2365D01*
X1410Y1120D02*
Y1240D01*
X1670Y1105D02*
Y1210D01*
X1800Y1688D02*
X1973D01*
X2060Y1600D01*
Y1498D02*
Y1600D01*
X3906Y2000D02*
X4094Y1813D01*
Y1750D02*
Y1813D01*
X3380Y2001D02*
Y2123D01*
Y1880D02*
Y2001D01*
X4094Y2193D02*
Y2250D01*
X4030Y2130D02*
X4094Y2193D01*
X4740Y990D02*
X5215D01*
X2570Y710D02*
Y1245D01*
X2450D02*
X4587D01*
X3372Y2130D02*
X3380Y2123D01*
X4733Y1003D02*
Y1240D01*
X4094Y2250D02*
X4367D01*
X4533D02*
X4745D01*
X4520Y2040D02*
Y2224D01*
X4710Y2038D02*
Y2215D01*
X1250Y1850D02*
X1980D01*
X2210Y1150D02*
Y1620D01*
X1980Y1850D02*
X2210Y1620D01*
X2535Y675D02*
X2570Y710D01*
X2440Y675D02*
X2535D01*
X1396Y850D02*
X1450D01*
X1000Y1246D02*
X1396Y850D01*
X2017Y570D02*
Y962D01*
Y570D02*
X2027Y580D01*
X2200D01*
X2017Y962D02*
X2025Y970D01*
Y1210D02*
Y1340D01*
X1570Y1595D02*
X1773Y1393D01*
X1000Y1500D02*
X1320D01*
D58*
X6185Y990D02*
X6410D01*
D59*
X6560D02*
X7840D01*
X7050Y3000D02*
X7850D01*
X7050Y2800D02*
Y3000D01*
Y2450D02*
Y2650D01*
X6695Y2450D02*
X7050D01*
D60*
X2686Y1760D02*
D03*
X3174D02*
D03*
D61*
X500Y2242D02*
D03*
Y2496D02*
D03*
Y3004D02*
D03*
Y2750D02*
D03*
X3250Y3750D02*
D03*
X2750D02*
D03*
X500Y1250D02*
D03*
Y1504D02*
D03*
Y996D02*
D03*
Y742D02*
D03*
X3250Y250D02*
D03*
X2750D02*
D03*
D62*
X500Y3258D02*
D03*
Y1758D02*
D03*
D63*
X3350Y3500D02*
D03*
X2650Y500D02*
D03*
D64*
X2650Y3500D02*
D03*
X3350Y500D02*
D03*
D65*
X1450Y850D02*
D03*
Y2000D02*
D03*
D66*
X1000Y1246D02*
D03*
Y1754D02*
D03*
Y1500D02*
D03*
D67*
X6710Y2040D02*
D03*
X6500D02*
D03*
X6300D02*
D03*
X3120Y3370D02*
D03*
X7350Y3650D02*
D03*
X7290Y660D02*
D03*
X2720Y2490D02*
D03*
X2970Y2330D02*
D03*
X3160Y2390D02*
D03*
X970Y2960D02*
D03*
Y3110D02*
D03*
X1000Y2710D02*
D03*
X2200Y2940D02*
D03*
X865Y2835D02*
D03*
X2570Y3100D02*
D03*
X3530Y2820D02*
D03*
X3000Y1890D02*
D03*
X320Y1190D02*
D03*
X2240Y2770D02*
D03*
X2190Y2640D02*
D03*
X2310Y2662D02*
D03*
X2240Y2390D02*
D03*
X2220Y2100D02*
D03*
X3780Y2380D02*
D03*
Y2250D02*
D03*
X3615Y2200D02*
D03*
X3750Y2030D02*
D03*
X3660Y2420D02*
D03*
X3495Y2250D02*
D03*
X3505Y1895D02*
D03*
X2090Y2550D02*
D03*
X4140Y2690D02*
D03*
X4010Y2750D02*
D03*
X3850Y2830D02*
D03*
X3845Y2970D02*
D03*
X3650Y2680D02*
D03*
X3640Y2960D02*
D03*
X3910Y2670D02*
D03*
X3580Y2510D02*
D03*
X3370Y3220D02*
D03*
X3220Y1950D02*
D03*
X7150Y3650D02*
D03*
X6950D02*
D03*
X7350Y3850D02*
D03*
X7150D02*
D03*
X6950D02*
D03*
X6750D02*
D03*
X6550D02*
D03*
X6350D02*
D03*
X6150D02*
D03*
X5950D02*
D03*
X5750D02*
D03*
X5550D02*
D03*
X5350D02*
D03*
X5150D02*
D03*
X4950D02*
D03*
X5300Y750D02*
D03*
X5150D02*
D03*
X7500Y3600D02*
D03*
X7350Y3500D02*
D03*
Y3350D02*
D03*
X7800Y3200D02*
D03*
X7650D02*
D03*
X7500D02*
D03*
X7350D02*
D03*
X7200D02*
D03*
X7050Y3300D02*
D03*
X7850Y2400D02*
D03*
X7700D02*
D03*
X7550D02*
D03*
X7400D02*
D03*
X7800Y2800D02*
D03*
X7650D02*
D03*
X7200Y2850D02*
D03*
X7500Y2800D02*
D03*
X7350D02*
D03*
X7250Y2750D02*
D03*
Y2600D02*
D03*
Y2450D02*
D03*
Y2300D02*
D03*
Y2150D02*
D03*
X7100D02*
D03*
X6950D02*
D03*
X6300Y2250D02*
D03*
Y2450D02*
D03*
Y2650D02*
D03*
X6000Y1000D02*
D03*
X5900Y900D02*
D03*
Y1050D02*
D03*
Y1200D02*
D03*
Y1350D02*
D03*
Y1500D02*
D03*
Y1650D02*
D03*
Y1800D02*
D03*
X6480Y2450D02*
D03*
X6900Y3450D02*
D03*
Y3250D02*
D03*
Y3050D02*
D03*
Y2850D02*
D03*
Y2650D02*
D03*
X7290Y520D02*
D03*
X7400Y400D02*
D03*
Y750D02*
D03*
X7550D02*
D03*
Y400D02*
D03*
X7850Y750D02*
D03*
X7700D02*
D03*
X7400Y1250D02*
D03*
X7850D02*
D03*
X7700D02*
D03*
X7550D02*
D03*
X7300Y1350D02*
D03*
Y1500D02*
D03*
X7400Y1600D02*
D03*
X7550D02*
D03*
X7700D02*
D03*
X7850D02*
D03*
X7650Y1100D02*
D03*
X7450D02*
D03*
X7250D02*
D03*
X7050D02*
D03*
X6800D02*
D03*
X7650Y850D02*
D03*
X7450D02*
D03*
X7250D02*
D03*
X7050D02*
D03*
X6800D02*
D03*
X6600D02*
D03*
X6400D02*
D03*
X6390Y1170D02*
D03*
X6380Y1440D02*
D03*
X6020Y1100D02*
D03*
X6020Y880D02*
D03*
X6480Y3650D02*
D03*
X4990Y740D02*
D03*
X4730Y540D02*
D03*
X2210Y320D02*
D03*
X2210Y890D02*
D03*
X1723Y730D02*
D03*
X1780Y820D02*
D03*
X6490Y2250D02*
D03*
X6480Y2650D02*
D03*
X5060Y1760D02*
D03*
X4270Y1750D02*
D03*
X4520D02*
D03*
X4670D02*
D03*
X2390Y1880D02*
D03*
X1410Y1120D02*
D03*
X1670Y1210D02*
D03*
X2020Y1650D02*
D03*
X3375Y1245D02*
D03*
X3380Y1880D02*
D03*
X5030Y1540D02*
D03*
X4940Y1650D02*
D03*
X6480Y2850D02*
D03*
Y3050D02*
D03*
Y3250D02*
D03*
Y3450D02*
D03*
D68*
X250Y250D02*
D03*
Y3750D02*
D03*
X7750Y250D02*
D03*
Y3750D02*
D03*
M02*
