G04*
G04 #@! TF.GenerationSoftware,Altium Limited,Altium Designer,18.1.1 (9)*
G04*
G04 Layer_Physical_Order=1*
G04 Layer_Color=255*
%FSLAX42Y42*%
%MOMM*%
G71*
G01*
G75*
%ADD41C,4.00*%
%ADD42C,1.20*%
%ADD43R,1.00X2.15*%
%ADD44R,3.25X2.15*%
%ADD45R,0.95X0.60*%
%ADD46R,1.50X1.50*%
%ADD47R,0.85X0.25*%
%ADD48R,1.00X0.80*%
G04:AMPARAMS|DCode=49|XSize=1.66mm|YSize=2.42mm|CornerRadius=0.25mm|HoleSize=0mm|Usage=FLASHONLY|Rotation=270.000|XOffset=0mm|YOffset=0mm|HoleType=Round|Shape=RoundedRectangle|*
%AMROUNDEDRECTD49*
21,1,1.66,1.92,0,0,270.0*
21,1,1.16,2.42,0,0,270.0*
1,1,0.50,-0.96,-0.58*
1,1,0.50,-0.96,0.58*
1,1,0.50,0.96,0.58*
1,1,0.50,0.96,-0.58*
%
%ADD49ROUNDEDRECTD49*%
%ADD50R,0.80X1.00*%
%ADD51R,1.02X0.74*%
%ADD52O,1.45X0.30*%
%ADD53O,0.30X1.45*%
%ADD54R,0.60X0.95*%
%ADD55R,1.00X0.60*%
%ADD56R,0.74X1.02*%
%ADD57R,4.90X1.60*%
%ADD58R,2.35X1.50*%
%ADD59R,1.45X1.00*%
G04:AMPARAMS|DCode=60|XSize=0.86mm|YSize=1.35mm|CornerRadius=0.22mm|HoleSize=0mm|Usage=FLASHONLY|Rotation=0.000|XOffset=0mm|YOffset=0mm|HoleType=Round|Shape=RoundedRectangle|*
%AMROUNDEDRECTD60*
21,1,0.86,0.91,0,0,0.0*
21,1,0.42,1.35,0,0,0.0*
1,1,0.44,0.21,-0.46*
1,1,0.44,-0.21,-0.46*
1,1,0.44,-0.21,0.46*
1,1,0.44,0.21,0.46*
%
%ADD60ROUNDEDRECTD60*%
%ADD61R,2.50X1.20*%
%ADD62O,2.00X0.70*%
%ADD63C,0.25*%
%ADD64C,1.00*%
%ADD65C,0.80*%
%ADD66C,0.50*%
%ADD67C,0.70*%
%ADD68C,1.06*%
%ADD69C,1.80*%
%ADD70O,2.25X2.20*%
%ADD71C,2.20*%
G04:AMPARAMS|DCode=72|XSize=1.8mm|YSize=1.8mm|CornerRadius=0.45mm|HoleSize=0mm|Usage=FLASHONLY|Rotation=270.000|XOffset=0mm|YOffset=0mm|HoleType=Round|Shape=RoundedRectangle|*
%AMROUNDEDRECTD72*
21,1,1.80,0.90,0,0,270.0*
21,1,0.90,1.80,0,0,270.0*
1,1,0.90,-0.45,-0.45*
1,1,0.90,-0.45,0.45*
1,1,0.90,0.45,0.45*
1,1,0.90,0.45,-0.45*
%
%ADD72ROUNDEDRECTD72*%
%ADD73C,2.00*%
%ADD74C,2.10*%
%ADD75C,1.25*%
%ADD76C,3.80*%
%ADD77C,1.00*%
G36*
X7964Y3555D02*
X7963Y3530D01*
X7939Y3530D01*
X7705D01*
Y3425D01*
Y3320D01*
X7939D01*
X7963Y3320D01*
X7964Y3295D01*
Y3100D01*
X7707D01*
Y3066D01*
X7149D01*
X7125Y3070D01*
X7125Y3091D01*
Y3122D01*
X7050D01*
X6975D01*
Y3090D01*
X6975Y3070D01*
X6975Y3045D01*
Y2935D01*
X6984D01*
Y2855D01*
X6977D01*
Y2745D01*
X7015D01*
X7017Y2743D01*
X7029Y2738D01*
X7031Y2725D01*
X7029Y2712D01*
X7017Y2707D01*
X7015Y2705D01*
X6977D01*
Y2595D01*
X6984D01*
Y2516D01*
X6845D01*
Y2535D01*
X6545D01*
Y2365D01*
X6845D01*
Y2384D01*
X6951D01*
X6975Y2380D01*
X6975Y2359D01*
Y2328D01*
X7125D01*
Y2360D01*
X7125Y2380D01*
X7125Y2405D01*
Y2515D01*
X7116D01*
Y2595D01*
X7123D01*
Y2705D01*
X7085D01*
X7083Y2707D01*
X7071Y2712D01*
X7069Y2725D01*
X7071Y2738D01*
X7083Y2743D01*
X7085Y2745D01*
X7123D01*
Y2855D01*
X7116D01*
Y2934D01*
X7707D01*
Y2900D01*
X7964D01*
Y2705D01*
X7963Y2680D01*
X7939Y2680D01*
X7705D01*
Y2575D01*
Y2470D01*
X7939D01*
X7963Y2470D01*
X7964Y2445D01*
Y1555D01*
X7963Y1530D01*
X7939Y1530D01*
X7705D01*
Y1425D01*
Y1320D01*
X7939D01*
X7963Y1320D01*
X7964Y1295D01*
Y1100D01*
X7707D01*
Y1056D01*
X6653D01*
X6636Y1074D01*
Y1196D01*
X6636Y1199D01*
Y1221D01*
X6636Y1224D01*
Y1346D01*
X6591D01*
Y1387D01*
X6615D01*
Y1497D01*
X6615Y1518D01*
X6615Y1543D01*
Y1575D01*
X6465D01*
Y1543D01*
X6465Y1522D01*
X6465Y1497D01*
Y1387D01*
X6446Y1371D01*
X6313D01*
X6300Y1396D01*
X6307Y1406D01*
X6312Y1430D01*
X6307Y1454D01*
X6294Y1474D01*
Y1496D01*
X6307Y1516D01*
X6312Y1540D01*
X6307Y1564D01*
X6294Y1584D01*
Y1606D01*
X6307Y1626D01*
X6312Y1650D01*
X6307Y1674D01*
X6294Y1694D01*
Y1716D01*
X6307Y1736D01*
X6312Y1760D01*
X6307Y1784D01*
X6294Y1804D01*
X6274Y1817D01*
X6250Y1822D01*
X6120D01*
X6096Y1817D01*
X6076Y1804D01*
X6063Y1784D01*
X6058Y1760D01*
X6063Y1736D01*
X6076Y1716D01*
Y1694D01*
X6063Y1674D01*
X6058Y1650D01*
X6063Y1626D01*
X6076Y1606D01*
Y1584D01*
X6063Y1564D01*
X6058Y1540D01*
X6063Y1516D01*
X6076Y1496D01*
Y1474D01*
X6063Y1454D01*
X6058Y1430D01*
X6063Y1406D01*
X6073Y1391D01*
X6075Y1375D01*
X6073Y1359D01*
X6063Y1344D01*
X6058Y1320D01*
X6063Y1296D01*
X6076Y1276D01*
Y1254D01*
X6063Y1234D01*
X6058Y1210D01*
X6063Y1186D01*
X6076Y1166D01*
Y1144D01*
X6063Y1124D01*
X6061Y1113D01*
X6185D01*
Y1087D01*
X6061D01*
X6063Y1076D01*
X6076Y1056D01*
Y1034D01*
X6063Y1014D01*
X6058Y990D01*
X6063Y966D01*
X6076Y946D01*
Y924D01*
X6063Y904D01*
X6061Y893D01*
X6185D01*
X6309D01*
X6307Y904D01*
X6320Y928D01*
X6345D01*
Y915D01*
X6455D01*
X6475Y915D01*
X6500Y915D01*
X6610D01*
Y924D01*
X7707D01*
Y900D01*
X7964D01*
Y705D01*
X7963Y680D01*
X7939Y680D01*
X7705D01*
Y575D01*
Y470D01*
X7939D01*
X7963Y470D01*
X7964Y445D01*
Y36D01*
X4900D01*
Y766D01*
X4915Y785D01*
X4925Y785D01*
X4977D01*
Y850D01*
X4990D01*
Y863D01*
X5065D01*
Y868D01*
X5090Y870D01*
X5093Y856D01*
X5106Y836D01*
X5126Y823D01*
X5150Y818D01*
X5280D01*
X5304Y823D01*
X5324Y836D01*
X5337Y856D01*
X5342Y880D01*
X5337Y904D01*
X5324Y924D01*
Y946D01*
X5337Y966D01*
X5342Y990D01*
X5337Y1014D01*
X5324Y1034D01*
Y1056D01*
X5337Y1076D01*
X5342Y1100D01*
X5337Y1124D01*
X5324Y1144D01*
Y1166D01*
X5337Y1186D01*
X5342Y1210D01*
X5337Y1234D01*
X5324Y1254D01*
Y1276D01*
X5337Y1296D01*
X5342Y1320D01*
X5337Y1344D01*
X5327Y1359D01*
X5325Y1375D01*
X5327Y1391D01*
X5337Y1406D01*
X5342Y1430D01*
X5337Y1454D01*
X5324Y1474D01*
Y1496D01*
X5337Y1516D01*
X5342Y1540D01*
X5337Y1564D01*
X5324Y1584D01*
Y1606D01*
X5337Y1626D01*
X5342Y1650D01*
X5337Y1674D01*
X5324Y1694D01*
Y1716D01*
X5337Y1736D01*
X5339Y1747D01*
X5215D01*
X5091D01*
X5093Y1736D01*
X5106Y1716D01*
Y1712D01*
X5083Y1689D01*
X5018D01*
X5016Y1703D01*
X5007Y1724D01*
X4993Y1743D01*
X4974Y1757D01*
X4955Y1765D01*
X4951Y1772D01*
X4946Y1792D01*
X4987Y1833D01*
X4996Y1845D01*
X4999Y1860D01*
Y2420D01*
X4996Y2435D01*
X4987Y2447D01*
X4957Y2477D01*
X4945Y2486D01*
X4930Y2489D01*
X4900D01*
Y3964D01*
X7964D01*
Y3555D01*
D02*
G37*
%LPC*%
G36*
X6845Y3735D02*
X6708D01*
Y3663D01*
X6845D01*
Y3735D01*
D02*
G37*
G36*
X6682D02*
X6545D01*
Y3663D01*
X6682D01*
Y3735D01*
D02*
G37*
G36*
X6845Y3637D02*
X6708D01*
Y3565D01*
X6845D01*
Y3637D01*
D02*
G37*
G36*
X6682D02*
X6545D01*
Y3565D01*
X6682D01*
Y3637D01*
D02*
G37*
G36*
X7680Y3530D02*
X7422D01*
Y3438D01*
X7680D01*
Y3530D01*
D02*
G37*
G36*
X6480Y3539D02*
X6457Y3536D01*
X6436Y3527D01*
X6417Y3513D01*
X6403Y3494D01*
X6394Y3473D01*
X6391Y3450D01*
X6394Y3427D01*
X6403Y3406D01*
X6417Y3387D01*
X6436Y3373D01*
X6457Y3364D01*
X6465Y3363D01*
X6470Y3363D01*
Y3337D01*
X6465Y3337D01*
X6457Y3336D01*
X6436Y3327D01*
X6417Y3313D01*
X6403Y3294D01*
X6394Y3273D01*
X6391Y3250D01*
X6394Y3227D01*
X6403Y3206D01*
X6417Y3187D01*
X6436Y3173D01*
X6457Y3164D01*
X6465Y3163D01*
X6470Y3163D01*
Y3137D01*
X6465Y3137D01*
X6457Y3136D01*
X6436Y3127D01*
X6417Y3113D01*
X6403Y3094D01*
X6394Y3073D01*
X6391Y3050D01*
X6394Y3027D01*
X6403Y3006D01*
X6417Y2987D01*
X6436Y2973D01*
X6457Y2964D01*
X6465Y2963D01*
X6470Y2963D01*
Y2937D01*
X6465Y2937D01*
X6457Y2936D01*
X6436Y2927D01*
X6417Y2913D01*
X6403Y2894D01*
X6394Y2873D01*
X6391Y2850D01*
X6394Y2827D01*
X6403Y2806D01*
X6417Y2787D01*
X6436Y2773D01*
X6457Y2764D01*
X6480Y2761D01*
X6503Y2764D01*
X6520Y2771D01*
X6545Y2765D01*
Y2765D01*
X6845D01*
Y2935D01*
X6545D01*
X6545Y2935D01*
X6520Y2929D01*
X6503Y2936D01*
X6495Y2937D01*
X6490Y2937D01*
Y2963D01*
X6495Y2963D01*
X6503Y2964D01*
X6520Y2971D01*
X6545Y2965D01*
Y2965D01*
X6845D01*
Y3135D01*
X6545D01*
X6545Y3135D01*
X6520Y3129D01*
X6503Y3136D01*
X6495Y3137D01*
X6490Y3137D01*
Y3163D01*
X6495Y3163D01*
X6503Y3164D01*
X6520Y3171D01*
X6545Y3165D01*
Y3165D01*
X6845D01*
Y3335D01*
X6545D01*
X6545Y3335D01*
X6520Y3329D01*
X6503Y3336D01*
X6495Y3337D01*
X6490Y3337D01*
Y3363D01*
X6495Y3363D01*
X6503Y3364D01*
X6520Y3371D01*
X6545Y3365D01*
Y3365D01*
X6845D01*
Y3535D01*
X6545D01*
X6545Y3535D01*
X6520Y3529D01*
X6503Y3536D01*
X6480Y3539D01*
D02*
G37*
G36*
X7680Y3412D02*
X7422D01*
Y3320D01*
X7680D01*
Y3412D01*
D02*
G37*
G36*
X7125Y3200D02*
X7063D01*
Y3148D01*
X7125D01*
Y3200D01*
D02*
G37*
G36*
X7037D02*
X6975D01*
Y3148D01*
X7037D01*
Y3200D01*
D02*
G37*
G36*
X6845Y2735D02*
X6708D01*
Y2663D01*
X6845D01*
Y2735D01*
D02*
G37*
G36*
X6682D02*
X6545D01*
Y2663D01*
X6682D01*
Y2735D01*
D02*
G37*
G36*
X7680Y2680D02*
X7422D01*
Y2588D01*
X7680D01*
Y2680D01*
D02*
G37*
G36*
X6845Y2637D02*
X6708D01*
Y2565D01*
X6845D01*
Y2637D01*
D02*
G37*
G36*
X6682D02*
X6545D01*
Y2565D01*
X6682D01*
Y2637D01*
D02*
G37*
G36*
X7680Y2562D02*
X7422D01*
Y2470D01*
X7680D01*
Y2562D01*
D02*
G37*
G36*
X6845Y2335D02*
X6708D01*
Y2263D01*
X6845D01*
Y2335D01*
D02*
G37*
G36*
X6682D02*
X6545D01*
Y2263D01*
X6682D01*
Y2335D01*
D02*
G37*
G36*
X7125Y2302D02*
X7063D01*
Y2250D01*
X7125D01*
Y2302D01*
D02*
G37*
G36*
X7037D02*
X6975D01*
Y2250D01*
X7037D01*
Y2302D01*
D02*
G37*
G36*
X6845Y2237D02*
X6708D01*
Y2165D01*
X6845D01*
Y2237D01*
D02*
G37*
G36*
X6682D02*
X6545D01*
Y2165D01*
X6682D01*
Y2237D01*
D02*
G37*
G36*
X5280Y1822D02*
X5228D01*
Y1773D01*
X5339D01*
X5337Y1784D01*
X5324Y1804D01*
X5304Y1817D01*
X5280Y1822D01*
D02*
G37*
G36*
X5202D02*
X5150D01*
X5126Y1817D01*
X5106Y1804D01*
X5093Y1784D01*
X5091Y1773D01*
X5202D01*
Y1822D01*
D02*
G37*
G36*
X6615Y1653D02*
X6553D01*
Y1600D01*
X6615D01*
Y1653D01*
D02*
G37*
G36*
X6527D02*
X6465D01*
Y1600D01*
X6527D01*
Y1653D01*
D02*
G37*
G36*
X7680Y1530D02*
X7422D01*
Y1438D01*
X7680D01*
Y1530D01*
D02*
G37*
G36*
Y1412D02*
X7422D01*
Y1320D01*
X7680D01*
Y1412D01*
D02*
G37*
G36*
X6309Y867D02*
X6198D01*
Y818D01*
X6250D01*
X6274Y823D01*
X6294Y836D01*
X6307Y856D01*
X6309Y867D01*
D02*
G37*
G36*
X6172D02*
X6061D01*
X6063Y856D01*
X6076Y836D01*
X6096Y823D01*
X6120Y818D01*
X6172D01*
Y867D01*
D02*
G37*
G36*
X5065Y837D02*
X5003D01*
Y785D01*
X5065D01*
Y837D01*
D02*
G37*
G36*
X7680Y680D02*
X7422D01*
Y588D01*
X7680D01*
Y680D01*
D02*
G37*
G36*
Y562D02*
X7422D01*
Y470D01*
X7680D01*
Y562D01*
D02*
G37*
%LPD*%
D41*
X4250Y850D02*
D03*
Y3150D02*
D03*
D42*
X2300Y2420D02*
D03*
Y2220D02*
D03*
D43*
X2110Y843D02*
D03*
X1880D02*
D03*
X1650D02*
D03*
D44*
X1880Y258D02*
D03*
D45*
X2370Y3675D02*
D03*
Y3525D02*
D03*
X2200Y3675D02*
D03*
Y3525D02*
D03*
X740Y3395D02*
D03*
Y3245D02*
D03*
X4270Y1855D02*
D03*
Y2005D02*
D03*
X7050Y2800D02*
D03*
Y2650D02*
D03*
X3770Y1745D02*
D03*
Y1895D02*
D03*
X3920Y2405D02*
D03*
Y2555D02*
D03*
D46*
X1908Y3625D02*
D03*
X1530Y2320D02*
D03*
D47*
X1766Y3700D02*
D03*
Y3650D02*
D03*
Y3600D02*
D03*
Y3550D02*
D03*
X2050Y3700D02*
D03*
Y3650D02*
D03*
Y3600D02*
D03*
Y3550D02*
D03*
D48*
X1600Y3667D02*
D03*
Y3533D02*
D03*
X6540Y1588D02*
D03*
Y1452D02*
D03*
X2320Y2790D02*
D03*
Y2925D02*
D03*
X2260Y1895D02*
D03*
Y1760D02*
D03*
X2060Y1362D02*
D03*
Y1498D02*
D03*
X1240Y260D02*
D03*
Y395D02*
D03*
X7050Y3135D02*
D03*
Y3000D02*
D03*
Y2450D02*
D03*
Y2315D02*
D03*
X4710Y2038D02*
D03*
Y1902D02*
D03*
X3610Y1895D02*
D03*
Y1760D02*
D03*
X4990Y985D02*
D03*
Y850D02*
D03*
D49*
X1800Y1393D02*
D03*
Y1688D02*
D03*
X940Y262D02*
D03*
Y557D02*
D03*
X4730Y1000D02*
D03*
Y705D02*
D03*
D50*
X6410Y990D02*
D03*
X6545D02*
D03*
X868Y3110D02*
D03*
X732D02*
D03*
X2005Y2510D02*
D03*
X2140D02*
D03*
X2012Y2130D02*
D03*
X2148D02*
D03*
X3372D02*
D03*
X3508D02*
D03*
D51*
X6560Y1136D02*
D03*
Y1284D02*
D03*
D52*
X2523Y2277D02*
D03*
Y2327D02*
D03*
Y2377D02*
D03*
Y2427D02*
D03*
Y2477D02*
D03*
Y2527D02*
D03*
Y2577D02*
D03*
Y2627D02*
D03*
Y2677D02*
D03*
Y2727D02*
D03*
Y2777D02*
D03*
Y2827D02*
D03*
X3367D02*
D03*
Y2777D02*
D03*
Y2727D02*
D03*
Y2677D02*
D03*
Y2627D02*
D03*
Y2577D02*
D03*
Y2527D02*
D03*
Y2477D02*
D03*
Y2427D02*
D03*
Y2377D02*
D03*
Y2327D02*
D03*
Y2277D02*
D03*
D53*
X2670Y2975D02*
D03*
X2720D02*
D03*
X2770D02*
D03*
X2820D02*
D03*
X2870D02*
D03*
X2920D02*
D03*
X2970D02*
D03*
X3020D02*
D03*
X3070D02*
D03*
X3120D02*
D03*
X3170D02*
D03*
X3220D02*
D03*
Y2130D02*
D03*
X3170D02*
D03*
X3120D02*
D03*
X3070D02*
D03*
X3020D02*
D03*
X2970D02*
D03*
X2920D02*
D03*
X2870D02*
D03*
X2820D02*
D03*
X2770D02*
D03*
X2720D02*
D03*
X2670D02*
D03*
D54*
X3115Y1400D02*
D03*
X2965D02*
D03*
X2835D02*
D03*
X2685D02*
D03*
X1410Y1240D02*
D03*
X1560D02*
D03*
X2295Y890D02*
D03*
X2445D02*
D03*
X3245Y860D02*
D03*
X3095D02*
D03*
D55*
X1330Y1500D02*
D03*
X1570Y1595D02*
D03*
Y1405D02*
D03*
X2450Y1055D02*
D03*
Y1245D02*
D03*
X2210Y1150D02*
D03*
X2950Y855D02*
D03*
Y1045D02*
D03*
X2710Y950D02*
D03*
D56*
X4733Y1240D02*
D03*
X4587D02*
D03*
X4367Y2250D02*
D03*
X4513D02*
D03*
D57*
X7693Y1425D02*
D03*
Y575D02*
D03*
Y2575D02*
D03*
Y3425D02*
D03*
D58*
X7850Y1000D02*
D03*
Y3000D02*
D03*
D59*
X4520Y2040D02*
D03*
Y1880D02*
D03*
D60*
X4094Y2250D02*
D03*
X3906D02*
D03*
Y2000D02*
D03*
X4094D02*
D03*
X3906Y1750D02*
D03*
X4094D02*
D03*
D61*
X6695Y2250D02*
D03*
Y2450D02*
D03*
Y2650D02*
D03*
Y2850D02*
D03*
Y3050D02*
D03*
Y3250D02*
D03*
Y3450D02*
D03*
Y3650D02*
D03*
X4745Y2250D02*
D03*
Y2450D02*
D03*
Y2650D02*
D03*
Y2850D02*
D03*
Y3050D02*
D03*
Y3250D02*
D03*
Y3450D02*
D03*
Y3650D02*
D03*
D62*
X5215Y1760D02*
D03*
Y1650D02*
D03*
Y1540D02*
D03*
Y1430D02*
D03*
Y1320D02*
D03*
Y1210D02*
D03*
Y1100D02*
D03*
Y990D02*
D03*
Y880D02*
D03*
X6185Y1760D02*
D03*
Y1650D02*
D03*
Y1540D02*
D03*
Y1430D02*
D03*
Y1320D02*
D03*
Y1210D02*
D03*
Y1100D02*
D03*
Y990D02*
D03*
Y880D02*
D03*
D63*
X3858Y2583D02*
X3875Y2600D01*
X2110Y843D02*
X2158Y890D01*
X3090Y855D02*
X3095Y860D01*
X2950Y855D02*
X3090D01*
X1800Y1357D02*
X1835Y1393D01*
X1875Y262D02*
X1880Y258D01*
X4960Y1650D02*
X5215D01*
X4930Y1680D02*
X4960Y1650D01*
X3508Y2577D02*
X3530Y2600D01*
X4750Y1650D02*
X4960Y1860D01*
X4880Y1430D02*
X5215D01*
X5215Y1430D01*
X3542Y2390D02*
X3770D01*
X3511Y2485D02*
X3675D01*
X3690Y2500D01*
X3454Y2477D02*
X3542Y2390D01*
X3367Y2477D02*
X3454D01*
X3468Y2527D02*
X3511Y2485D01*
X3367Y2527D02*
X3468D01*
X3813Y2583D02*
X3858D01*
X3834Y2683D02*
X3839Y2677D01*
X3766Y2683D02*
X3834D01*
X3761Y2677D02*
X3766Y2683D01*
X3770Y2390D02*
X3780Y2380D01*
X3367Y2677D02*
X3761D01*
X3368Y2728D02*
X3853D01*
X3368Y2777D02*
X4287D01*
X3458Y2827D02*
X3490Y2860D01*
X3367Y2827D02*
X3458D01*
X3750Y1990D02*
Y2030D01*
X3839Y2677D02*
X4553D01*
X3854Y2727D02*
X4378D01*
X3853Y2728D02*
X3854Y2727D01*
X3183Y1755D02*
X3605D01*
X3610Y1760D01*
X3178D02*
X3183Y1755D01*
X3490Y2860D02*
Y2900D01*
X3580Y2950D02*
X3810D01*
X3450Y3080D02*
X3580Y2950D01*
X3094Y3080D02*
X3450D01*
X3889Y3171D02*
X4000Y3060D01*
Y2920D02*
Y3060D01*
X3605Y3430D02*
X4400D01*
X3482Y3307D02*
X3605Y3430D01*
X2947Y3307D02*
X3482D01*
X3453Y3353D02*
X3580Y3480D01*
X2923Y3353D02*
X3453D01*
X3580Y3480D02*
X4715D01*
X3689Y3215D02*
X3691Y3216D01*
X3591Y3215D02*
X3689D01*
X3708Y3170D02*
X3709Y3171D01*
X3572Y3170D02*
X3708D01*
X3553Y3126D02*
X3628Y3050D01*
X3630D01*
X3076Y3126D02*
X3553D01*
X3571Y3171D02*
X3572Y3170D01*
X3041Y3171D02*
X3571D01*
X3589Y3216D02*
X3591Y3215D01*
X3016Y3216D02*
X3589D01*
X3630Y3290D02*
Y3310D01*
X3602Y3262D02*
X3630Y3290D01*
X3709Y3171D02*
X3889D01*
X3691Y3216D02*
X3716D01*
X4400Y3430D02*
X4580Y3250D01*
X4715Y3480D02*
X4745Y3450D01*
X3010Y2610D02*
X3170Y2770D01*
Y2975D01*
X3010Y2610D02*
X3030D01*
X2523Y2727D02*
X2742D01*
X1410Y3381D02*
Y3790D01*
X1490Y3870D01*
X2100D01*
X2200Y3770D01*
Y3675D02*
Y3770D01*
Y3675D02*
X2370D01*
X1617Y3650D02*
X1766D01*
X1600Y3667D02*
X1617Y3650D01*
X1600Y3391D02*
X1610Y3381D01*
X1600Y3533D02*
X1617Y3550D01*
X1766D01*
X1883Y3600D02*
X1908Y3625D01*
X1766Y3600D02*
X1883D01*
X1833Y3700D02*
X1883Y3650D01*
X1908Y3625D01*
X1766Y3650D02*
X1883D01*
X1766Y3700D02*
X1833D01*
X1908Y3625D02*
X1983Y3700D01*
X2050D01*
X2016Y3650D02*
X2050D01*
X2200Y3525D02*
Y3570D01*
X2170Y3600D02*
X2200Y3570D01*
X2050Y3600D02*
X2170D01*
X2370Y3400D02*
Y3525D01*
Y3310D02*
Y3400D01*
X2050Y3410D02*
Y3550D01*
X2370Y3310D02*
X2523Y3158D01*
Y2827D02*
Y3158D01*
X2200Y3350D02*
Y3525D01*
Y3350D02*
X2410Y3140D01*
Y3097D02*
Y3140D01*
Y3097D02*
X2412Y3094D01*
Y2800D02*
Y3094D01*
Y2800D02*
X2435Y2777D01*
X2523D01*
X6545Y990D02*
X6560Y1005D01*
X6410Y990D02*
X6410Y990D01*
X6533Y1320D02*
X6540Y1314D01*
X3072Y2975D02*
Y3058D01*
X3810Y2950D02*
X3860Y3000D01*
X716Y3127D02*
X740Y3151D01*
Y3245D01*
X500Y3127D02*
X716D01*
X3750Y1990D02*
X3780Y1960D01*
X2383Y2727D02*
X2523D01*
X2597Y2677D02*
X2675Y2600D01*
X2523Y2677D02*
X2597D01*
X1800Y1393D02*
X1835D01*
X2333Y2627D02*
X2523D01*
X2287Y2527D02*
X2523D01*
X2448Y2427D02*
X2523D01*
X2311Y2291D02*
X2448Y2427D01*
X2302Y2577D02*
X2523D01*
X2170Y2710D02*
X2302Y2577D01*
X2222Y2593D02*
X2287Y2527D01*
X2260Y2700D02*
X2333Y2627D01*
X2160Y2800D02*
X2260Y2700D01*
X850Y2800D02*
X2160Y2800D01*
X960Y2710D02*
X2170D01*
X3070Y2010D02*
Y2130D01*
X4265Y2000D02*
X4270Y2005D01*
X4094Y2000D02*
X4265D01*
X3901Y1745D02*
X3906Y1750D01*
X3770Y1745D02*
X3901D01*
X3780Y1910D02*
Y1960D01*
X863Y2593D02*
X2222Y2593D01*
X740Y2470D02*
X863Y2593D01*
X500Y2873D02*
X623Y2750D01*
Y2568D02*
Y2750D01*
X620Y2565D02*
X623Y2568D01*
X620Y2410D02*
Y2565D01*
Y2410D02*
X720Y2310D01*
X4740Y990D02*
X5215D01*
X4730Y1000D02*
X4733Y1003D01*
Y1240D01*
X4730Y1000D02*
X4740Y990D01*
X3875Y2600D02*
X3920Y2555D01*
X3367Y2727D02*
X3368Y2728D01*
X3367Y2577D02*
X3508D01*
X5030Y1540D02*
X5215D01*
X7050Y2450D02*
X7050Y2450D01*
X3130Y2390D02*
Y2530D01*
Y2380D02*
Y2390D01*
X3310Y2975D02*
X3325D01*
X3220D02*
X3310D01*
X3130Y2530D02*
X3228Y2627D01*
X3367D01*
X2990Y2780D02*
X3070D01*
X3120Y2830D01*
Y2975D01*
X3020Y3070D02*
X3076Y3126D01*
X4287Y2777D02*
X4560Y3050D01*
X3367Y2777D02*
X3368Y2777D01*
X3716Y3216D02*
X3790Y3290D01*
X3660Y3650D02*
X4745D01*
X2982Y3262D02*
X3602D01*
X3072Y3058D02*
X3094Y3080D01*
X3070Y2975D02*
X3072D01*
X2770Y3200D02*
X2923Y3353D01*
X2820Y3180D02*
X2947Y3307D01*
X2870Y3150D02*
X2982Y3262D01*
X2920Y3120D02*
X3016Y3216D01*
X2970Y3100D02*
X3041Y3171D01*
X4580Y2650D02*
X4745D01*
X4553Y2677D02*
X4580Y2650D01*
X4500Y2850D02*
X4745D01*
X4378Y2727D02*
X4500Y2850D01*
X4560Y3050D02*
X4745D01*
X4580Y3250D02*
X4745D01*
X3020Y2975D02*
Y3070D01*
X2970Y2975D02*
Y3100D01*
X2920Y2975D02*
Y3120D01*
X2870Y2975D02*
Y3150D01*
X2820Y2975D02*
Y3180D01*
X2770Y2975D02*
Y3200D01*
X6480Y2850D02*
X6695D01*
X6480Y3050D02*
X6695D01*
X6480Y3250D02*
X6695D01*
X6480Y3450D02*
X6695D01*
X2965Y1400D02*
Y1555D01*
X3060Y1650D01*
X3863D01*
X3863Y1650D01*
X4750D01*
X4960Y1860D02*
Y2420D01*
X4930Y2450D02*
X4960Y2420D01*
X4745Y2450D02*
X4930D01*
X4513Y2230D02*
X4533Y2250D01*
X4745D01*
X4513Y2230D02*
X4520Y2224D01*
Y2040D02*
Y2224D01*
X4710Y2215D02*
X4745Y2250D01*
X4710Y2038D02*
Y2215D01*
X2835Y1400D02*
X2965D01*
X3115Y1535D02*
X3120Y1540D01*
X3115Y1400D02*
Y1535D01*
X2685Y1400D02*
X2690Y1405D01*
Y1760D01*
X3906Y2250D02*
X3920Y2264D01*
Y2405D01*
X3906Y1750D02*
X3920Y1764D01*
X3120Y2130D02*
Y2277D01*
X1530Y2200D02*
X1700Y2030D01*
X1658Y1980D02*
X2660D01*
X1488Y2150D02*
X1658Y1980D01*
X1700Y2030D02*
X2640D01*
X3220Y2277D02*
X3367D01*
X3220Y2130D02*
Y2277D01*
X3170Y2130D02*
Y2277D01*
X2300Y2477D02*
X2523D01*
X2252D02*
X2300D01*
X2220Y2510D02*
X2252Y2477D01*
X2140Y2510D02*
X2220D01*
X1330Y2150D02*
X1488D01*
X1240Y2240D02*
X1330Y2150D01*
X1350Y2200D02*
X1530D01*
X1240Y2310D02*
X1350Y2200D01*
X720Y2310D02*
X1240D01*
X440Y2240D02*
X1240D01*
X377Y3127D02*
X500D01*
X280Y3030D02*
X377Y3127D01*
X280Y2400D02*
Y3030D01*
Y2400D02*
X440Y2240D01*
X2660Y1980D02*
X2720Y2040D01*
Y2130D01*
X2640Y2030D02*
X2670Y2060D01*
Y2130D01*
X2910Y1760D02*
X3178D01*
X2820Y1850D02*
X2910Y1760D01*
X2820Y1850D02*
Y2130D01*
X2690Y1760D02*
X2770Y1840D01*
Y2130D01*
X2260Y1760D02*
X2690D01*
X2148Y2130D02*
X2210D01*
X2300Y2220D01*
X2311Y2231D02*
Y2291D01*
X2300Y2220D02*
X2311Y2231D01*
X2300Y2420D02*
Y2477D01*
X2445Y1050D02*
X2450Y1055D01*
X2445Y890D02*
Y1050D01*
X1773Y1393D02*
X1800D01*
X1560Y1395D02*
X1570Y1405D01*
X1560Y1240D02*
Y1395D01*
X1320Y1500D02*
X1330Y1490D01*
D64*
X2270Y740D02*
Y885D01*
Y740D02*
X2300Y710D01*
X2158Y890D02*
X2265D01*
X1800Y1130D02*
Y1357D01*
X1650Y980D02*
X1800Y1130D01*
X1650Y843D02*
Y980D01*
X1880Y258D02*
Y843D01*
X1890Y530D02*
X2390D01*
D65*
X2265Y890D02*
X2270Y885D01*
X6560Y990D02*
X7840D01*
X7050Y3000D02*
X7850D01*
X7050Y2800D02*
Y3000D01*
Y2450D02*
Y2650D01*
X6695Y2450D02*
X7050D01*
D66*
X3245Y860D02*
X3360D01*
X3375Y1245D02*
X4587D01*
X2950D02*
X3375D01*
X2450D02*
X2950D01*
Y1045D02*
Y1245D01*
X940Y262D02*
X1875D01*
X2390Y530D02*
X2710Y850D01*
Y950D01*
X940Y557D02*
Y750D01*
X1240Y395D02*
Y540D01*
X2250Y3060D02*
X2273Y3083D01*
Y3002D02*
Y3083D01*
Y3002D02*
X2320Y2955D01*
X5060Y1760D02*
X5215D01*
X3697Y2138D02*
X4038D01*
X3590Y2030D02*
X3697Y2138D01*
X4038D02*
X4094Y2193D01*
X3340Y1970D02*
X3400Y2030D01*
X3340Y1850D02*
Y1970D01*
X3380Y2030D02*
X3590D01*
X3380D02*
Y2123D01*
X3508Y2130D02*
X3530Y2152D01*
Y2260D01*
X2940Y2400D02*
Y2530D01*
X2742Y2727D02*
X2940Y2530D01*
X3062Y2277D02*
X3170D01*
X2940Y2400D02*
X3062Y2277D01*
X1910Y2470D02*
X1965D01*
X2005Y2510D01*
X1410Y3381D02*
X1610D01*
X500D02*
X1410D01*
X1600Y3700D02*
Y3770D01*
X1610Y3381D02*
X1689D01*
X1600Y3391D02*
Y3533D01*
X1689Y3381D02*
X2280Y2790D01*
X2320D01*
X6560Y1005D02*
Y1136D01*
X6540Y1314D02*
Y1452D01*
X6185Y1320D02*
X6533D01*
X868Y3110D02*
X970D01*
X3906Y2000D02*
Y2110D01*
X2320Y2790D02*
X2383Y2727D01*
X2675Y2600D02*
X2700D01*
X1835Y1393D02*
X2030D01*
X6020Y1100D02*
X6185D01*
X6185Y1100D01*
X6020Y880D02*
X6185D01*
X6480Y3650D02*
X6695D01*
X4990Y740D02*
Y850D01*
X4730Y540D02*
Y705D01*
X1900Y2130D02*
X2012D01*
X6470Y2250D02*
X6695D01*
X6480Y2650D02*
X6695D01*
X4670Y1750D02*
X4710Y1790D01*
Y1902D01*
X4520Y1750D02*
Y1880D01*
X4270Y1750D02*
Y1855D01*
X3070Y2010D02*
X3120Y1960D01*
X3505Y1895D02*
X3610D01*
X2260D02*
X2365D01*
X1410Y1120D02*
Y1240D01*
X1800Y1688D02*
X1973D01*
X2060Y1600D01*
Y1498D02*
Y1600D01*
X3906Y2000D02*
X4094Y1813D01*
Y1750D02*
Y1813D01*
Y2193D02*
Y2250D01*
X3372Y2130D02*
X3380Y2123D01*
X4094Y2250D02*
X4367D01*
X3220Y2130D02*
X3372D01*
X3170Y2277D02*
X3220D01*
X1250Y1850D02*
X1980D01*
X2210Y1150D02*
Y1620D01*
X1980Y1850D02*
X2210Y1620D01*
X1092Y2008D02*
X1250Y1850D01*
X500Y2008D02*
X1092D01*
X1396Y850D02*
X1450D01*
X1000Y1246D02*
X1396Y850D01*
X1570Y1595D02*
X1773Y1393D01*
X1000Y1500D02*
X1320D01*
D67*
X6185Y990D02*
X6410D01*
D68*
X2690Y1760D02*
D03*
X3178D02*
D03*
D69*
X3250Y3750D02*
D03*
X2750D02*
D03*
X500Y2619D02*
D03*
Y3127D02*
D03*
Y2873D02*
D03*
Y1500D02*
D03*
Y1754D02*
D03*
Y1246D02*
D03*
Y992D02*
D03*
X3250Y250D02*
D03*
X2750D02*
D03*
D70*
X3350Y3500D02*
D03*
X2650Y500D02*
D03*
D71*
X2650Y3500D02*
D03*
X3350Y500D02*
D03*
D72*
X500Y3381D02*
D03*
Y2008D02*
D03*
D73*
X1450Y850D02*
D03*
Y2000D02*
D03*
D74*
X1000Y1246D02*
D03*
Y1754D02*
D03*
Y1500D02*
D03*
D75*
X1240Y540D02*
D03*
X940Y760D02*
D03*
X2300Y710D02*
D03*
X2250Y3060D02*
D03*
X4930Y1680D02*
D03*
X5060Y1760D02*
D03*
X4880Y1430D02*
D03*
X3550Y2580D02*
D03*
X3813Y2583D02*
D03*
X3780Y2380D02*
D03*
X3750Y2030D02*
D03*
X3340Y1850D02*
D03*
X3490Y2900D02*
D03*
X4000Y2920D02*
D03*
X3630Y3310D02*
D03*
X3780Y3310D02*
D03*
X3530Y2260D02*
D03*
X3030Y2610D02*
D03*
X1910Y2470D02*
D03*
X1908Y3625D02*
D03*
X1600Y3770D02*
D03*
X2370Y3400D02*
D03*
X2050Y3410D02*
D03*
X6900Y2050D02*
D03*
X6700D02*
D03*
X6500D02*
D03*
X6300D02*
D03*
X6050Y750D02*
D03*
X6200D02*
D03*
X5900D02*
D03*
X7300Y650D02*
D03*
X7150Y3650D02*
D03*
X6950D02*
D03*
X7350Y3850D02*
D03*
X7150D02*
D03*
X6950D02*
D03*
X6750D02*
D03*
X6550D02*
D03*
X6350D02*
D03*
X6150D02*
D03*
X5950D02*
D03*
X5750D02*
D03*
X5550D02*
D03*
X5350D02*
D03*
X5150D02*
D03*
X4950D02*
D03*
X5300Y750D02*
D03*
X5150D02*
D03*
X7500Y3600D02*
D03*
X7350Y3500D02*
D03*
Y3350D02*
D03*
X7800Y3200D02*
D03*
X7650D02*
D03*
X7500D02*
D03*
X7350D02*
D03*
X7200D02*
D03*
X7060Y3310D02*
D03*
X7850Y2400D02*
D03*
X7700D02*
D03*
X7550D02*
D03*
X7400D02*
D03*
X7800Y2800D02*
D03*
X7650D02*
D03*
X7200Y2850D02*
D03*
X7500Y2800D02*
D03*
X7350D02*
D03*
X7250Y2750D02*
D03*
Y2600D02*
D03*
Y2450D02*
D03*
Y2300D02*
D03*
Y2150D02*
D03*
X7100D02*
D03*
X6950D02*
D03*
X6300Y2250D02*
D03*
Y2450D02*
D03*
Y2650D02*
D03*
X6000Y1000D02*
D03*
X5900Y900D02*
D03*
Y1050D02*
D03*
Y1200D02*
D03*
Y1350D02*
D03*
Y1500D02*
D03*
Y1650D02*
D03*
Y1800D02*
D03*
X6450Y2450D02*
D03*
X7300Y500D02*
D03*
X7400Y400D02*
D03*
Y750D02*
D03*
X7550D02*
D03*
Y400D02*
D03*
X7850Y750D02*
D03*
X7700D02*
D03*
X7400Y1250D02*
D03*
X7850D02*
D03*
X7700D02*
D03*
X7550D02*
D03*
X7300Y1350D02*
D03*
Y1500D02*
D03*
X7400Y1600D02*
D03*
X7550D02*
D03*
X7700D02*
D03*
X7850D02*
D03*
X7650Y850D02*
D03*
X7450D02*
D03*
X7250D02*
D03*
X7050D02*
D03*
X6800D02*
D03*
X6600D02*
D03*
X6400D02*
D03*
X6380Y1440D02*
D03*
X3860Y3000D02*
D03*
X970Y3110D02*
D03*
X6020Y1100D02*
D03*
X6020Y880D02*
D03*
X6480Y3650D02*
D03*
X4990Y740D02*
D03*
X4730Y540D02*
D03*
X3360Y860D02*
D03*
X1900Y2130D02*
D03*
X1530Y2320D02*
D03*
X6490Y2250D02*
D03*
X6480Y2650D02*
D03*
X4270Y1750D02*
D03*
X4520D02*
D03*
X4670D02*
D03*
X3690Y2500D02*
D03*
X2700Y2600D02*
D03*
X3120Y1960D02*
D03*
X3505Y1895D02*
D03*
X2390Y1880D02*
D03*
X1410Y1120D02*
D03*
X2020Y1650D02*
D03*
X960Y2700D02*
D03*
X720Y2460D02*
D03*
X840Y2800D02*
D03*
X3375Y1245D02*
D03*
X5030Y1540D02*
D03*
X3130Y2390D02*
D03*
X2990Y2780D02*
D03*
X3310Y2975D02*
D03*
X3630Y3050D02*
D03*
X3660Y3640D02*
D03*
X6480Y2850D02*
D03*
Y3050D02*
D03*
Y3250D02*
D03*
Y3450D02*
D03*
X3120Y1540D02*
D03*
D76*
X250Y250D02*
D03*
Y3750D02*
D03*
X7750Y250D02*
D03*
Y3750D02*
D03*
D77*
X6900Y3450D02*
D03*
Y3250D02*
D03*
Y3050D02*
D03*
Y2850D02*
D03*
Y2650D02*
D03*
X7650Y1100D02*
D03*
X7450D02*
D03*
X7250D02*
D03*
X7050D02*
D03*
X6800Y1110D02*
D03*
M02*
