G04*
G04 #@! TF.GenerationSoftware,Altium Limited,Altium Designer,18.1.1 (9)*
G04*
G04 Layer_Physical_Order=2*
G04 Layer_Color=16711680*
%FSLAX42Y42*%
%MOMM*%
G71*
G01*
G75*
%ADD38C,1.20*%
%ADD39C,4.00*%
%ADD53R,4.90X1.60*%
%ADD59C,0.25*%
%ADD60C,0.50*%
%ADD63C,1.06*%
%ADD64C,1.80*%
%ADD65O,2.25X2.20*%
%ADD66C,2.20*%
G04:AMPARAMS|DCode=67|XSize=1.8mm|YSize=1.8mm|CornerRadius=0.45mm|HoleSize=0mm|Usage=FLASHONLY|Rotation=270.000|XOffset=0mm|YOffset=0mm|HoleType=Round|Shape=RoundedRectangle|*
%AMROUNDEDRECTD67*
21,1,1.80,0.90,0,0,270.0*
21,1,0.90,1.80,0,0,270.0*
1,1,0.90,-0.45,-0.45*
1,1,0.90,-0.45,0.45*
1,1,0.90,0.45,0.45*
1,1,0.90,0.45,-0.45*
%
%ADD67ROUNDEDRECTD67*%
%ADD68C,2.00*%
%ADD69C,2.10*%
%ADD70C,1.00*%
%ADD71C,3.80*%
%ADD72C,0.25*%
G36*
X7969Y3553D02*
X7963Y3530D01*
X7944Y3530D01*
X7705D01*
Y3425D01*
Y3320D01*
X7944D01*
X7963Y3320D01*
X7969Y3297D01*
Y2703D01*
X7963Y2680D01*
X7944Y2680D01*
X7705D01*
Y2575D01*
Y2470D01*
X7944D01*
X7963Y2470D01*
X7969Y2447D01*
Y1553D01*
X7963Y1530D01*
X7944Y1530D01*
X7705D01*
Y1425D01*
Y1320D01*
X7944D01*
X7963Y1320D01*
X7969Y1297D01*
Y703D01*
X7963Y680D01*
X7944Y680D01*
X7705D01*
Y575D01*
Y470D01*
X7944D01*
X7963Y470D01*
X7969Y447D01*
Y31D01*
X31D01*
Y3969D01*
X7969D01*
Y3553D01*
D02*
G37*
%LPC*%
G36*
X2763Y3865D02*
Y3763D01*
X2865D01*
X2862Y3780D01*
X2851Y3808D01*
X2832Y3832D01*
X2808Y3851D01*
X2780Y3862D01*
X2763Y3865D01*
D02*
G37*
G36*
X2737D02*
X2720Y3862D01*
X2692Y3851D01*
X2668Y3832D01*
X2649Y3808D01*
X2638Y3780D01*
X2635Y3763D01*
X2737D01*
Y3865D01*
D02*
G37*
G36*
X2865Y3737D02*
X2763D01*
Y3635D01*
X2780Y3638D01*
X2808Y3649D01*
X2832Y3668D01*
X2851Y3692D01*
X2862Y3720D01*
X2865Y3737D01*
D02*
G37*
G36*
X2737D02*
X2635D01*
X2638Y3720D01*
X2649Y3692D01*
X2668Y3668D01*
X2681Y3658D01*
X2671Y3634D01*
X2663Y3635D01*
Y3513D01*
X2785D01*
X2782Y3535D01*
X2768Y3568D01*
X2747Y3597D01*
X2727Y3611D01*
X2737Y3635D01*
X2737Y3635D01*
Y3737D01*
D02*
G37*
G36*
X2637Y3635D02*
X2615Y3632D01*
X2582Y3618D01*
X2553Y3597D01*
X2532Y3568D01*
X2518Y3535D01*
X2515Y3513D01*
X2637D01*
Y3635D01*
D02*
G37*
G36*
X7680Y3530D02*
X7422D01*
Y3438D01*
X7680D01*
Y3530D01*
D02*
G37*
G36*
X3250Y3861D02*
X3221Y3857D01*
X3195Y3846D01*
X3172Y3828D01*
X3154Y3805D01*
X3143Y3779D01*
X3139Y3750D01*
X3143Y3721D01*
X3154Y3695D01*
X3172Y3672D01*
X3195Y3654D01*
X3221Y3643D01*
X3250Y3639D01*
X3271Y3642D01*
X3279Y3618D01*
X3251Y3597D01*
X3229Y3568D01*
X3216Y3535D01*
X3213Y3513D01*
X3350D01*
Y3500D01*
X3363D01*
Y3365D01*
X3388Y3368D01*
X3421Y3382D01*
X3449Y3403D01*
X3471Y3432D01*
X3472Y3434D01*
X3497Y3429D01*
Y3029D01*
X3478Y3010D01*
X3476Y3011D01*
X3458Y3013D01*
X3439Y3011D01*
X3422Y3004D01*
X3408Y2992D01*
X3404Y2988D01*
X3383Y2992D01*
X3378Y2995D01*
X3371Y3010D01*
X3360Y3025D01*
X3345Y3036D01*
X3328Y3043D01*
X3310Y3046D01*
X3292Y3043D01*
X3275Y3036D01*
X3260Y3025D01*
X3249Y3010D01*
X3248Y3008D01*
X3055D01*
X3042Y3006D01*
X3031Y2999D01*
X2856Y2824D01*
X2849Y2813D01*
X2847Y2800D01*
Y394D01*
X2801Y348D01*
X2779Y357D01*
X2750Y361D01*
X2729Y358D01*
X2721Y382D01*
X2749Y403D01*
X2771Y432D01*
X2784Y465D01*
X2787Y487D01*
X2663D01*
Y365D01*
X2683Y367D01*
X2689Y357D01*
X2691Y343D01*
X2672Y328D01*
X2654Y305D01*
X2643Y279D01*
X2639Y250D01*
X2643Y221D01*
X2654Y195D01*
X2672Y172D01*
X2695Y154D01*
X2721Y143D01*
X2750Y139D01*
X2779Y143D01*
X2805Y154D01*
X2828Y172D01*
X2846Y195D01*
X2857Y221D01*
X2861Y250D01*
X2857Y279D01*
X2848Y301D01*
X2904Y356D01*
X2911Y367D01*
X2913Y380D01*
Y2604D01*
X2938Y2612D01*
X2940Y2610D01*
X2955Y2599D01*
X2972Y2592D01*
X2990Y2589D01*
X3008Y2592D01*
X3010Y2593D01*
X3119Y2484D01*
X3112Y2458D01*
X3095Y2451D01*
X3080Y2440D01*
X3069Y2425D01*
X3062Y2408D01*
X3059Y2390D01*
X3062Y2372D01*
X3063Y2370D01*
X3006Y2314D01*
X2999Y2303D01*
X2997Y2290D01*
Y1630D01*
X2999Y1617D01*
X3006Y1606D01*
X3053Y1560D01*
X3052Y1558D01*
X3049Y1540D01*
X3052Y1522D01*
X3059Y1505D01*
X3070Y1490D01*
X3085Y1479D01*
X3102Y1472D01*
X3120Y1469D01*
X3138Y1472D01*
X3155Y1479D01*
X3170Y1490D01*
X3181Y1505D01*
X3188Y1522D01*
X3191Y1540D01*
X3188Y1558D01*
X3181Y1575D01*
X3170Y1590D01*
X3155Y1601D01*
X3138Y1608D01*
X3120Y1611D01*
X3102Y1608D01*
X3100Y1607D01*
X3063Y1644D01*
Y2276D01*
X3110Y2323D01*
X3112Y2322D01*
X3130Y2319D01*
X3148Y2322D01*
X3165Y2329D01*
X3180Y2340D01*
X3191Y2355D01*
X3198Y2372D01*
X3224Y2379D01*
X3596Y2006D01*
X3607Y1999D01*
X3620Y1997D01*
X3688D01*
X3689Y1995D01*
X3700Y1980D01*
X3715Y1969D01*
X3732Y1962D01*
X3750Y1959D01*
X3768Y1962D01*
X3785Y1969D01*
X3800Y1980D01*
X3811Y1995D01*
X3818Y2012D01*
X3821Y2030D01*
X3818Y2048D01*
X3811Y2065D01*
X3800Y2080D01*
X3785Y2091D01*
X3768Y2098D01*
X3750Y2101D01*
X3732Y2098D01*
X3715Y2091D01*
X3700Y2080D01*
X3689Y2065D01*
X3688Y2063D01*
X3634D01*
X3057Y2640D01*
X3058Y2642D01*
X3061Y2660D01*
X3058Y2678D01*
X3051Y2695D01*
X3040Y2710D01*
X3045Y2737D01*
X3051Y2745D01*
X3052Y2747D01*
X3576D01*
X3724Y2599D01*
X3722Y2589D01*
X3708Y2568D01*
X3690Y2571D01*
X3672Y2568D01*
X3655Y2561D01*
X3640Y2550D01*
X3629Y2535D01*
X3622Y2518D01*
X3619Y2500D01*
X3622Y2482D01*
X3629Y2465D01*
X3640Y2450D01*
X3644Y2447D01*
X3643Y2439D01*
X3617Y2430D01*
X3583Y2464D01*
Y2528D01*
X3585Y2529D01*
X3600Y2540D01*
X3611Y2555D01*
X3618Y2572D01*
X3621Y2590D01*
X3618Y2608D01*
X3611Y2625D01*
X3600Y2640D01*
X3585Y2651D01*
X3568Y2658D01*
X3550Y2661D01*
X3532Y2658D01*
X3515Y2651D01*
X3500Y2640D01*
X3489Y2625D01*
X3482Y2608D01*
X3479Y2590D01*
X3482Y2572D01*
X3489Y2555D01*
X3500Y2540D01*
X3515Y2529D01*
X3517Y2528D01*
Y2450D01*
X3519Y2437D01*
X3527Y2427D01*
X3717Y2237D01*
X3727Y2229D01*
X3740Y2227D01*
X4286D01*
X4747Y1766D01*
Y1590D01*
X4749Y1577D01*
X4757Y1567D01*
X4873Y1450D01*
X4872Y1448D01*
X4869Y1430D01*
X4872Y1412D01*
X4879Y1395D01*
X4890Y1380D01*
X4905Y1369D01*
X4922Y1362D01*
X4940Y1359D01*
X4958Y1362D01*
X4975Y1369D01*
X4990Y1380D01*
X5001Y1395D01*
X5008Y1412D01*
X5011Y1430D01*
X5008Y1448D01*
X5026Y1470D01*
X5030Y1469D01*
X5048Y1472D01*
X5065Y1479D01*
X5080Y1490D01*
X5091Y1505D01*
X5098Y1522D01*
X5101Y1540D01*
X5098Y1558D01*
X5091Y1575D01*
X5080Y1590D01*
X5065Y1601D01*
X5048Y1608D01*
X5030Y1611D01*
X5026Y1610D01*
X5008Y1632D01*
X5011Y1650D01*
X5008Y1668D01*
X5001Y1685D01*
X4990Y1700D01*
X4975Y1711D01*
X4973Y1712D01*
Y1890D01*
X4971Y1903D01*
X4963Y1913D01*
X4453Y2423D01*
X4443Y2431D01*
X4430Y2433D01*
X3869D01*
X3868Y2438D01*
X3861Y2455D01*
X3850Y2470D01*
X3835Y2481D01*
X3818Y2488D01*
X3800Y2491D01*
X3786Y2489D01*
X3767Y2505D01*
X3768Y2511D01*
X3782Y2532D01*
X3800Y2529D01*
X3818Y2532D01*
X3835Y2539D01*
X3850Y2550D01*
X3861Y2565D01*
X3868Y2582D01*
X3871Y2600D01*
X3868Y2618D01*
X3861Y2635D01*
X3850Y2650D01*
X3835Y2661D01*
X3818Y2668D01*
X3800Y2671D01*
X3782Y2668D01*
X3765Y2661D01*
X3760Y2657D01*
X3614Y2804D01*
X3603Y2811D01*
X3590Y2813D01*
X3052D01*
X3051Y2815D01*
X3040Y2830D01*
X3025Y2841D01*
X3008Y2848D01*
X3001Y2874D01*
X3069Y2942D01*
X3248D01*
X3249Y2940D01*
X3260Y2925D01*
X3275Y2914D01*
X3292Y2907D01*
X3310Y2904D01*
X3328Y2907D01*
X3345Y2914D01*
X3360Y2925D01*
X3363Y2930D01*
X3385Y2925D01*
X3390Y2923D01*
X3396Y2907D01*
X3408Y2893D01*
X3422Y2881D01*
X3439Y2874D01*
X3458Y2872D01*
X3476Y2874D01*
X3493Y2881D01*
X3507Y2893D01*
X3519Y2907D01*
X3526Y2924D01*
X3528Y2942D01*
X3526Y2961D01*
X3525Y2963D01*
X3554Y2991D01*
X3578Y2995D01*
X3597Y2980D01*
X3599Y2967D01*
X3606Y2956D01*
X3836Y2726D01*
X3847Y2719D01*
X3860Y2717D01*
X4524D01*
X4537Y2719D01*
X4548Y2726D01*
X4618Y2797D01*
X6435D01*
X6445Y2789D01*
X6462Y2782D01*
X6480Y2779D01*
X6498Y2782D01*
X6515Y2789D01*
X6530Y2800D01*
X6541Y2815D01*
X6548Y2832D01*
X6551Y2850D01*
X6548Y2868D01*
X6541Y2885D01*
X6530Y2900D01*
X6515Y2911D01*
X6498Y2918D01*
X6480Y2921D01*
X6462Y2918D01*
X6445Y2911D01*
X6430Y2900D01*
X6419Y2885D01*
X6412Y2868D01*
X6411Y2863D01*
X4653D01*
X4644Y2886D01*
X4774Y3017D01*
X6418D01*
X6419Y3015D01*
X6430Y3000D01*
X6445Y2989D01*
X6462Y2982D01*
X6480Y2979D01*
X6498Y2982D01*
X6515Y2989D01*
X6530Y3000D01*
X6541Y3015D01*
X6548Y3032D01*
X6551Y3050D01*
X6548Y3068D01*
X6541Y3085D01*
X6530Y3100D01*
X6515Y3111D01*
X6498Y3118D01*
X6480Y3121D01*
X6462Y3118D01*
X6445Y3111D01*
X6430Y3100D01*
X6419Y3085D01*
X6418Y3083D01*
X4760D01*
X4747Y3081D01*
X4736Y3074D01*
X4523Y2860D01*
X4523Y2860D01*
X4515Y2888D01*
X4844Y3217D01*
X6418D01*
X6419Y3215D01*
X6430Y3200D01*
X6445Y3189D01*
X6462Y3182D01*
X6480Y3179D01*
X6498Y3182D01*
X6515Y3189D01*
X6530Y3200D01*
X6541Y3215D01*
X6548Y3232D01*
X6551Y3250D01*
X6548Y3268D01*
X6541Y3285D01*
X6530Y3300D01*
X6515Y3311D01*
X6498Y3318D01*
X6480Y3321D01*
X6462Y3318D01*
X6445Y3311D01*
X6430Y3300D01*
X6419Y3285D01*
X6418Y3283D01*
X4830D01*
X4817Y3281D01*
X4806Y3274D01*
X4426Y2893D01*
X4074D01*
X4047Y2920D01*
X4048Y2922D01*
X4051Y2940D01*
X4048Y2958D01*
X4041Y2975D01*
X4030Y2990D01*
X4015Y3001D01*
X3998Y3008D01*
X3980Y3011D01*
X3962Y3008D01*
X3955Y3005D01*
X3930Y3017D01*
X3929Y3018D01*
X3928Y3020D01*
X3921Y3035D01*
X3910Y3050D01*
X3895Y3061D01*
X3893Y3062D01*
Y3246D01*
X4064Y3417D01*
X6418D01*
X6419Y3415D01*
X6430Y3400D01*
X6445Y3389D01*
X6462Y3382D01*
X6480Y3379D01*
X6498Y3382D01*
X6515Y3389D01*
X6530Y3400D01*
X6541Y3415D01*
X6548Y3432D01*
X6551Y3450D01*
X6548Y3468D01*
X6541Y3485D01*
X6530Y3500D01*
X6515Y3511D01*
X6498Y3518D01*
X6480Y3521D01*
X6462Y3518D01*
X6445Y3511D01*
X6430Y3500D01*
X6419Y3485D01*
X6418Y3483D01*
X4050D01*
X4037Y3481D01*
X4026Y3474D01*
X3874Y3321D01*
X3848Y3328D01*
X3841Y3345D01*
X3830Y3360D01*
X3815Y3371D01*
X3798Y3378D01*
X3780Y3381D01*
X3762Y3378D01*
X3745Y3371D01*
X3730Y3360D01*
X3716D01*
X3693Y3382D01*
Y3578D01*
X3695Y3579D01*
X3710Y3590D01*
X3721Y3605D01*
X3728Y3622D01*
X3731Y3640D01*
X3728Y3658D01*
X3721Y3675D01*
X3710Y3690D01*
X3695Y3701D01*
X3678Y3708D01*
X3660Y3711D01*
X3642Y3708D01*
X3625Y3701D01*
X3610Y3690D01*
X3599Y3675D01*
X3592Y3658D01*
X3589Y3640D01*
X3592Y3622D01*
X3599Y3605D01*
X3610Y3590D01*
X3625Y3579D01*
X3627Y3578D01*
Y3376D01*
X3615Y3371D01*
X3600Y3360D01*
X3589Y3345D01*
X3588Y3344D01*
X3563Y3349D01*
Y3590D01*
X3561Y3603D01*
X3554Y3614D01*
X3394Y3774D01*
X3383Y3781D01*
X3370Y3783D01*
X3355D01*
X3346Y3805D01*
X3328Y3828D01*
X3305Y3846D01*
X3279Y3857D01*
X3250Y3861D01*
D02*
G37*
G36*
X2785Y3487D02*
X2663D01*
Y3365D01*
X2685Y3368D01*
X2718Y3382D01*
X2747Y3403D01*
X2768Y3432D01*
X2782Y3465D01*
X2785Y3487D01*
D02*
G37*
G36*
X2637D02*
X2515D01*
X2518Y3465D01*
X2532Y3432D01*
X2553Y3403D01*
X2582Y3382D01*
X2615Y3368D01*
X2637Y3365D01*
Y3487D01*
D02*
G37*
G36*
X3337D02*
X3213D01*
X3216Y3465D01*
X3229Y3432D01*
X3251Y3403D01*
X3279Y3382D01*
X3312Y3368D01*
X3337Y3365D01*
Y3487D01*
D02*
G37*
G36*
X7680Y3412D02*
X7422D01*
Y3320D01*
X7680D01*
Y3412D01*
D02*
G37*
G36*
X545Y3492D02*
X455D01*
X438Y3489D01*
X422Y3483D01*
X409Y3472D01*
X398Y3459D01*
X392Y3443D01*
X389Y3426D01*
Y3336D01*
X392Y3319D01*
X398Y3303D01*
X409Y3290D01*
X422Y3279D01*
X438Y3273D01*
X455Y3270D01*
X545D01*
X562Y3273D01*
X578Y3279D01*
X591Y3290D01*
X602Y3303D01*
X608Y3319D01*
X611Y3336D01*
Y3426D01*
X608Y3443D01*
X602Y3459D01*
X591Y3472D01*
X578Y3483D01*
X562Y3489D01*
X545Y3492D01*
D02*
G37*
G36*
X500Y3238D02*
X471Y3234D01*
X445Y3223D01*
X422Y3205D01*
X404Y3182D01*
X393Y3156D01*
X389Y3127D01*
X393Y3098D01*
X404Y3072D01*
X422Y3049D01*
X445Y3031D01*
X471Y3020D01*
X500Y3016D01*
X529Y3020D01*
X555Y3031D01*
X578Y3049D01*
X596Y3072D01*
X607Y3098D01*
X611Y3127D01*
X607Y3156D01*
X596Y3182D01*
X578Y3205D01*
X555Y3223D01*
X529Y3234D01*
X500Y3238D01*
D02*
G37*
G36*
X4250Y3371D02*
X4207Y3367D01*
X4165Y3354D01*
X4127Y3334D01*
X4094Y3306D01*
X4066Y3273D01*
X4046Y3235D01*
X4033Y3193D01*
X4029Y3150D01*
X4033Y3107D01*
X4046Y3065D01*
X4066Y3027D01*
X4094Y2994D01*
X4127Y2966D01*
X4165Y2946D01*
X4207Y2933D01*
X4250Y2929D01*
X4293Y2933D01*
X4335Y2946D01*
X4373Y2966D01*
X4406Y2994D01*
X4434Y3027D01*
X4454Y3065D01*
X4467Y3107D01*
X4471Y3150D01*
X4467Y3193D01*
X4454Y3235D01*
X4434Y3273D01*
X4406Y3306D01*
X4373Y3334D01*
X4335Y3354D01*
X4293Y3367D01*
X4250Y3371D01*
D02*
G37*
G36*
X500Y2984D02*
X471Y2980D01*
X445Y2969D01*
X422Y2951D01*
X404Y2928D01*
X393Y2902D01*
X389Y2873D01*
X393Y2844D01*
X404Y2818D01*
X422Y2795D01*
X445Y2777D01*
X471Y2766D01*
X500Y2762D01*
X529Y2766D01*
X555Y2777D01*
X578Y2795D01*
X596Y2818D01*
X607Y2844D01*
X611Y2873D01*
X607Y2902D01*
X596Y2928D01*
X578Y2951D01*
X555Y2969D01*
X529Y2980D01*
X500Y2984D01*
D02*
G37*
G36*
X513Y2734D02*
Y2632D01*
X615D01*
X612Y2649D01*
X601Y2677D01*
X582Y2701D01*
X558Y2720D01*
X530Y2731D01*
X513Y2734D01*
D02*
G37*
G36*
X487D02*
X470Y2731D01*
X442Y2720D01*
X418Y2701D01*
X399Y2677D01*
X388Y2649D01*
X385Y2632D01*
X487D01*
Y2734D01*
D02*
G37*
G36*
X7680Y2680D02*
X7422D01*
Y2588D01*
X7680D01*
Y2680D01*
D02*
G37*
G36*
X615Y2606D02*
X513D01*
Y2504D01*
X530Y2507D01*
X558Y2518D01*
X582Y2537D01*
X601Y2561D01*
X612Y2589D01*
X615Y2606D01*
D02*
G37*
G36*
X487D02*
X385D01*
X388Y2589D01*
X399Y2561D01*
X418Y2537D01*
X442Y2518D01*
X470Y2507D01*
X487Y2504D01*
Y2606D01*
D02*
G37*
G36*
X840Y2871D02*
X822Y2868D01*
X805Y2861D01*
X790Y2850D01*
X779Y2835D01*
X772Y2818D01*
X769Y2800D01*
X772Y2782D01*
X779Y2765D01*
X790Y2750D01*
X805Y2739D01*
X807Y2738D01*
Y2499D01*
X782Y2494D01*
X781Y2495D01*
X770Y2510D01*
X755Y2521D01*
X738Y2528D01*
X720Y2531D01*
X702Y2528D01*
X685Y2521D01*
X670Y2510D01*
X659Y2495D01*
X652Y2478D01*
X650Y2463D01*
X400D01*
X387Y2461D01*
X377Y2453D01*
X137Y2213D01*
X129Y2203D01*
X127Y2190D01*
Y1130D01*
X129Y1117D01*
X137Y1107D01*
X275Y969D01*
X285Y961D01*
X298Y959D01*
X395D01*
X404Y937D01*
X422Y914D01*
X445Y896D01*
X471Y885D01*
X500Y881D01*
X529Y885D01*
X555Y896D01*
X578Y914D01*
X596Y937D01*
X607Y963D01*
X611Y992D01*
X607Y1021D01*
X596Y1047D01*
X578Y1070D01*
X555Y1088D01*
X529Y1099D01*
X500Y1103D01*
X471Y1099D01*
X445Y1088D01*
X422Y1070D01*
X404Y1047D01*
X395Y1025D01*
X312D01*
X193Y1144D01*
Y1531D01*
X218Y1534D01*
X219Y1527D01*
X227Y1517D01*
X267Y1477D01*
X277Y1469D01*
X290Y1467D01*
X395D01*
X404Y1445D01*
X422Y1422D01*
X445Y1404D01*
X471Y1393D01*
X500Y1389D01*
X529Y1393D01*
X555Y1404D01*
X578Y1422D01*
X596Y1445D01*
X607Y1471D01*
X611Y1500D01*
X607Y1529D01*
X596Y1555D01*
X578Y1578D01*
X555Y1596D01*
X529Y1607D01*
X500Y1611D01*
X471Y1607D01*
X445Y1596D01*
X422Y1578D01*
X404Y1555D01*
X395Y1533D01*
X304D01*
X283Y1554D01*
Y1851D01*
X308Y1854D01*
X309Y1847D01*
X317Y1837D01*
X390Y1763D01*
X389Y1754D01*
X393Y1725D01*
X404Y1699D01*
X422Y1676D01*
X445Y1658D01*
X471Y1647D01*
X500Y1643D01*
X529Y1647D01*
X555Y1658D01*
X578Y1676D01*
X596Y1699D01*
X607Y1725D01*
X611Y1754D01*
X607Y1783D01*
X596Y1809D01*
X578Y1832D01*
X555Y1850D01*
X529Y1861D01*
X500Y1865D01*
X471Y1861D01*
X445Y1850D01*
X422Y1832D01*
X415Y1832D01*
X373Y1874D01*
Y1925D01*
X398Y1930D01*
X398Y1930D01*
X409Y1917D01*
X422Y1906D01*
X438Y1900D01*
X455Y1897D01*
X545D01*
X562Y1900D01*
X578Y1906D01*
X591Y1917D01*
X602Y1930D01*
X608Y1946D01*
X611Y1963D01*
Y2053D01*
X608Y2070D01*
X602Y2086D01*
X591Y2099D01*
X578Y2110D01*
X562Y2116D01*
X545Y2119D01*
X455D01*
X438Y2116D01*
X422Y2110D01*
X409Y2099D01*
X398Y2086D01*
X398Y2086D01*
X373Y2091D01*
Y2146D01*
X494Y2267D01*
X800D01*
X813Y2269D01*
X823Y2277D01*
X983Y2437D01*
X991Y2447D01*
X993Y2460D01*
Y2638D01*
X995Y2639D01*
X1010Y2650D01*
X1021Y2665D01*
X1028Y2682D01*
X1031Y2700D01*
X1028Y2718D01*
X1021Y2735D01*
X1010Y2750D01*
X995Y2761D01*
X978Y2768D01*
X960Y2771D01*
X942Y2768D01*
X927Y2762D01*
X920Y2766D01*
X907Y2779D01*
X908Y2782D01*
X911Y2800D01*
X908Y2818D01*
X901Y2835D01*
X890Y2850D01*
X875Y2861D01*
X858Y2868D01*
X840Y2871D01*
D02*
G37*
G36*
X7680Y2562D02*
X7422D01*
Y2470D01*
X7680D01*
Y2562D01*
D02*
G37*
G36*
X2300Y2501D02*
X2279Y2498D01*
X2260Y2490D01*
X2243Y2477D01*
X2230Y2460D01*
X2222Y2441D01*
X2219Y2420D01*
X2222Y2399D01*
X2230Y2380D01*
X2243Y2363D01*
X2260Y2350D01*
X2279Y2342D01*
X2300Y2339D01*
X2321Y2342D01*
X2340Y2350D01*
X2357Y2363D01*
X2370Y2380D01*
X2378Y2399D01*
X2381Y2420D01*
X2378Y2441D01*
X2370Y2460D01*
X2357Y2477D01*
X2340Y2490D01*
X2321Y2498D01*
X2300Y2501D01*
D02*
G37*
G36*
X1530Y2391D02*
X1512Y2388D01*
X1495Y2381D01*
X1480Y2370D01*
X1469Y2355D01*
X1462Y2338D01*
X1459Y2320D01*
X1462Y2302D01*
X1469Y2285D01*
X1480Y2270D01*
X1495Y2259D01*
X1512Y2252D01*
X1530Y2249D01*
X1548Y2252D01*
X1565Y2259D01*
X1580Y2270D01*
X1591Y2285D01*
X1598Y2302D01*
X1601Y2320D01*
X1598Y2338D01*
X1591Y2355D01*
X1580Y2370D01*
X1565Y2381D01*
X1548Y2388D01*
X1530Y2391D01*
D02*
G37*
G36*
X2300Y2301D02*
X2279Y2298D01*
X2260Y2290D01*
X2243Y2277D01*
X2230Y2260D01*
X2222Y2241D01*
X2219Y2220D01*
X2222Y2199D01*
X2230Y2180D01*
X2243Y2163D01*
X2260Y2150D01*
X2279Y2142D01*
X2300Y2139D01*
X2321Y2142D01*
X2340Y2150D01*
X2357Y2163D01*
X2370Y2180D01*
X2378Y2199D01*
X2381Y2220D01*
X2378Y2241D01*
X2370Y2260D01*
X2357Y2277D01*
X2340Y2290D01*
X2321Y2298D01*
X2300Y2301D01*
D02*
G37*
G36*
X1463Y2125D02*
Y2013D01*
X1575D01*
X1572Y2033D01*
X1560Y2063D01*
X1539Y2089D01*
X1513Y2110D01*
X1483Y2122D01*
X1463Y2125D01*
D02*
G37*
G36*
X1437D02*
X1417Y2122D01*
X1387Y2110D01*
X1361Y2089D01*
X1340Y2063D01*
X1328Y2033D01*
X1325Y2013D01*
X1437D01*
Y2125D01*
D02*
G37*
G36*
X1575Y1987D02*
X1463D01*
Y1875D01*
X1483Y1878D01*
X1513Y1890D01*
X1539Y1911D01*
X1560Y1937D01*
X1572Y1967D01*
X1575Y1987D01*
D02*
G37*
G36*
X1437D02*
X1325D01*
X1328Y1967D01*
X1340Y1937D01*
X1361Y1911D01*
X1387Y1890D01*
X1417Y1878D01*
X1437Y1875D01*
Y1987D01*
D02*
G37*
G36*
X3178Y1834D02*
X3159Y1831D01*
X3141Y1824D01*
X3126Y1812D01*
X3114Y1797D01*
X3107Y1779D01*
X3104Y1760D01*
X3107Y1741D01*
X3114Y1723D01*
X3126Y1708D01*
X3141Y1696D01*
X3159Y1689D01*
X3178Y1686D01*
X3197Y1689D01*
X3215Y1696D01*
X3230Y1708D01*
X3242Y1723D01*
X3249Y1741D01*
X3252Y1760D01*
X3249Y1779D01*
X3242Y1797D01*
X3230Y1812D01*
X3215Y1824D01*
X3197Y1831D01*
X3178Y1834D01*
D02*
G37*
G36*
X2690D02*
X2671Y1831D01*
X2653Y1824D01*
X2638Y1812D01*
X2626Y1797D01*
X2619Y1779D01*
X2616Y1760D01*
X2619Y1741D01*
X2626Y1723D01*
X2638Y1708D01*
X2653Y1696D01*
X2671Y1689D01*
X2690Y1686D01*
X2709Y1689D01*
X2727Y1696D01*
X2742Y1708D01*
X2754Y1723D01*
X2761Y1741D01*
X2764Y1760D01*
X2761Y1779D01*
X2754Y1797D01*
X2742Y1812D01*
X2727Y1824D01*
X2709Y1831D01*
X2690Y1834D01*
D02*
G37*
G36*
X7680Y1530D02*
X7422D01*
Y1438D01*
X7680D01*
Y1530D01*
D02*
G37*
G36*
Y1412D02*
X7422D01*
Y1320D01*
X7680D01*
Y1412D01*
D02*
G37*
G36*
X513Y1361D02*
Y1259D01*
X615D01*
X612Y1276D01*
X601Y1304D01*
X582Y1328D01*
X558Y1347D01*
X530Y1358D01*
X513Y1361D01*
D02*
G37*
G36*
X487D02*
X470Y1358D01*
X442Y1347D01*
X418Y1328D01*
X399Y1304D01*
X388Y1276D01*
X385Y1259D01*
X487D01*
Y1361D01*
D02*
G37*
G36*
X3380Y1951D02*
X3362Y1948D01*
X3345Y1941D01*
X3330Y1930D01*
X3319Y1915D01*
X3312Y1898D01*
X3309Y1880D01*
X3312Y1862D01*
X3319Y1845D01*
X3330Y1830D01*
X3334Y1827D01*
X3330Y1298D01*
X3325Y1295D01*
X3314Y1280D01*
X3307Y1263D01*
X3304Y1245D01*
X3307Y1227D01*
X3314Y1210D01*
X3325Y1195D01*
X3340Y1184D01*
X3357Y1177D01*
X3375Y1174D01*
X3393Y1177D01*
X3410Y1184D01*
X3425Y1195D01*
X3436Y1210D01*
X3443Y1227D01*
X3446Y1245D01*
X3443Y1263D01*
X3436Y1280D01*
X3425Y1295D01*
X3421Y1298D01*
X3425Y1827D01*
X3430Y1830D01*
X3441Y1845D01*
X3448Y1862D01*
X3451Y1880D01*
X3448Y1898D01*
X3441Y1915D01*
X3430Y1930D01*
X3415Y1941D01*
X3398Y1948D01*
X3380Y1951D01*
D02*
G37*
G36*
X615Y1233D02*
X513D01*
Y1131D01*
X530Y1134D01*
X558Y1145D01*
X582Y1164D01*
X601Y1188D01*
X612Y1216D01*
X615Y1233D01*
D02*
G37*
G36*
X487D02*
X385D01*
X388Y1216D01*
X399Y1188D01*
X418Y1164D01*
X442Y1145D01*
X470Y1134D01*
X487Y1131D01*
Y1233D01*
D02*
G37*
G36*
X1000Y1880D02*
X967Y1876D01*
X937Y1863D01*
X911Y1843D01*
X891Y1817D01*
X878Y1787D01*
X874Y1754D01*
X878Y1721D01*
X891Y1691D01*
X911Y1665D01*
X937Y1645D01*
X947Y1641D01*
Y1613D01*
X937Y1609D01*
X911Y1589D01*
X891Y1563D01*
X878Y1533D01*
X874Y1500D01*
X878Y1467D01*
X891Y1437D01*
X911Y1411D01*
X937Y1391D01*
X947Y1387D01*
Y1359D01*
X937Y1355D01*
X911Y1335D01*
X891Y1309D01*
X878Y1279D01*
X874Y1246D01*
X878Y1213D01*
X891Y1183D01*
X911Y1157D01*
X937Y1137D01*
X967Y1124D01*
X1000Y1120D01*
X1033Y1124D01*
X1063Y1137D01*
X1089Y1157D01*
X1109Y1183D01*
X1122Y1213D01*
X1126Y1246D01*
X1122Y1279D01*
X1109Y1309D01*
X1089Y1335D01*
X1063Y1355D01*
X1053Y1359D01*
Y1387D01*
X1063Y1391D01*
X1089Y1411D01*
X1109Y1437D01*
X1122Y1467D01*
X1126Y1500D01*
X1122Y1533D01*
X1109Y1563D01*
X1089Y1589D01*
X1063Y1609D01*
X1053Y1613D01*
Y1641D01*
X1063Y1645D01*
X1089Y1665D01*
X1109Y1691D01*
X1122Y1721D01*
X1126Y1754D01*
X1122Y1787D01*
X1109Y1817D01*
X1089Y1843D01*
X1063Y1863D01*
X1033Y1876D01*
X1000Y1880D01*
D02*
G37*
G36*
X1450Y971D02*
X1419Y967D01*
X1389Y955D01*
X1364Y936D01*
X1345Y911D01*
X1333Y881D01*
X1329Y850D01*
X1333Y819D01*
X1345Y789D01*
X1364Y764D01*
X1389Y745D01*
X1419Y733D01*
X1450Y729D01*
X1481Y733D01*
X1511Y745D01*
X1536Y764D01*
X1555Y789D01*
X1567Y819D01*
X1571Y850D01*
X1567Y881D01*
X1555Y911D01*
X1536Y936D01*
X1511Y955D01*
X1481Y967D01*
X1450Y971D01*
D02*
G37*
G36*
X4250Y1071D02*
X4207Y1067D01*
X4165Y1054D01*
X4127Y1034D01*
X4094Y1006D01*
X4066Y973D01*
X4046Y935D01*
X4033Y893D01*
X4029Y850D01*
X4033Y807D01*
X4046Y765D01*
X4066Y727D01*
X4094Y694D01*
X4127Y666D01*
X4165Y646D01*
X4207Y633D01*
X4250Y629D01*
X4293Y633D01*
X4335Y646D01*
X4373Y666D01*
X4406Y694D01*
X4434Y727D01*
X4454Y765D01*
X4467Y807D01*
X4471Y850D01*
X4467Y893D01*
X4454Y935D01*
X4434Y973D01*
X4406Y1006D01*
X4373Y1034D01*
X4335Y1054D01*
X4293Y1067D01*
X4250Y1071D01*
D02*
G37*
G36*
X7680Y680D02*
X7422D01*
Y588D01*
X7680D01*
Y680D01*
D02*
G37*
G36*
X3363Y635D02*
Y513D01*
X3485D01*
X3482Y535D01*
X3468Y568D01*
X3447Y597D01*
X3418Y618D01*
X3385Y632D01*
X3363Y635D01*
D02*
G37*
G36*
X3337D02*
X3315Y632D01*
X3282Y618D01*
X3253Y597D01*
X3232Y568D01*
X3218Y535D01*
X3215Y513D01*
X3337D01*
Y635D01*
D02*
G37*
G36*
X2663Y635D02*
Y513D01*
X2787D01*
X2784Y535D01*
X2771Y568D01*
X2749Y597D01*
X2721Y618D01*
X2688Y632D01*
X2663Y635D01*
D02*
G37*
G36*
X2637D02*
X2612Y632D01*
X2579Y618D01*
X2551Y597D01*
X2529Y568D01*
X2516Y535D01*
X2513Y513D01*
X2637D01*
Y635D01*
D02*
G37*
G36*
X7680Y562D02*
X7422D01*
Y470D01*
X7680D01*
Y562D01*
D02*
G37*
G36*
X3337Y487D02*
X3215D01*
X3218Y465D01*
X3232Y432D01*
X3253Y403D01*
X3273Y389D01*
X3263Y365D01*
X3263Y365D01*
Y263D01*
X3365D01*
X3362Y280D01*
X3351Y308D01*
X3332Y332D01*
X3319Y342D01*
X3329Y366D01*
X3337Y365D01*
Y487D01*
D02*
G37*
G36*
X3485D02*
X3363D01*
Y365D01*
X3385Y368D01*
X3418Y382D01*
X3447Y403D01*
X3468Y432D01*
X3482Y465D01*
X3485Y487D01*
D02*
G37*
G36*
X2637D02*
X2513D01*
X2516Y465D01*
X2529Y432D01*
X2551Y403D01*
X2579Y382D01*
X2612Y368D01*
X2637Y365D01*
Y487D01*
D02*
G37*
G36*
X3237Y365D02*
X3220Y362D01*
X3192Y351D01*
X3168Y332D01*
X3149Y308D01*
X3138Y280D01*
X3135Y263D01*
X3237D01*
Y365D01*
D02*
G37*
G36*
X3365Y237D02*
X3263D01*
Y135D01*
X3280Y138D01*
X3308Y149D01*
X3332Y168D01*
X3351Y192D01*
X3362Y220D01*
X3365Y237D01*
D02*
G37*
G36*
X3237D02*
X3135D01*
X3138Y220D01*
X3149Y192D01*
X3168Y168D01*
X3192Y149D01*
X3220Y138D01*
X3237Y135D01*
Y237D01*
D02*
G37*
%LPD*%
D38*
X2300Y2420D02*
D03*
Y2220D02*
D03*
D39*
X4250Y850D02*
D03*
Y3150D02*
D03*
D53*
X7693Y1425D02*
D03*
Y575D02*
D03*
Y2575D02*
D03*
Y3425D02*
D03*
D59*
X4910Y1540D02*
X5030D01*
X4858Y1593D02*
X4910Y1540D01*
X4858Y1593D02*
Y1842D01*
X4390Y2310D02*
X4858Y1842D01*
X4300Y2260D02*
X4780Y1780D01*
Y1590D02*
Y1780D01*
Y1590D02*
X4940Y1430D01*
X3740Y2260D02*
X4300D01*
X3770Y2310D02*
X4390D01*
X3690Y2390D02*
X3770Y2310D01*
X3690Y2390D02*
Y2500D01*
X3550Y2450D02*
X3740Y2260D01*
X3550Y2450D02*
Y2590D01*
X3800Y2400D02*
X4430D01*
X4940Y1650D02*
Y1890D01*
X4430Y2400D02*
X4940Y1890D01*
X960Y2460D02*
Y2700D01*
X840Y2450D02*
Y2800D01*
X400Y2430D02*
X710D01*
X160Y2190D02*
X400Y2430D01*
X750Y2360D02*
X840Y2450D01*
X430Y2360D02*
X750D01*
X250Y2180D02*
X430Y2360D01*
X800Y2300D02*
X960Y2460D01*
X480Y2300D02*
X800D01*
X340Y2160D02*
X480Y2300D01*
X340Y1860D02*
Y2160D01*
Y1860D02*
X446Y1754D01*
X500D01*
X250Y1540D02*
Y2180D01*
Y1540D02*
X290Y1500D01*
X500D01*
X160Y1130D02*
Y2190D01*
Y1130D02*
X298Y992D01*
X500D01*
D60*
X3375Y1245D02*
X3380Y1880D01*
D63*
X2690Y1760D02*
D03*
X3178D02*
D03*
D64*
X3250Y3750D02*
D03*
X2750D02*
D03*
X500Y2619D02*
D03*
Y3127D02*
D03*
Y2873D02*
D03*
Y1500D02*
D03*
Y1754D02*
D03*
Y1246D02*
D03*
Y992D02*
D03*
X3250Y250D02*
D03*
X2750D02*
D03*
D65*
X3350Y3500D02*
D03*
X2650Y500D02*
D03*
D66*
X2650Y3500D02*
D03*
X3350Y500D02*
D03*
D67*
X500Y3381D02*
D03*
Y2008D02*
D03*
D68*
X1450Y850D02*
D03*
Y2000D02*
D03*
D69*
X1000Y1246D02*
D03*
Y1754D02*
D03*
Y1500D02*
D03*
D70*
X6900Y2050D02*
D03*
X6700D02*
D03*
X6500D02*
D03*
X6300D02*
D03*
X6050Y750D02*
D03*
X6200D02*
D03*
X5900D02*
D03*
X7300Y650D02*
D03*
X7150Y3650D02*
D03*
X6950D02*
D03*
X7350Y3850D02*
D03*
X7150D02*
D03*
X6950D02*
D03*
X6750D02*
D03*
X6550D02*
D03*
X6350D02*
D03*
X6150D02*
D03*
X5950D02*
D03*
X5750D02*
D03*
X5550D02*
D03*
X5350D02*
D03*
X5150D02*
D03*
X4950D02*
D03*
X5300Y750D02*
D03*
X5150D02*
D03*
X7500Y3600D02*
D03*
X7350Y3500D02*
D03*
Y3350D02*
D03*
X7800Y3200D02*
D03*
X7650D02*
D03*
X7500D02*
D03*
X7350D02*
D03*
X7200D02*
D03*
X7050Y3300D02*
D03*
X7850Y2400D02*
D03*
X7700D02*
D03*
X7550D02*
D03*
X7400D02*
D03*
X7800Y2800D02*
D03*
X7650D02*
D03*
X7200Y2850D02*
D03*
X7500Y2800D02*
D03*
X7350D02*
D03*
X7250Y2750D02*
D03*
Y2600D02*
D03*
Y2450D02*
D03*
Y2300D02*
D03*
Y2150D02*
D03*
X7100D02*
D03*
X6950D02*
D03*
X6300Y2250D02*
D03*
Y2450D02*
D03*
Y2650D02*
D03*
X6000Y1000D02*
D03*
X5900Y900D02*
D03*
Y1050D02*
D03*
Y1200D02*
D03*
Y1350D02*
D03*
Y1500D02*
D03*
Y1650D02*
D03*
Y1800D02*
D03*
X6450Y2450D02*
D03*
X6900Y3450D02*
D03*
Y3250D02*
D03*
Y3050D02*
D03*
Y2850D02*
D03*
Y2650D02*
D03*
X7300Y500D02*
D03*
X7400Y400D02*
D03*
Y750D02*
D03*
X7550D02*
D03*
Y400D02*
D03*
X7850Y750D02*
D03*
X7700D02*
D03*
X7400Y1250D02*
D03*
X7850D02*
D03*
X7700D02*
D03*
X7550D02*
D03*
X7300Y1350D02*
D03*
Y1500D02*
D03*
X7400Y1600D02*
D03*
X7550D02*
D03*
X7700D02*
D03*
X7850D02*
D03*
X7650Y1100D02*
D03*
X7450D02*
D03*
X7250D02*
D03*
X7050D02*
D03*
X6800D02*
D03*
X7650Y850D02*
D03*
X7450D02*
D03*
X7250D02*
D03*
X7050D02*
D03*
X6800D02*
D03*
X6600D02*
D03*
X6400D02*
D03*
X6390Y1170D02*
D03*
X6380Y1440D02*
D03*
X3860Y3000D02*
D03*
X3980Y2940D02*
D03*
X970Y3110D02*
D03*
X3750Y2030D02*
D03*
X6020Y1100D02*
D03*
X6020Y880D02*
D03*
X6480Y3650D02*
D03*
X4990Y740D02*
D03*
X4730Y540D02*
D03*
X2210Y320D02*
D03*
X2210Y890D02*
D03*
X1723Y730D02*
D03*
X1780Y820D02*
D03*
X1900Y2130D02*
D03*
X1890Y2510D02*
D03*
X1530Y2320D02*
D03*
X6490Y2250D02*
D03*
X6480Y2650D02*
D03*
X5060Y1760D02*
D03*
X4270Y1750D02*
D03*
X4520D02*
D03*
X4670D02*
D03*
X3690Y2500D02*
D03*
X3800Y2600D02*
D03*
X3520Y2260D02*
D03*
X2330Y3060D02*
D03*
X2700Y2600D02*
D03*
X3120Y1960D02*
D03*
X3505Y1895D02*
D03*
X2390Y1880D02*
D03*
X1410Y1120D02*
D03*
X1670Y1210D02*
D03*
X2020Y1650D02*
D03*
X960Y2700D02*
D03*
X720Y2460D02*
D03*
X840Y2800D02*
D03*
X3375Y1245D02*
D03*
X3380Y1880D02*
D03*
X3800Y2420D02*
D03*
X3550Y2590D02*
D03*
X4940Y1430D02*
D03*
X5030Y1540D02*
D03*
X4940Y1650D02*
D03*
X3130Y2390D02*
D03*
X3458Y2942D02*
D03*
X2990Y2660D02*
D03*
X2990Y2780D02*
D03*
X3310Y2975D02*
D03*
X3630Y3050D02*
D03*
X3780Y3310D02*
D03*
X3660Y3640D02*
D03*
X3650Y3310D02*
D03*
X6480Y2850D02*
D03*
Y3050D02*
D03*
Y3250D02*
D03*
Y3450D02*
D03*
X3120Y1540D02*
D03*
D71*
X250Y250D02*
D03*
Y3750D02*
D03*
X7750Y250D02*
D03*
Y3750D02*
D03*
D72*
X4050Y3450D02*
X6480D01*
X3860Y3260D02*
X4050Y3450D01*
X3860Y3000D02*
Y3260D01*
X3900Y2810D02*
X4520D01*
X3730Y2980D02*
X3900Y2810D01*
X3730Y2980D02*
Y3260D01*
X3860Y2750D02*
X4524D01*
X3630Y2980D02*
X3860Y2750D01*
X3630Y2980D02*
Y3050D01*
X3730Y3260D02*
X3780Y3310D01*
X4440Y2860D02*
X4830Y3250D01*
X4060Y2860D02*
X4440D01*
X3980Y2940D02*
X4060Y2860D01*
X4520Y2810D02*
X4760Y3050D01*
X4524Y2750D02*
X4604Y2830D01*
X2990Y2660D02*
X3620Y2030D01*
X3750D01*
X6460Y2830D02*
X6480Y2850D01*
X4604Y2830D02*
X6460D01*
X4760Y3050D02*
X6480D01*
X4830Y3250D02*
X6480D01*
X3770Y2600D02*
X3800D01*
X3590Y2780D02*
X3770Y2600D01*
X3030Y2290D02*
X3130Y2390D01*
X3030Y1630D02*
Y2290D01*
Y1630D02*
X3120Y1540D01*
X3530Y3015D02*
Y3590D01*
X3458Y2942D02*
X3530Y3015D01*
X3250Y3750D02*
X3370D01*
X3530Y3590D01*
X2750Y250D02*
X2880Y380D01*
Y2800D01*
X3055Y2975D01*
X3310D01*
X2990Y2780D02*
X3590D01*
X3660Y3320D02*
Y3640D01*
X3650Y3310D02*
X3660Y3320D01*
M02*
