G04*
G04 #@! TF.GenerationSoftware,Altium Limited,Altium Designer,18.1.1 (9)*
G04*
G04 Layer_Color=8388736*
%FSLAX42Y42*%
%MOMM*%
G71*
G01*
G75*
G04:AMPARAMS|DCode=10|XSize=1.86mm|YSize=2.62mm|CornerRadius=0.35mm|HoleSize=0mm|Usage=FLASHONLY|Rotation=270.000|XOffset=0mm|YOffset=0mm|HoleType=Round|Shape=RoundedRectangle|*
%AMROUNDEDRECTD10*
21,1,1.86,1.92,0,0,270.0*
21,1,1.16,2.62,0,0,270.0*
1,1,0.70,-0.96,-0.58*
1,1,0.70,-0.96,0.58*
1,1,0.70,0.96,0.58*
1,1,0.70,0.96,-0.58*
%
%ADD10ROUNDEDRECTD10*%
G04:AMPARAMS|DCode=11|XSize=1.86mm|YSize=2.62mm|CornerRadius=0.35mm|HoleSize=0mm|Usage=FLASHONLY|Rotation=0.000|XOffset=0mm|YOffset=0mm|HoleType=Round|Shape=RoundedRectangle|*
%AMROUNDEDRECTD11*
21,1,1.86,1.92,0,0,0.0*
21,1,1.16,2.62,0,0,0.0*
1,1,0.70,0.58,-0.96*
1,1,0.70,-0.58,-0.96*
1,1,0.70,-0.58,0.96*
1,1,0.70,0.58,0.96*
%
%ADD11ROUNDEDRECTD11*%
%ADD12R,1.00X1.20*%
%ADD13R,1.20X1.00*%
%ADD14R,1.22X0.94*%
%ADD15R,1.15X0.80*%
%ADD16R,0.80X1.20*%
%ADD17O,1.65X0.50*%
%ADD18O,0.50X1.65*%
%ADD19R,1.70X1.70*%
%ADD20R,0.80X1.15*%
%ADD21R,1.20X0.80*%
%ADD22R,0.94X1.22*%
%ADD23R,5.10X1.80*%
%ADD24R,2.55X1.70*%
%ADD25R,1.65X1.20*%
G04:AMPARAMS|DCode=26|XSize=1.06mm|YSize=1.55mm|CornerRadius=0.32mm|HoleSize=0mm|Usage=FLASHONLY|Rotation=0.000|XOffset=0mm|YOffset=0mm|HoleType=Round|Shape=RoundedRectangle|*
%AMROUNDEDRECTD26*
21,1,1.06,0.91,0,0,0.0*
21,1,0.42,1.55,0,0,0.0*
1,1,0.64,0.21,-0.46*
1,1,0.64,-0.21,-0.46*
1,1,0.64,-0.21,0.46*
1,1,0.64,0.21,0.46*
%
%ADD26ROUNDEDRECTD26*%
%ADD27R,2.70X1.40*%
%ADD28O,2.20X0.90*%
%ADD29C,1.26*%
%ADD30C,2.00*%
%ADD31O,2.45X2.40*%
%ADD32C,2.40*%
G04:AMPARAMS|DCode=33|XSize=2mm|YSize=2mm|CornerRadius=0.55mm|HoleSize=0mm|Usage=FLASHONLY|Rotation=270.000|XOffset=0mm|YOffset=0mm|HoleType=Round|Shape=RoundedRectangle|*
%AMROUNDEDRECTD33*
21,1,2.00,0.90,0,0,270.0*
21,1,0.90,2.00,0,0,270.0*
1,1,1.10,-0.45,-0.45*
1,1,1.10,-0.45,0.45*
1,1,1.10,0.45,0.45*
1,1,1.10,0.45,-0.45*
%
%ADD33ROUNDEDRECTD33*%
%ADD34C,1.40*%
%ADD35C,2.20*%
%ADD36C,4.20*%
%ADD37C,2.30*%
%ADD38C,1.20*%
%ADD39C,4.00*%
D10*
X1800Y1393D02*
D03*
Y1688D02*
D03*
X4730Y1000D02*
D03*
Y705D02*
D03*
D11*
X2017Y570D02*
D03*
X1723D02*
D03*
D12*
X6410Y990D02*
D03*
X6545D02*
D03*
X868Y3110D02*
D03*
X732D02*
D03*
X2005Y2510D02*
D03*
X2140D02*
D03*
X2012Y2130D02*
D03*
X2148D02*
D03*
X2017Y820D02*
D03*
X1883D02*
D03*
X3372Y2130D02*
D03*
X3508D02*
D03*
D13*
X6540Y1588D02*
D03*
Y1452D02*
D03*
X2320Y2790D02*
D03*
Y2925D02*
D03*
X2260Y1895D02*
D03*
Y1760D02*
D03*
X2060Y1362D02*
D03*
Y1498D02*
D03*
X1670Y970D02*
D03*
Y1105D02*
D03*
X7050Y3135D02*
D03*
Y3000D02*
D03*
Y2450D02*
D03*
Y2315D02*
D03*
X4710Y2038D02*
D03*
Y1902D02*
D03*
X3610Y1895D02*
D03*
Y1760D02*
D03*
X4990Y985D02*
D03*
Y850D02*
D03*
D14*
X6560Y1136D02*
D03*
Y1284D02*
D03*
D15*
X740Y3395D02*
D03*
Y3245D02*
D03*
X4270Y1855D02*
D03*
Y2005D02*
D03*
X7050Y2800D02*
D03*
Y2650D02*
D03*
X3770Y1745D02*
D03*
Y1895D02*
D03*
X3920Y2405D02*
D03*
Y2555D02*
D03*
D16*
X2025Y1210D02*
D03*
X1930D02*
D03*
X1835D02*
D03*
Y970D02*
D03*
X2025D02*
D03*
D17*
X2523Y2277D02*
D03*
Y2327D02*
D03*
Y2377D02*
D03*
Y2427D02*
D03*
Y2477D02*
D03*
Y2527D02*
D03*
Y2577D02*
D03*
Y2627D02*
D03*
Y2677D02*
D03*
Y2727D02*
D03*
Y2777D02*
D03*
Y2827D02*
D03*
X3367D02*
D03*
Y2777D02*
D03*
Y2727D02*
D03*
Y2677D02*
D03*
Y2627D02*
D03*
Y2577D02*
D03*
Y2527D02*
D03*
Y2477D02*
D03*
Y2427D02*
D03*
Y2377D02*
D03*
Y2327D02*
D03*
Y2277D02*
D03*
D18*
X2670Y2975D02*
D03*
X2720D02*
D03*
X2770D02*
D03*
X2820D02*
D03*
X2870D02*
D03*
X2920D02*
D03*
X2970D02*
D03*
X3020D02*
D03*
X3070D02*
D03*
X3120D02*
D03*
X3170D02*
D03*
X3220D02*
D03*
Y2130D02*
D03*
X3170D02*
D03*
X3120D02*
D03*
X3070D02*
D03*
X3020D02*
D03*
X2970D02*
D03*
X2920D02*
D03*
X2870D02*
D03*
X2820D02*
D03*
X2770D02*
D03*
X2720D02*
D03*
X2670D02*
D03*
D19*
X1530Y2320D02*
D03*
D20*
X3115Y1400D02*
D03*
X2965D02*
D03*
X2835D02*
D03*
X2685D02*
D03*
X1410Y1240D02*
D03*
X1560D02*
D03*
X2295Y890D02*
D03*
X2445D02*
D03*
X2295Y320D02*
D03*
X2445D02*
D03*
D21*
X1330Y1500D02*
D03*
X1570Y1595D02*
D03*
Y1405D02*
D03*
X2450Y1055D02*
D03*
Y1245D02*
D03*
X2210Y1150D02*
D03*
X2440Y485D02*
D03*
Y675D02*
D03*
X2200Y580D02*
D03*
D22*
X4733Y1240D02*
D03*
X4587D02*
D03*
X4367Y2250D02*
D03*
X4513D02*
D03*
D23*
X7693Y1425D02*
D03*
Y575D02*
D03*
Y2575D02*
D03*
Y3425D02*
D03*
D24*
X7850Y1000D02*
D03*
Y3000D02*
D03*
D25*
X4520Y2040D02*
D03*
Y1880D02*
D03*
D26*
X4094Y2250D02*
D03*
X3906D02*
D03*
Y2000D02*
D03*
X4094D02*
D03*
X3906Y1750D02*
D03*
X4094D02*
D03*
D27*
X6695Y2250D02*
D03*
Y2450D02*
D03*
Y2650D02*
D03*
Y2850D02*
D03*
Y3050D02*
D03*
Y3250D02*
D03*
Y3450D02*
D03*
Y3650D02*
D03*
X4745Y2250D02*
D03*
Y2450D02*
D03*
Y2650D02*
D03*
Y2850D02*
D03*
Y3050D02*
D03*
Y3250D02*
D03*
Y3450D02*
D03*
Y3650D02*
D03*
D28*
X5215Y1760D02*
D03*
Y1650D02*
D03*
Y1540D02*
D03*
Y1430D02*
D03*
Y1320D02*
D03*
Y1210D02*
D03*
Y1100D02*
D03*
Y990D02*
D03*
Y880D02*
D03*
X6185Y1760D02*
D03*
Y1650D02*
D03*
Y1540D02*
D03*
Y1430D02*
D03*
Y1320D02*
D03*
Y1210D02*
D03*
Y1100D02*
D03*
Y990D02*
D03*
Y880D02*
D03*
D29*
X2690Y1760D02*
D03*
X3178D02*
D03*
D30*
X3250Y3750D02*
D03*
X2750D02*
D03*
X500Y2619D02*
D03*
Y3127D02*
D03*
Y2873D02*
D03*
Y1500D02*
D03*
Y1754D02*
D03*
Y1246D02*
D03*
Y992D02*
D03*
X3250Y250D02*
D03*
X2750D02*
D03*
D31*
X3350Y3500D02*
D03*
X2650Y500D02*
D03*
D32*
X2650Y3500D02*
D03*
X3350Y500D02*
D03*
D33*
X500Y3381D02*
D03*
Y2008D02*
D03*
D34*
X2300Y2420D02*
D03*
Y2220D02*
D03*
D35*
X1450Y850D02*
D03*
Y2000D02*
D03*
D36*
X4250Y850D02*
D03*
Y3150D02*
D03*
D37*
X1000Y1246D02*
D03*
Y1754D02*
D03*
Y1500D02*
D03*
D38*
X6900Y2050D02*
D03*
X6700D02*
D03*
X6500D02*
D03*
X6300D02*
D03*
X6050Y750D02*
D03*
X6200D02*
D03*
X5900D02*
D03*
X7300Y650D02*
D03*
X7150Y3650D02*
D03*
X6950D02*
D03*
X7350Y3850D02*
D03*
X7150D02*
D03*
X6950D02*
D03*
X6750D02*
D03*
X6550D02*
D03*
X6350D02*
D03*
X6150D02*
D03*
X5950D02*
D03*
X5750D02*
D03*
X5550D02*
D03*
X5350D02*
D03*
X5150D02*
D03*
X4950D02*
D03*
X5300Y750D02*
D03*
X5150D02*
D03*
X7500Y3600D02*
D03*
X7350Y3500D02*
D03*
Y3350D02*
D03*
X7800Y3200D02*
D03*
X7650D02*
D03*
X7500D02*
D03*
X7350D02*
D03*
X7200D02*
D03*
X7050Y3300D02*
D03*
X7850Y2400D02*
D03*
X7700D02*
D03*
X7550D02*
D03*
X7400D02*
D03*
X7800Y2800D02*
D03*
X7650D02*
D03*
X7200Y2850D02*
D03*
X7500Y2800D02*
D03*
X7350D02*
D03*
X7250Y2750D02*
D03*
Y2600D02*
D03*
Y2450D02*
D03*
Y2300D02*
D03*
Y2150D02*
D03*
X7100D02*
D03*
X6950D02*
D03*
X6300Y2250D02*
D03*
Y2450D02*
D03*
Y2650D02*
D03*
X6000Y1000D02*
D03*
X5900Y900D02*
D03*
Y1050D02*
D03*
Y1200D02*
D03*
Y1350D02*
D03*
Y1500D02*
D03*
Y1650D02*
D03*
Y1800D02*
D03*
X6450Y2450D02*
D03*
X6900Y3450D02*
D03*
Y3250D02*
D03*
Y3050D02*
D03*
Y2850D02*
D03*
Y2650D02*
D03*
X7300Y500D02*
D03*
X7400Y400D02*
D03*
Y750D02*
D03*
X7550D02*
D03*
Y400D02*
D03*
X7850Y750D02*
D03*
X7700D02*
D03*
X7400Y1250D02*
D03*
X7850D02*
D03*
X7700D02*
D03*
X7550D02*
D03*
X7300Y1350D02*
D03*
Y1500D02*
D03*
X7400Y1600D02*
D03*
X7550D02*
D03*
X7700D02*
D03*
X7850D02*
D03*
X7650Y1100D02*
D03*
X7450D02*
D03*
X7250D02*
D03*
X7050D02*
D03*
X6800D02*
D03*
X7650Y850D02*
D03*
X7450D02*
D03*
X7250D02*
D03*
X7050D02*
D03*
X6800D02*
D03*
X6600D02*
D03*
X6400D02*
D03*
X6390Y1170D02*
D03*
X6380Y1440D02*
D03*
X3860Y3000D02*
D03*
X3980Y2940D02*
D03*
X970Y3110D02*
D03*
X3750Y2030D02*
D03*
X6020Y1100D02*
D03*
X6020Y880D02*
D03*
X6480Y3650D02*
D03*
X4990Y740D02*
D03*
X4730Y540D02*
D03*
X2210Y320D02*
D03*
X2210Y890D02*
D03*
X1723Y730D02*
D03*
X1780Y820D02*
D03*
X1900Y2130D02*
D03*
X1890Y2510D02*
D03*
X1530Y2320D02*
D03*
X6490Y2250D02*
D03*
X6480Y2650D02*
D03*
X5060Y1760D02*
D03*
X4270Y1750D02*
D03*
X4520D02*
D03*
X4670D02*
D03*
X3690Y2500D02*
D03*
X3800Y2600D02*
D03*
X3520Y2260D02*
D03*
X2330Y3060D02*
D03*
X2700Y2600D02*
D03*
X3120Y1960D02*
D03*
X3505Y1895D02*
D03*
X2390Y1880D02*
D03*
X1410Y1120D02*
D03*
X1670Y1210D02*
D03*
X2020Y1650D02*
D03*
X960Y2700D02*
D03*
X720Y2460D02*
D03*
X840Y2800D02*
D03*
X3375Y1245D02*
D03*
X3380Y1880D02*
D03*
X3800Y2420D02*
D03*
X3550Y2590D02*
D03*
X4940Y1430D02*
D03*
X5030Y1540D02*
D03*
X4940Y1650D02*
D03*
X3130Y2390D02*
D03*
X3458Y2942D02*
D03*
X2990Y2660D02*
D03*
X2990Y2780D02*
D03*
X3310Y2975D02*
D03*
X3630Y3050D02*
D03*
X3780Y3310D02*
D03*
X3660Y3640D02*
D03*
X3650Y3310D02*
D03*
X6480Y2850D02*
D03*
Y3050D02*
D03*
Y3250D02*
D03*
Y3450D02*
D03*
X3120Y1540D02*
D03*
D39*
X250Y250D02*
D03*
Y3750D02*
D03*
X7750Y250D02*
D03*
Y3750D02*
D03*
M02*
