G04*
G04 #@! TF.GenerationSoftware,Altium Limited,Altium Designer,18.1.1 (9)*
G04*
G04 Layer_Physical_Order=2*
G04 Layer_Color=16711680*
%FSLAX42Y42*%
%MOMM*%
G71*
G01*
G75*
%ADD37C,4.00*%
%ADD50R,4.90X1.60*%
%ADD56C,0.25*%
%ADD57C,0.50*%
%ADD60C,1.06*%
%ADD61C,1.80*%
G04:AMPARAMS|DCode=62|XSize=1.8mm|YSize=1.8mm|CornerRadius=0.45mm|HoleSize=0mm|Usage=FLASHONLY|Rotation=270.000|XOffset=0mm|YOffset=0mm|HoleType=Round|Shape=RoundedRectangle|*
%AMROUNDEDRECTD62*
21,1,1.80,0.90,0,0,270.0*
21,1,0.90,1.80,0,0,270.0*
1,1,0.90,-0.45,-0.45*
1,1,0.90,-0.45,0.45*
1,1,0.90,0.45,0.45*
1,1,0.90,0.45,-0.45*
%
%ADD62ROUNDEDRECTD62*%
%ADD63O,2.25X2.20*%
%ADD64C,2.20*%
%ADD65C,2.00*%
%ADD66C,2.10*%
%ADD67C,1.00*%
%ADD68C,3.80*%
%ADD69C,0.25*%
G36*
X7969Y3553D02*
X7963Y3530D01*
X7944Y3530D01*
X7705D01*
Y3425D01*
Y3320D01*
X7944D01*
X7963Y3320D01*
X7969Y3297D01*
Y2703D01*
X7963Y2680D01*
X7944Y2680D01*
X7705D01*
Y2575D01*
Y2470D01*
X7944D01*
X7963Y2470D01*
X7969Y2447D01*
Y1553D01*
X7963Y1530D01*
X7944Y1530D01*
X7705D01*
Y1425D01*
Y1320D01*
X7944D01*
X7963Y1320D01*
X7969Y1297D01*
Y703D01*
X7963Y680D01*
X7944Y680D01*
X7705D01*
Y575D01*
Y470D01*
X7944D01*
X7963Y470D01*
X7969Y447D01*
Y31D01*
X31D01*
Y3969D01*
X7969D01*
Y3553D01*
D02*
G37*
%LPC*%
G36*
X2763Y3865D02*
Y3763D01*
X2865D01*
X2862Y3780D01*
X2851Y3808D01*
X2832Y3832D01*
X2808Y3851D01*
X2780Y3862D01*
X2763Y3865D01*
D02*
G37*
G36*
X2737D02*
X2720Y3862D01*
X2692Y3851D01*
X2668Y3832D01*
X2649Y3808D01*
X2638Y3780D01*
X2635Y3763D01*
X2737D01*
Y3865D01*
D02*
G37*
G36*
X2865Y3737D02*
X2763D01*
Y3635D01*
X2780Y3638D01*
X2808Y3649D01*
X2832Y3668D01*
X2851Y3692D01*
X2862Y3720D01*
X2865Y3737D01*
D02*
G37*
G36*
X2737D02*
X2635D01*
X2638Y3720D01*
X2649Y3692D01*
X2668Y3668D01*
X2681Y3658D01*
X2671Y3634D01*
X2663Y3635D01*
Y3513D01*
X2785D01*
X2782Y3535D01*
X2768Y3568D01*
X2747Y3597D01*
X2727Y3611D01*
X2737Y3635D01*
X2737Y3635D01*
Y3737D01*
D02*
G37*
G36*
X3363Y3635D02*
Y3513D01*
X3487D01*
X3484Y3535D01*
X3471Y3568D01*
X3449Y3597D01*
X3421Y3618D01*
X3388Y3632D01*
X3363Y3635D01*
D02*
G37*
G36*
X2637Y3635D02*
X2615Y3632D01*
X2582Y3618D01*
X2553Y3597D01*
X2532Y3568D01*
X2518Y3535D01*
X2515Y3513D01*
X2637D01*
Y3635D01*
D02*
G37*
G36*
X3250Y3861D02*
X3221Y3857D01*
X3195Y3846D01*
X3172Y3828D01*
X3154Y3805D01*
X3143Y3779D01*
X3139Y3750D01*
X3143Y3721D01*
X3147Y3712D01*
X3088Y3652D01*
X3078Y3638D01*
X3074Y3620D01*
Y3423D01*
X3070Y3420D01*
X3059Y3405D01*
X3052Y3388D01*
X3049Y3370D01*
X3052Y3352D01*
X3059Y3335D01*
X3070Y3320D01*
X3085Y3309D01*
X3102Y3302D01*
X3120Y3299D01*
X3138Y3302D01*
X3155Y3309D01*
X3170Y3320D01*
X3181Y3335D01*
X3188Y3352D01*
X3191Y3370D01*
X3188Y3388D01*
X3181Y3405D01*
X3170Y3420D01*
X3166Y3423D01*
Y3601D01*
X3212Y3647D01*
X3221Y3643D01*
X3250Y3639D01*
X3271Y3642D01*
X3279Y3618D01*
X3251Y3597D01*
X3229Y3568D01*
X3216Y3535D01*
X3213Y3513D01*
X3337D01*
Y3635D01*
X3317Y3633D01*
X3311Y3643D01*
X3309Y3657D01*
X3328Y3672D01*
X3346Y3695D01*
X3357Y3721D01*
X3361Y3750D01*
X3357Y3779D01*
X3346Y3805D01*
X3328Y3828D01*
X3305Y3846D01*
X3279Y3857D01*
X3250Y3861D01*
D02*
G37*
G36*
X7680Y3530D02*
X7422D01*
Y3438D01*
X7680D01*
Y3530D01*
D02*
G37*
G36*
X2785Y3487D02*
X2663D01*
Y3365D01*
X2685Y3368D01*
X2718Y3382D01*
X2747Y3403D01*
X2768Y3432D01*
X2782Y3465D01*
X2785Y3487D01*
D02*
G37*
G36*
X2637D02*
X2515D01*
X2518Y3465D01*
X2532Y3432D01*
X2553Y3403D01*
X2582Y3382D01*
X2615Y3368D01*
X2637Y3365D01*
Y3487D01*
D02*
G37*
G36*
X3487D02*
X3363D01*
Y3365D01*
X3388Y3368D01*
X3421Y3382D01*
X3449Y3403D01*
X3471Y3432D01*
X3484Y3465D01*
X3487Y3487D01*
D02*
G37*
G36*
X3337D02*
X3213D01*
X3216Y3465D01*
X3229Y3432D01*
X3251Y3403D01*
X3279Y3382D01*
X3312Y3368D01*
X3337Y3365D01*
Y3487D01*
D02*
G37*
G36*
X7680Y3412D02*
X7422D01*
Y3320D01*
X7680D01*
Y3412D01*
D02*
G37*
G36*
X6480Y3521D02*
X6462Y3518D01*
X6445Y3511D01*
X6430Y3500D01*
X6419Y3485D01*
X6412Y3468D01*
X6409Y3450D01*
X6412Y3432D01*
X6419Y3415D01*
X6430Y3400D01*
X6445Y3389D01*
X6462Y3382D01*
X6480Y3379D01*
X6498Y3382D01*
X6500Y3383D01*
X6567Y3316D01*
Y3289D01*
X6542Y3284D01*
X6541Y3285D01*
X6530Y3300D01*
X6515Y3311D01*
X6498Y3318D01*
X6480Y3321D01*
X6462Y3318D01*
X6445Y3311D01*
X6430Y3300D01*
X6419Y3285D01*
X6418Y3283D01*
X4896D01*
X4883Y3281D01*
X4872Y3274D01*
X4184Y2586D01*
X3955D01*
X3948Y2603D01*
X3948Y2611D01*
X3960Y2620D01*
X3971Y2635D01*
X3978Y2652D01*
X3979Y2660D01*
X3986Y2672D01*
X4004Y2680D01*
X4010Y2679D01*
X4028Y2682D01*
X4045Y2689D01*
X4071Y2677D01*
X4072Y2672D01*
X4079Y2655D01*
X4090Y2640D01*
X4105Y2629D01*
X4122Y2622D01*
X4140Y2619D01*
X4158Y2622D01*
X4175Y2629D01*
X4190Y2640D01*
X4201Y2655D01*
X4208Y2672D01*
X4211Y2690D01*
X4208Y2708D01*
X4201Y2725D01*
X4190Y2740D01*
X4175Y2751D01*
X4173Y2752D01*
Y2912D01*
X4198Y2930D01*
X4206Y2928D01*
X4237Y2925D01*
Y3137D01*
X4025D01*
X4026Y3126D01*
X4002Y3115D01*
X3903Y3213D01*
X3893Y3221D01*
X3880Y3223D01*
X3490D01*
X3477Y3221D01*
X3467Y3213D01*
X3386Y3133D01*
X3170D01*
X3157Y3131D01*
X3147Y3123D01*
X2826Y2803D01*
X2390D01*
X2390Y2803D01*
X2302D01*
X2301Y2805D01*
X2290Y2820D01*
X2275Y2831D01*
X2258Y2838D01*
X2240Y2841D01*
X2222Y2838D01*
X2205Y2831D01*
X2190Y2820D01*
X2179Y2805D01*
X2172Y2788D01*
X2169Y2770D01*
X2172Y2752D01*
X2179Y2735D01*
X2179Y2734D01*
X2174Y2718D01*
X2169Y2707D01*
X2155Y2701D01*
X2140Y2690D01*
X2129Y2675D01*
X2122Y2658D01*
X2119Y2640D01*
X2118Y2637D01*
X2097Y2620D01*
X2090Y2621D01*
X2072Y2618D01*
X2055Y2611D01*
X2040Y2600D01*
X2029Y2585D01*
X2022Y2568D01*
X2019Y2550D01*
X2022Y2532D01*
X2029Y2515D01*
X2040Y2500D01*
X2055Y2489D01*
X2072Y2482D01*
X2090Y2479D01*
X2108Y2482D01*
X2125Y2489D01*
X2136Y2497D01*
X2223D01*
X2237Y2483D01*
X2233Y2470D01*
X2226Y2459D01*
X2222Y2458D01*
X2205Y2451D01*
X2190Y2440D01*
X2179Y2425D01*
X2172Y2408D01*
X2169Y2390D01*
X2172Y2372D01*
X2179Y2355D01*
X2190Y2340D01*
X2205Y2329D01*
X2222Y2322D01*
X2240Y2319D01*
X2258Y2322D01*
X2260Y2323D01*
X2307Y2277D01*
X2317Y2269D01*
X2330Y2267D01*
X2810D01*
X2823Y2269D01*
X2833Y2277D01*
X3064Y2507D01*
X3406D01*
X3494Y2419D01*
X3501Y2409D01*
X3664Y2245D01*
Y2083D01*
X3667Y2070D01*
X3674Y2059D01*
X3683Y2050D01*
X3682Y2048D01*
X3679Y2030D01*
X3680Y2022D01*
X3657Y2010D01*
X3553Y2113D01*
X3553Y2115D01*
X3546Y2126D01*
X3528Y2144D01*
Y2188D01*
X3530Y2189D01*
X3545Y2200D01*
X3556Y2215D01*
X3563Y2232D01*
X3566Y2250D01*
X3563Y2268D01*
X3556Y2285D01*
X3545Y2300D01*
X3530Y2311D01*
X3513Y2318D01*
X3495Y2321D01*
X3477Y2318D01*
X3460Y2311D01*
X3445Y2300D01*
X3434Y2285D01*
X3427Y2268D01*
X3424Y2250D01*
X3427Y2232D01*
X3434Y2215D01*
X3445Y2200D01*
X3460Y2189D01*
X3462Y2188D01*
Y2130D01*
X3464Y2117D01*
X3472Y2107D01*
X3489Y2089D01*
X3489Y2087D01*
X3497Y2077D01*
X3535Y2038D01*
X3525Y2013D01*
X3357D01*
X3344Y2011D01*
X3333Y2003D01*
X3313Y1983D01*
X3282D01*
X3281Y1985D01*
X3270Y2000D01*
X3255Y2011D01*
X3238Y2018D01*
X3220Y2021D01*
X3202Y2018D01*
X3185Y2011D01*
X3170Y2000D01*
X3159Y1985D01*
X3152Y1968D01*
X3149Y1950D01*
X3152Y1932D01*
X3159Y1915D01*
X3170Y1900D01*
X3185Y1889D01*
X3202Y1882D01*
X3220Y1879D01*
X3238Y1882D01*
X3255Y1889D01*
X3270Y1900D01*
X3273Y1904D01*
X3291Y1907D01*
X3300Y1906D01*
X3303Y1904D01*
X3311Y1892D01*
X3309Y1880D01*
X3312Y1862D01*
X3319Y1845D01*
X3330Y1830D01*
X3334Y1827D01*
X3330Y1298D01*
X3325Y1295D01*
X3314Y1280D01*
X3307Y1263D01*
X3304Y1245D01*
X3307Y1227D01*
X3314Y1210D01*
X3325Y1195D01*
X3340Y1184D01*
X3357Y1177D01*
X3375Y1174D01*
X3393Y1177D01*
X3410Y1184D01*
X3425Y1195D01*
X3436Y1210D01*
X3443Y1227D01*
X3446Y1245D01*
X3443Y1263D01*
X3436Y1280D01*
X3425Y1295D01*
X3421Y1298D01*
X3425Y1827D01*
X3430Y1830D01*
X3441Y1845D01*
X3448Y1862D01*
X3451Y1880D01*
X3448Y1898D01*
X3441Y1915D01*
X3436Y1922D01*
X3447Y1947D01*
X3447Y1947D01*
X3526D01*
X3957Y1517D01*
X3967Y1509D01*
X3980Y1507D01*
X4968D01*
X4969Y1505D01*
X4980Y1490D01*
X4995Y1479D01*
X5012Y1472D01*
X5030Y1469D01*
X5048Y1472D01*
X5065Y1479D01*
X5080Y1490D01*
X5091Y1505D01*
X5098Y1522D01*
X5101Y1540D01*
X5098Y1558D01*
X5091Y1575D01*
X5080Y1590D01*
X5065Y1601D01*
X5048Y1608D01*
X5030Y1611D01*
X5026Y1610D01*
X5008Y1632D01*
X5011Y1650D01*
X5008Y1668D01*
X5001Y1685D01*
X4990Y1700D01*
X4975Y1711D01*
X4958Y1718D01*
X4940Y1721D01*
X4922Y1718D01*
X4905Y1711D01*
X4890Y1700D01*
X4879Y1685D01*
X4878Y1683D01*
X3984D01*
X3933Y1733D01*
X3730Y1937D01*
X3742Y1960D01*
X3750Y1959D01*
X3768Y1962D01*
X3785Y1969D01*
X3800Y1980D01*
X3811Y1995D01*
X3818Y2012D01*
X3821Y2030D01*
X3818Y2048D01*
X3811Y2065D01*
X3800Y2080D01*
X3785Y2091D01*
X3768Y2098D01*
X3750Y2101D01*
X3731Y2123D01*
Y2170D01*
X3756Y2184D01*
X3762Y2182D01*
X3780Y2179D01*
X3798Y2182D01*
X3815Y2189D01*
X3830Y2200D01*
X3841Y2215D01*
X3842Y2217D01*
X4088D01*
X4101Y2219D01*
X4112Y2227D01*
X4612Y2727D01*
X6550D01*
X6563Y2729D01*
X6573Y2737D01*
X6623Y2787D01*
X6631Y2797D01*
X6633Y2810D01*
Y3330D01*
X6631Y3343D01*
X6623Y3353D01*
X6547Y3430D01*
X6548Y3432D01*
X6551Y3450D01*
X6548Y3468D01*
X6541Y3485D01*
X6530Y3500D01*
X6515Y3511D01*
X6498Y3518D01*
X6480Y3521D01*
D02*
G37*
G36*
X545Y3374D02*
X513D01*
Y3271D01*
X616D01*
Y3303D01*
X614Y3321D01*
X606Y3339D01*
X595Y3353D01*
X581Y3364D01*
X563Y3372D01*
X545Y3374D01*
D02*
G37*
G36*
X487D02*
X455D01*
X437Y3372D01*
X419Y3364D01*
X405Y3353D01*
X394Y3339D01*
X386Y3321D01*
X384Y3303D01*
Y3271D01*
X487D01*
Y3374D01*
D02*
G37*
G36*
X4263Y3375D02*
Y3163D01*
X4475D01*
X4472Y3194D01*
X4459Y3237D01*
X4438Y3276D01*
X4410Y3310D01*
X4376Y3338D01*
X4337Y3359D01*
X4294Y3372D01*
X4263Y3375D01*
D02*
G37*
G36*
X4237Y3375D02*
X4206Y3372D01*
X4163Y3359D01*
X4124Y3338D01*
X4090Y3310D01*
X4062Y3276D01*
X4041Y3237D01*
X4028Y3194D01*
X4025Y3163D01*
X4237D01*
Y3375D01*
D02*
G37*
G36*
X616Y3245D02*
X513D01*
Y3142D01*
X545D01*
X563Y3144D01*
X581Y3152D01*
X595Y3163D01*
X606Y3177D01*
X614Y3195D01*
X616Y3213D01*
Y3245D01*
D02*
G37*
G36*
X487D02*
X384D01*
Y3213D01*
X386Y3195D01*
X394Y3177D01*
X405Y3163D01*
X419Y3152D01*
X437Y3144D01*
X455Y3142D01*
X487D01*
Y3245D01*
D02*
G37*
G36*
X4475Y3137D02*
X4263D01*
Y2925D01*
X4294Y2928D01*
X4337Y2941D01*
X4376Y2962D01*
X4410Y2990D01*
X4438Y3024D01*
X4459Y3063D01*
X4472Y3106D01*
X4475Y3137D01*
D02*
G37*
G36*
X970Y3031D02*
X952Y3028D01*
X935Y3021D01*
X920Y3010D01*
X909Y2995D01*
X902Y2978D01*
X899Y2960D01*
X902Y2942D01*
X909Y2925D01*
X916Y2916D01*
X900Y2896D01*
X883Y2903D01*
X865Y2906D01*
X847Y2903D01*
X830Y2896D01*
X815Y2885D01*
X804Y2870D01*
X797Y2853D01*
X794Y2835D01*
X797Y2817D01*
X804Y2800D01*
X815Y2785D01*
X830Y2774D01*
X847Y2767D01*
X865Y2764D01*
X870Y2765D01*
X930Y2705D01*
X930Y2705D01*
X560Y2335D01*
X555Y2338D01*
X529Y2349D01*
X500Y2353D01*
X471Y2349D01*
X445Y2338D01*
X422Y2320D01*
X404Y2297D01*
X393Y2271D01*
X389Y2242D01*
X393Y2213D01*
X404Y2187D01*
X422Y2164D01*
X445Y2146D01*
X471Y2135D01*
X500Y2131D01*
X529Y2135D01*
X555Y2146D01*
X578Y2164D01*
X596Y2187D01*
X607Y2213D01*
X611Y2242D01*
X609Y2254D01*
X995Y2640D01*
X1000Y2639D01*
X1018Y2642D01*
X1035Y2649D01*
X1050Y2660D01*
X1061Y2675D01*
X1068Y2692D01*
X1071Y2710D01*
X1068Y2728D01*
X1061Y2745D01*
X1050Y2760D01*
X1035Y2771D01*
X1018Y2778D01*
X1000Y2781D01*
X986Y2779D01*
X935Y2830D01*
X936Y2835D01*
X933Y2853D01*
X926Y2870D01*
X919Y2879D01*
X935Y2899D01*
X952Y2892D01*
X970Y2889D01*
X988Y2892D01*
X990Y2893D01*
X1897Y1987D01*
X1907Y1979D01*
X1920Y1977D01*
X2736D01*
X2847Y1867D01*
X2857Y1859D01*
X2870Y1857D01*
X2938D01*
X2939Y1855D01*
X2950Y1840D01*
X2965Y1829D01*
X2982Y1822D01*
X3000Y1819D01*
X3018Y1822D01*
X3023Y1824D01*
X3048Y1809D01*
Y613D01*
X2788Y353D01*
X2779Y357D01*
X2750Y361D01*
X2729Y358D01*
X2721Y382D01*
X2749Y403D01*
X2771Y432D01*
X2784Y465D01*
X2787Y487D01*
X2663D01*
Y365D01*
X2683Y367D01*
X2689Y357D01*
X2691Y343D01*
X2672Y328D01*
X2654Y305D01*
X2643Y279D01*
X2639Y250D01*
X2643Y221D01*
X2654Y195D01*
X2672Y172D01*
X2695Y154D01*
X2721Y143D01*
X2750Y139D01*
X2779Y143D01*
X2805Y154D01*
X2828Y172D01*
X2846Y195D01*
X2857Y221D01*
X2861Y250D01*
X2857Y279D01*
X2853Y288D01*
X3114Y549D01*
X3124Y564D01*
X3127Y581D01*
X3124Y599D01*
X3115Y612D01*
Y1682D01*
X3130Y1692D01*
X3140Y1695D01*
X3155Y1689D01*
X3174Y1686D01*
X3193Y1689D01*
X3211Y1696D01*
X3226Y1708D01*
X3238Y1723D01*
X3245Y1741D01*
X3248Y1760D01*
X3245Y1779D01*
X3238Y1797D01*
X3226Y1812D01*
X3211Y1824D01*
X3193Y1831D01*
X3174Y1834D01*
X3155Y1831D01*
X3140Y1825D01*
X3130Y1828D01*
X3115Y1838D01*
Y1849D01*
X3116Y1856D01*
Y1924D01*
X3115Y1931D01*
Y2297D01*
X3140Y2323D01*
X3142Y2322D01*
X3160Y2319D01*
X3178Y2322D01*
X3195Y2329D01*
X3210Y2340D01*
X3221Y2355D01*
X3228Y2372D01*
X3231Y2390D01*
X3228Y2408D01*
X3221Y2425D01*
X3210Y2440D01*
X3195Y2451D01*
X3178Y2458D01*
X3160Y2461D01*
X3142Y2458D01*
X3125Y2451D01*
X3110Y2440D01*
X3099Y2425D01*
X3092Y2408D01*
X3089Y2390D01*
X3092Y2372D01*
X3093Y2370D01*
X3058Y2335D01*
X3050Y2324D01*
X3048Y2311D01*
Y1971D01*
X3023Y1956D01*
X3018Y1958D01*
X3000Y1961D01*
X2982Y1958D01*
X2965Y1951D01*
X2950Y1940D01*
X2939Y1925D01*
X2938Y1923D01*
X2884D01*
X2773Y2033D01*
X2763Y2041D01*
X2750Y2043D01*
X1934D01*
X1037Y2940D01*
X1038Y2942D01*
X1041Y2960D01*
X1038Y2978D01*
X1031Y2995D01*
X1020Y3010D01*
X1005Y3021D01*
X988Y3028D01*
X970Y3031D01*
D02*
G37*
G36*
X500Y3115D02*
X471Y3111D01*
X445Y3100D01*
X422Y3082D01*
X404Y3059D01*
X393Y3033D01*
X389Y3004D01*
X393Y2975D01*
X404Y2949D01*
X422Y2926D01*
X445Y2908D01*
X471Y2897D01*
X500Y2893D01*
X529Y2897D01*
X555Y2908D01*
X578Y2926D01*
X596Y2949D01*
X607Y2975D01*
X611Y3004D01*
X607Y3033D01*
X596Y3059D01*
X578Y3082D01*
X555Y3100D01*
X529Y3111D01*
X500Y3115D01*
D02*
G37*
G36*
Y2861D02*
X471Y2857D01*
X445Y2846D01*
X422Y2828D01*
X404Y2805D01*
X393Y2779D01*
X389Y2750D01*
X393Y2721D01*
X404Y2695D01*
X422Y2672D01*
X445Y2654D01*
X471Y2643D01*
X500Y2639D01*
X529Y2643D01*
X555Y2654D01*
X578Y2672D01*
X596Y2695D01*
X607Y2721D01*
X611Y2750D01*
X607Y2779D01*
X596Y2805D01*
X578Y2828D01*
X555Y2846D01*
X529Y2857D01*
X500Y2861D01*
D02*
G37*
G36*
X7680Y2680D02*
X7422D01*
Y2588D01*
X7680D01*
Y2680D01*
D02*
G37*
G36*
Y2562D02*
X7422D01*
Y2470D01*
X7680D01*
Y2562D01*
D02*
G37*
G36*
X500Y2607D02*
X471Y2603D01*
X445Y2592D01*
X422Y2574D01*
X404Y2551D01*
X393Y2525D01*
X389Y2496D01*
X393Y2467D01*
X404Y2441D01*
X422Y2418D01*
X445Y2400D01*
X471Y2389D01*
X500Y2385D01*
X529Y2389D01*
X555Y2400D01*
X578Y2418D01*
X596Y2441D01*
X607Y2467D01*
X611Y2496D01*
X607Y2525D01*
X596Y2551D01*
X578Y2574D01*
X555Y2592D01*
X529Y2603D01*
X500Y2607D01*
D02*
G37*
G36*
X1463Y2125D02*
Y2013D01*
X1575D01*
X1572Y2033D01*
X1560Y2063D01*
X1539Y2089D01*
X1513Y2110D01*
X1483Y2122D01*
X1463Y2125D01*
D02*
G37*
G36*
X1437D02*
X1417Y2122D01*
X1387Y2110D01*
X1361Y2089D01*
X1340Y2063D01*
X1328Y2033D01*
X1325Y2013D01*
X1437D01*
Y2125D01*
D02*
G37*
G36*
X6710Y2111D02*
X6692Y2108D01*
X6675Y2101D01*
X6660Y2090D01*
X6649Y2075D01*
X6642Y2058D01*
X6639Y2040D01*
X6642Y2022D01*
X6649Y2005D01*
X6660Y1990D01*
X6675Y1979D01*
X6692Y1972D01*
X6710Y1969D01*
X6728Y1972D01*
X6745Y1979D01*
X6760Y1990D01*
X6771Y2005D01*
X6778Y2022D01*
X6781Y2040D01*
X6778Y2058D01*
X6771Y2075D01*
X6760Y2090D01*
X6745Y2101D01*
X6728Y2108D01*
X6710Y2111D01*
D02*
G37*
G36*
X6500D02*
X6482Y2108D01*
X6465Y2101D01*
X6450Y2090D01*
X6439Y2075D01*
X6432Y2058D01*
X6429Y2040D01*
X6432Y2022D01*
X6439Y2005D01*
X6450Y1990D01*
X6465Y1979D01*
X6482Y1972D01*
X6500Y1969D01*
X6518Y1972D01*
X6535Y1979D01*
X6550Y1990D01*
X6561Y2005D01*
X6568Y2022D01*
X6571Y2040D01*
X6568Y2058D01*
X6561Y2075D01*
X6550Y2090D01*
X6535Y2101D01*
X6518Y2108D01*
X6500Y2111D01*
D02*
G37*
G36*
X6300D02*
X6282Y2108D01*
X6265Y2101D01*
X6250Y2090D01*
X6239Y2075D01*
X6232Y2058D01*
X6229Y2040D01*
X6232Y2022D01*
X6239Y2005D01*
X6250Y1990D01*
X6265Y1979D01*
X6282Y1972D01*
X6300Y1969D01*
X6318Y1972D01*
X6335Y1979D01*
X6350Y1990D01*
X6361Y2005D01*
X6368Y2022D01*
X6371Y2040D01*
X6368Y2058D01*
X6361Y2075D01*
X6350Y2090D01*
X6335Y2101D01*
X6318Y2108D01*
X6300Y2111D01*
D02*
G37*
G36*
X1575Y1987D02*
X1463D01*
Y1875D01*
X1483Y1878D01*
X1513Y1890D01*
X1539Y1911D01*
X1560Y1937D01*
X1572Y1967D01*
X1575Y1987D01*
D02*
G37*
G36*
X1437D02*
X1325D01*
X1328Y1967D01*
X1340Y1937D01*
X1361Y1911D01*
X1387Y1890D01*
X1417Y1878D01*
X1437Y1875D01*
Y1987D01*
D02*
G37*
G36*
X2686Y1834D02*
X2667Y1831D01*
X2649Y1824D01*
X2634Y1812D01*
X2622Y1797D01*
X2615Y1779D01*
X2612Y1760D01*
X2615Y1741D01*
X2622Y1723D01*
X2634Y1708D01*
X2649Y1696D01*
X2667Y1689D01*
X2686Y1686D01*
X2705Y1689D01*
X2723Y1696D01*
X2738Y1708D01*
X2750Y1723D01*
X2757Y1741D01*
X2760Y1760D01*
X2757Y1779D01*
X2750Y1797D01*
X2738Y1812D01*
X2723Y1824D01*
X2705Y1831D01*
X2686Y1834D01*
D02*
G37*
G36*
X545Y1869D02*
X455D01*
X438Y1866D01*
X422Y1860D01*
X409Y1849D01*
X398Y1836D01*
X392Y1820D01*
X389Y1803D01*
Y1713D01*
X392Y1696D01*
X398Y1680D01*
X409Y1667D01*
X422Y1656D01*
X438Y1650D01*
X455Y1647D01*
X545D01*
X562Y1650D01*
X578Y1656D01*
X591Y1667D01*
X602Y1680D01*
X608Y1696D01*
X611Y1713D01*
Y1803D01*
X608Y1820D01*
X602Y1836D01*
X591Y1849D01*
X578Y1860D01*
X562Y1866D01*
X545Y1869D01*
D02*
G37*
G36*
X7680Y1530D02*
X7422D01*
Y1438D01*
X7680D01*
Y1530D01*
D02*
G37*
G36*
X500Y1615D02*
X471Y1611D01*
X445Y1600D01*
X422Y1582D01*
X404Y1559D01*
X393Y1533D01*
X389Y1504D01*
X393Y1475D01*
X402Y1453D01*
X297Y1347D01*
X289Y1337D01*
X287Y1324D01*
Y1252D01*
X285Y1251D01*
X270Y1240D01*
X259Y1225D01*
X252Y1208D01*
X249Y1190D01*
X252Y1172D01*
X259Y1155D01*
X270Y1140D01*
X285Y1129D01*
X302Y1122D01*
X320Y1119D01*
X338Y1122D01*
X355Y1129D01*
X370Y1140D01*
X381Y1155D01*
X388Y1172D01*
X388Y1174D01*
X415Y1181D01*
X422Y1172D01*
X445Y1154D01*
X471Y1143D01*
X500Y1139D01*
X529Y1143D01*
X555Y1154D01*
X578Y1172D01*
X596Y1195D01*
X607Y1221D01*
X611Y1250D01*
X607Y1279D01*
X596Y1305D01*
X578Y1328D01*
X555Y1346D01*
X529Y1357D01*
X500Y1361D01*
X471Y1357D01*
X445Y1346D01*
X422Y1328D01*
X404Y1305D01*
X393Y1279D01*
X391Y1266D01*
X366Y1254D01*
X353Y1264D01*
Y1310D01*
X449Y1406D01*
X471Y1397D01*
X500Y1393D01*
X529Y1397D01*
X555Y1408D01*
X578Y1426D01*
X596Y1449D01*
X607Y1475D01*
X611Y1504D01*
X607Y1533D01*
X596Y1559D01*
X578Y1582D01*
X555Y1600D01*
X529Y1611D01*
X500Y1615D01*
D02*
G37*
G36*
X7680Y1412D02*
X7422D01*
Y1320D01*
X7680D01*
Y1412D01*
D02*
G37*
G36*
X1000Y1880D02*
X967Y1876D01*
X937Y1863D01*
X911Y1843D01*
X891Y1817D01*
X878Y1787D01*
X874Y1754D01*
X878Y1721D01*
X891Y1691D01*
X911Y1665D01*
X937Y1645D01*
X947Y1641D01*
Y1613D01*
X937Y1609D01*
X911Y1589D01*
X891Y1563D01*
X878Y1533D01*
X874Y1500D01*
X878Y1467D01*
X891Y1437D01*
X911Y1411D01*
X937Y1391D01*
X947Y1387D01*
Y1359D01*
X937Y1355D01*
X911Y1335D01*
X891Y1309D01*
X878Y1279D01*
X874Y1246D01*
X878Y1213D01*
X891Y1183D01*
X911Y1157D01*
X937Y1137D01*
X967Y1124D01*
X1000Y1120D01*
X1033Y1124D01*
X1063Y1137D01*
X1089Y1157D01*
X1109Y1183D01*
X1122Y1213D01*
X1126Y1246D01*
X1122Y1279D01*
X1109Y1309D01*
X1089Y1335D01*
X1063Y1355D01*
X1053Y1359D01*
Y1387D01*
X1063Y1391D01*
X1089Y1411D01*
X1109Y1437D01*
X1122Y1467D01*
X1126Y1500D01*
X1122Y1533D01*
X1109Y1563D01*
X1089Y1589D01*
X1063Y1609D01*
X1053Y1613D01*
Y1641D01*
X1063Y1645D01*
X1089Y1665D01*
X1109Y1691D01*
X1122Y1721D01*
X1126Y1754D01*
X1122Y1787D01*
X1109Y1817D01*
X1089Y1843D01*
X1063Y1863D01*
X1033Y1876D01*
X1000Y1880D01*
D02*
G37*
G36*
X513Y1111D02*
Y1009D01*
X615D01*
X612Y1026D01*
X601Y1054D01*
X582Y1078D01*
X558Y1097D01*
X530Y1108D01*
X513Y1111D01*
D02*
G37*
G36*
X487D02*
X470Y1108D01*
X442Y1097D01*
X418Y1078D01*
X399Y1054D01*
X388Y1026D01*
X385Y1009D01*
X487D01*
Y1111D01*
D02*
G37*
G36*
X615Y983D02*
X513D01*
Y881D01*
X530Y884D01*
X558Y895D01*
X582Y914D01*
X601Y938D01*
X612Y966D01*
X615Y983D01*
D02*
G37*
G36*
X487D02*
X385D01*
X388Y966D01*
X399Y938D01*
X418Y914D01*
X442Y895D01*
X470Y884D01*
X487Y881D01*
Y983D01*
D02*
G37*
G36*
X4263Y1075D02*
Y863D01*
X4475D01*
X4472Y894D01*
X4459Y937D01*
X4438Y976D01*
X4410Y1010D01*
X4376Y1038D01*
X4337Y1059D01*
X4294Y1072D01*
X4263Y1075D01*
D02*
G37*
G36*
X4237Y1075D02*
X4206Y1072D01*
X4163Y1059D01*
X4124Y1038D01*
X4090Y1010D01*
X4062Y976D01*
X4041Y937D01*
X4028Y894D01*
X4025Y863D01*
X4237D01*
Y1075D01*
D02*
G37*
G36*
X1450Y971D02*
X1419Y967D01*
X1389Y955D01*
X1364Y936D01*
X1345Y911D01*
X1333Y881D01*
X1329Y850D01*
X1333Y819D01*
X1345Y789D01*
X1364Y764D01*
X1389Y745D01*
X1419Y733D01*
X1450Y729D01*
X1481Y733D01*
X1511Y745D01*
X1536Y764D01*
X1555Y789D01*
X1567Y819D01*
X1571Y850D01*
X1567Y881D01*
X1555Y911D01*
X1536Y936D01*
X1511Y955D01*
X1481Y967D01*
X1450Y971D01*
D02*
G37*
G36*
X500Y853D02*
X471Y849D01*
X445Y838D01*
X422Y820D01*
X404Y797D01*
X393Y771D01*
X389Y742D01*
X393Y713D01*
X404Y687D01*
X422Y664D01*
X445Y646D01*
X471Y635D01*
X500Y631D01*
X529Y635D01*
X555Y646D01*
X578Y664D01*
X596Y687D01*
X607Y713D01*
X611Y742D01*
X607Y771D01*
X596Y797D01*
X578Y820D01*
X555Y838D01*
X529Y849D01*
X500Y853D01*
D02*
G37*
G36*
X4237Y837D02*
X4025D01*
X4028Y806D01*
X4041Y763D01*
X4062Y724D01*
X4090Y690D01*
X4124Y662D01*
X4163Y641D01*
X4206Y628D01*
X4237Y625D01*
Y837D01*
D02*
G37*
G36*
X4475D02*
X4263D01*
Y625D01*
X4294Y628D01*
X4337Y641D01*
X4376Y662D01*
X4410Y690D01*
X4438Y724D01*
X4459Y763D01*
X4472Y806D01*
X4475Y837D01*
D02*
G37*
G36*
X7680Y680D02*
X7422D01*
Y588D01*
X7680D01*
Y680D01*
D02*
G37*
G36*
X3363Y635D02*
Y513D01*
X3485D01*
X3482Y535D01*
X3468Y568D01*
X3447Y597D01*
X3418Y618D01*
X3385Y632D01*
X3363Y635D01*
D02*
G37*
G36*
X3337D02*
X3315Y632D01*
X3282Y618D01*
X3253Y597D01*
X3232Y568D01*
X3218Y535D01*
X3215Y513D01*
X3337D01*
Y635D01*
D02*
G37*
G36*
X2663Y635D02*
Y513D01*
X2787D01*
X2784Y535D01*
X2771Y568D01*
X2749Y597D01*
X2721Y618D01*
X2688Y632D01*
X2663Y635D01*
D02*
G37*
G36*
X2637D02*
X2612Y632D01*
X2579Y618D01*
X2551Y597D01*
X2529Y568D01*
X2516Y535D01*
X2513Y513D01*
X2637D01*
Y635D01*
D02*
G37*
G36*
X7680Y562D02*
X7422D01*
Y470D01*
X7680D01*
Y562D01*
D02*
G37*
G36*
X3485Y487D02*
X3363D01*
Y365D01*
X3385Y368D01*
X3418Y382D01*
X3447Y403D01*
X3468Y432D01*
X3482Y465D01*
X3485Y487D01*
D02*
G37*
G36*
X3337D02*
X3215D01*
X3218Y465D01*
X3232Y432D01*
X3253Y403D01*
X3273Y389D01*
X3263Y365D01*
X3263Y365D01*
Y263D01*
X3365D01*
X3362Y280D01*
X3351Y308D01*
X3332Y332D01*
X3319Y342D01*
X3329Y366D01*
X3337Y365D01*
Y487D01*
D02*
G37*
G36*
X2637D02*
X2513D01*
X2516Y465D01*
X2529Y432D01*
X2551Y403D01*
X2579Y382D01*
X2612Y368D01*
X2637Y365D01*
Y487D01*
D02*
G37*
G36*
X3237Y365D02*
X3220Y362D01*
X3192Y351D01*
X3168Y332D01*
X3149Y308D01*
X3138Y280D01*
X3135Y263D01*
X3237D01*
Y365D01*
D02*
G37*
G36*
X3365Y237D02*
X3263D01*
Y135D01*
X3280Y138D01*
X3308Y149D01*
X3332Y168D01*
X3351Y192D01*
X3362Y220D01*
X3365Y237D01*
D02*
G37*
G36*
X3237D02*
X3135D01*
X3138Y220D01*
X3149Y192D01*
X3168Y168D01*
X3192Y149D01*
X3220Y138D01*
X3237Y135D01*
Y237D01*
D02*
G37*
%LPD*%
G36*
X3573Y2981D02*
X3572Y2978D01*
X3569Y2960D01*
X3572Y2942D01*
X3579Y2925D01*
X3590Y2910D01*
X3605Y2899D01*
X3607Y2898D01*
Y2735D01*
X3600Y2730D01*
X3589Y2715D01*
X3582Y2698D01*
X3579Y2680D01*
X3582Y2662D01*
X3584Y2656D01*
X3570Y2631D01*
X3043D01*
X3032Y2656D01*
X3284Y2907D01*
X3450D01*
X3463Y2909D01*
X3473Y2917D01*
X3552Y2995D01*
X3573Y2981D01*
D02*
G37*
D37*
X4250Y850D02*
D03*
Y3150D02*
D03*
D50*
X7693Y1425D02*
D03*
Y575D02*
D03*
Y2575D02*
D03*
Y3425D02*
D03*
D56*
X2810Y2300D02*
X3050Y2540D01*
X2330Y2300D02*
X2810D01*
X2240Y2390D02*
X2330Y2300D01*
X2310Y2630D02*
X2340Y2660D01*
X2830D02*
X3220Y3050D01*
X2340Y2660D02*
X2830D01*
X2840Y2770D02*
X3170Y3100D01*
X2390Y2770D02*
X2840D01*
X3490Y3190D02*
X3880D01*
X3400Y3100D02*
X3490Y3190D01*
X3170Y3100D02*
X3400D01*
X3510Y3140D02*
X3864D01*
X3420Y3050D02*
X3510Y3140D01*
X3220Y3050D02*
X3420D01*
X3535Y3095D02*
X3845D01*
X3440Y3000D02*
X3535Y3095D01*
X3250Y3000D02*
X3440D01*
X3560Y3050D02*
X3777D01*
X3450Y2940D02*
X3560Y3050D01*
X3270Y2940D02*
X3450D01*
X2830Y2580D02*
X3250Y3000D01*
X2820Y2490D02*
X3270Y2940D01*
X3970Y1650D02*
X4940D01*
X3910Y1710D02*
X3970Y1650D01*
X3980Y1540D02*
X5030D01*
X3540Y1980D02*
X3980Y1540D01*
X2245Y2530D02*
X2398Y2377D01*
X2788D01*
X3008Y2598D01*
X3611D01*
X2720Y2490D02*
X2820D01*
X2250Y2580D02*
X2830D01*
X3050Y2540D02*
X3420D01*
X3520Y2440D01*
X3524Y2433D02*
X3697Y2259D01*
X1920Y2010D02*
X2750D01*
X970Y2960D02*
X1920Y2010D01*
X990Y2710D02*
X1000D01*
X2750Y2010D02*
X2870Y1890D01*
X3000D01*
X500Y2242D02*
X532D01*
X320Y1190D02*
Y1324D01*
X500Y1504D01*
X2240Y2770D02*
X2390D01*
X2390Y2770D01*
X2190Y2640D02*
X2250Y2580D01*
X2310Y2662D02*
X2310Y2662D01*
X2090Y2550D02*
X2110Y2530D01*
X2245D01*
X3611Y2598D02*
X3613Y2600D01*
X3616Y2598D01*
X3684D01*
X3757Y2670D01*
X3780Y2250D02*
X4088D01*
X3697Y2083D02*
Y2259D01*
X3495Y2130D02*
Y2250D01*
Y2130D02*
X3522Y2102D01*
X3520Y2100D02*
X3522Y2102D01*
X3520Y2100D02*
X3910Y1710D01*
X3697Y2083D02*
X3750Y2030D01*
X3357Y1980D02*
X3540D01*
X3757Y2670D02*
X3910D01*
X4088Y2250D02*
X4598Y2760D01*
X2310Y2630D02*
Y2662D01*
X3880Y3190D02*
X4140Y2930D01*
Y2690D02*
Y2930D01*
X3864Y3140D02*
X4000Y3004D01*
Y2770D02*
Y3004D01*
X4010Y2720D02*
Y2750D01*
X3845Y3095D02*
X3940Y3000D01*
Y2920D02*
Y3000D01*
X3850Y2830D02*
X3940Y2920D01*
X3777Y3050D02*
X3845Y2982D01*
Y2970D02*
Y2982D01*
X3640Y2690D02*
Y2960D01*
Y2690D02*
X3650Y2680D01*
X4598Y2760D02*
X6550D01*
X6600Y2810D01*
Y3330D01*
X6480Y3450D02*
X6600Y3330D01*
X3327Y1950D02*
X3357Y1980D01*
X3220Y1950D02*
X3327D01*
D57*
X3120Y3620D02*
X3250Y3750D01*
X3120Y3370D02*
Y3620D01*
X2750Y250D02*
X3081Y581D01*
X532Y2242D02*
X1000Y2710D01*
X865Y2835D02*
X990Y2710D01*
X3375Y1245D02*
X3380Y1880D01*
D60*
X2686Y1760D02*
D03*
X3174D02*
D03*
D61*
X500Y2242D02*
D03*
Y2496D02*
D03*
Y3004D02*
D03*
Y2750D02*
D03*
X3250Y3750D02*
D03*
X2750D02*
D03*
X500Y1250D02*
D03*
Y1504D02*
D03*
Y996D02*
D03*
Y742D02*
D03*
X3250Y250D02*
D03*
X2750D02*
D03*
D62*
X500Y3258D02*
D03*
Y1758D02*
D03*
D63*
X3350Y3500D02*
D03*
X2650Y500D02*
D03*
D64*
X2650Y3500D02*
D03*
X3350Y500D02*
D03*
D65*
X1450Y850D02*
D03*
Y2000D02*
D03*
D66*
X1000Y1246D02*
D03*
Y1754D02*
D03*
Y1500D02*
D03*
D67*
X6710Y2040D02*
D03*
X6500D02*
D03*
X6300D02*
D03*
X3120Y3370D02*
D03*
X7350Y3650D02*
D03*
X7290Y660D02*
D03*
X2720Y2490D02*
D03*
X2970Y2330D02*
D03*
X3160Y2390D02*
D03*
X970Y2960D02*
D03*
Y3110D02*
D03*
X1000Y2710D02*
D03*
X2200Y2940D02*
D03*
X865Y2835D02*
D03*
X2570Y3100D02*
D03*
X3530Y2820D02*
D03*
X3000Y1890D02*
D03*
X320Y1190D02*
D03*
X2240Y2770D02*
D03*
X2190Y2640D02*
D03*
X2310Y2662D02*
D03*
X2240Y2390D02*
D03*
X2220Y2100D02*
D03*
X3780Y2380D02*
D03*
Y2250D02*
D03*
X3615Y2200D02*
D03*
X3750Y2030D02*
D03*
X3660Y2420D02*
D03*
X3495Y2250D02*
D03*
X3505Y1895D02*
D03*
X2090Y2550D02*
D03*
X4140Y2690D02*
D03*
X4010Y2750D02*
D03*
X3850Y2830D02*
D03*
X3845Y2970D02*
D03*
X3650Y2680D02*
D03*
X3640Y2960D02*
D03*
X3910Y2670D02*
D03*
X3580Y2510D02*
D03*
X3370Y3220D02*
D03*
X3220Y1950D02*
D03*
X7150Y3650D02*
D03*
X6950D02*
D03*
X7350Y3850D02*
D03*
X7150D02*
D03*
X6950D02*
D03*
X6750D02*
D03*
X6550D02*
D03*
X6350D02*
D03*
X6150D02*
D03*
X5950D02*
D03*
X5750D02*
D03*
X5550D02*
D03*
X5350D02*
D03*
X5150D02*
D03*
X4950D02*
D03*
X5300Y750D02*
D03*
X5150D02*
D03*
X7500Y3600D02*
D03*
X7350Y3500D02*
D03*
Y3350D02*
D03*
X7800Y3200D02*
D03*
X7650D02*
D03*
X7500D02*
D03*
X7350D02*
D03*
X7200D02*
D03*
X7050Y3300D02*
D03*
X7850Y2400D02*
D03*
X7700D02*
D03*
X7550D02*
D03*
X7400D02*
D03*
X7800Y2800D02*
D03*
X7650D02*
D03*
X7200Y2850D02*
D03*
X7500Y2800D02*
D03*
X7350D02*
D03*
X7250Y2750D02*
D03*
Y2600D02*
D03*
Y2450D02*
D03*
Y2300D02*
D03*
Y2150D02*
D03*
X7100D02*
D03*
X6950D02*
D03*
X6300Y2250D02*
D03*
Y2450D02*
D03*
Y2650D02*
D03*
X6000Y1000D02*
D03*
X5900Y900D02*
D03*
Y1050D02*
D03*
Y1200D02*
D03*
Y1350D02*
D03*
Y1500D02*
D03*
Y1650D02*
D03*
Y1800D02*
D03*
X6480Y2450D02*
D03*
X6900Y3450D02*
D03*
Y3250D02*
D03*
Y3050D02*
D03*
Y2850D02*
D03*
Y2650D02*
D03*
X7290Y520D02*
D03*
X7400Y400D02*
D03*
Y750D02*
D03*
X7550D02*
D03*
Y400D02*
D03*
X7850Y750D02*
D03*
X7700D02*
D03*
X7400Y1250D02*
D03*
X7850D02*
D03*
X7700D02*
D03*
X7550D02*
D03*
X7300Y1350D02*
D03*
Y1500D02*
D03*
X7400Y1600D02*
D03*
X7550D02*
D03*
X7700D02*
D03*
X7850D02*
D03*
X7650Y1100D02*
D03*
X7450D02*
D03*
X7250D02*
D03*
X7050D02*
D03*
X6800D02*
D03*
X7650Y850D02*
D03*
X7450D02*
D03*
X7250D02*
D03*
X7050D02*
D03*
X6800D02*
D03*
X6600D02*
D03*
X6400D02*
D03*
X6390Y1170D02*
D03*
X6380Y1440D02*
D03*
X6020Y1100D02*
D03*
X6020Y880D02*
D03*
X6480Y3650D02*
D03*
X4990Y740D02*
D03*
X4730Y540D02*
D03*
X2210Y320D02*
D03*
X2210Y890D02*
D03*
X1723Y730D02*
D03*
X1780Y820D02*
D03*
X6490Y2250D02*
D03*
X6480Y2650D02*
D03*
X5060Y1760D02*
D03*
X4270Y1750D02*
D03*
X4520D02*
D03*
X4670D02*
D03*
X2390Y1880D02*
D03*
X1410Y1120D02*
D03*
X1670Y1210D02*
D03*
X2020Y1650D02*
D03*
X3375Y1245D02*
D03*
X3380Y1880D02*
D03*
X5030Y1540D02*
D03*
X4940Y1650D02*
D03*
X6480Y2850D02*
D03*
Y3050D02*
D03*
Y3250D02*
D03*
Y3450D02*
D03*
D68*
X250Y250D02*
D03*
Y3750D02*
D03*
X7750Y250D02*
D03*
Y3750D02*
D03*
D69*
X3081Y581D02*
Y1854D01*
Y1926D02*
Y2311D01*
Y1926D02*
X3083Y1924D01*
Y1856D02*
Y1924D01*
X3081Y1854D02*
X3083Y1856D01*
X3081Y2311D02*
X3160Y2390D01*
X4175Y2465D02*
X4760Y3050D01*
X4198Y2552D02*
X4896Y3250D01*
X3622Y2552D02*
X4198D01*
X3748Y2465D02*
X4175D01*
X3703Y2420D02*
X3748Y2465D01*
X3660Y2420D02*
X3703D01*
X3780Y2380D02*
X3820Y2420D01*
X4194D01*
X3580Y2510D02*
X3622Y2552D01*
X3910Y2670D02*
Y2700D01*
X4896Y3250D02*
X6480D01*
X4194Y2420D02*
X4604Y2830D01*
X6460D02*
X6480Y2850D01*
X4604Y2830D02*
X6460D01*
X4760Y3050D02*
X6480D01*
M02*
