M48
;Layer_Color=9474304
;FILE_FORMAT=4:2
METRIC,LZ
;TYPE=PLATED
T1F00S00C0.50
T2F00S00C0.66
T3F00S00C1.00
T4F00S00C1.20
T5F00S00C1.40
T6F00S00C3.20
%
T01
X0077Y00075
X00785
X00765Y00085
Y0011
X0077Y00125
X00785
Y0016
X0077
Y0024
X00785
X0078Y0028
X00765
Y0032
X0078
X0075
X00735
Y00335
Y0035
Y00365
Y00385
X00715
Y00365
X00695
Y00385
X00675
X00655
X00635
X00615
X00595
X00575
X00555
X00535
X00515
X00495
X00648Y00365
Y00345
Y00325
Y00305
Y00285
Y00265
X0063
Y00245
X00648
X00649Y00225
X0063
Y00204
X0065
X00671
X00695Y00215
X0071
X00725
Y0023
Y00245
Y0026
Y00275
X0072Y00285
X00735Y0028
X0075
X00755Y0024
X0074
X0069Y00265
Y00285
Y00305
Y00325
Y00345
X00705Y0033
X0072Y0032
X0075Y0036
X00755Y0016
X0074
X0073Y0015
Y00135
X0074Y00125
X00755
X00745Y0011
X00725
X00705
X0068
Y00085
X0066
X0064
X00639Y00117
X00638Y00144
X0059Y0015
Y00135
Y0012
Y00105
X006Y001
X00602Y0011
X00602Y00088
X0059Y0009
X0053Y00075
X00515
X00499Y00074
X00473Y00054
X00467Y00175
X00452
X00427
X00494Y00165
X00503Y00154
X00506Y00176
X0059Y0018
Y00165
X00705Y00085
X00725
X00745
X0074Y00075
X00755
X00729Y00066
Y00052
X0074Y0004
X00755
X00375Y00203
X00378Y00225
Y00238
X00366Y00242
X00365Y00268
X00391Y00267
X00401Y00275
X00414Y00269
X00385Y00283
X003845Y00297
X00364Y00296
X00353Y00282
X00358Y00251
X003615Y0022
X003495Y00225
X003505Y001895
X00338Y00188
X00322Y00195
X003Y00189
X00297Y00233
X00316Y00239
X00272Y00249
X00224Y00239
X00219Y00264
X00231Y002662
X00224Y00277
X0022Y00294
X00209Y00255
X00222Y0021
X00239Y00188
X00202Y00165
X00167Y00121
X00141Y00112
X00178Y00082
X001723Y00073
X00221Y00089
X00221Y00032
X003375Y001245
X00337Y00322
X00312Y00337
X00257Y0031
X00097Y00311
Y00296
X000865Y002835
X001Y00271
X00032Y00119
T02
X002686Y00176
X003174
T03
X0005Y000742
Y000996
Y00125
Y001504
Y001758
Y002242
Y002496
Y00275
Y003004
Y003258
X00145Y002
Y00085
X00275Y00025
X00325
Y00375
X00275
T04
X001Y001246
Y0015
Y001754
T05
X00265Y0005
X00335
X00335Y0035
X00265
T06
X00775Y00025
Y00375
X00425Y00315
Y00085
X00025Y00025
Y00375
M30
