G04*
G04 #@! TF.GenerationSoftware,Altium Limited,Altium Designer,18.1.1 (9)*
G04*
G04 Layer_Color=16711935*
%FSLAX42Y42*%
%MOMM*%
G71*
G01*
G75*
%ADD24R,5.10X1.80*%
G04:AMPARAMS|DCode=30|XSize=2mm|YSize=2mm|CornerRadius=0.55mm|HoleSize=0mm|Usage=FLASHONLY|Rotation=0.000|XOffset=0mm|YOffset=0mm|HoleType=Round|Shape=RoundedRectangle|*
%AMROUNDEDRECTD30*
21,1,2.00,0.90,0,0,0.0*
21,1,0.90,2.00,0,0,0.0*
1,1,1.10,0.45,-0.45*
1,1,1.10,-0.45,-0.45*
1,1,1.10,-0.45,0.45*
1,1,1.10,0.45,0.45*
%
%ADD30ROUNDEDRECTD30*%
%ADD31C,2.00*%
%ADD32C,1.45*%
%ADD33O,2.45X2.40*%
%ADD34C,2.40*%
G04:AMPARAMS|DCode=35|XSize=2mm|YSize=2mm|CornerRadius=0.55mm|HoleSize=0mm|Usage=FLASHONLY|Rotation=270.000|XOffset=0mm|YOffset=0mm|HoleType=Round|Shape=RoundedRectangle|*
%AMROUNDEDRECTD35*
21,1,2.00,0.90,0,0,270.0*
21,1,0.90,2.00,0,0,270.0*
1,1,1.10,-0.45,-0.45*
1,1,1.10,-0.45,0.45*
1,1,1.10,0.45,0.45*
1,1,1.10,0.45,-0.45*
%
%ADD35ROUNDEDRECTD35*%
%ADD36C,1.40*%
%ADD37C,2.20*%
%ADD38C,4.20*%
%ADD39C,2.30*%
%ADD40C,1.45*%
%ADD41C,1.05*%
%ADD42C,4.00*%
%ADD43C,1.20*%
D24*
X7693Y1425D02*
D03*
Y575D02*
D03*
Y2575D02*
D03*
Y3425D02*
D03*
D30*
X3568Y370D02*
D03*
D31*
X3822D02*
D03*
X4076D02*
D03*
X4330D02*
D03*
X4584D02*
D03*
X4838D02*
D03*
X5092D02*
D03*
X3250Y3750D02*
D03*
X2750D02*
D03*
X500Y2619D02*
D03*
Y3127D02*
D03*
Y2873D02*
D03*
Y1500D02*
D03*
Y1754D02*
D03*
Y1246D02*
D03*
Y992D02*
D03*
X3250Y250D02*
D03*
X2750D02*
D03*
D32*
X2690Y1760D02*
D03*
X3178D02*
D03*
D33*
X3350Y3500D02*
D03*
X2650Y500D02*
D03*
D34*
X2650Y3500D02*
D03*
X3350Y500D02*
D03*
D35*
X500Y3381D02*
D03*
Y2008D02*
D03*
D36*
X2300Y2420D02*
D03*
Y2220D02*
D03*
D37*
X1450Y850D02*
D03*
Y2000D02*
D03*
D38*
X4250Y850D02*
D03*
Y3150D02*
D03*
D39*
X1000Y1246D02*
D03*
Y1754D02*
D03*
Y1500D02*
D03*
D40*
X5400Y740D02*
D03*
X5080Y1970D02*
D03*
X5220Y740D02*
D03*
X4930Y1680D02*
D03*
X4670Y1750D02*
D03*
X5030Y1540D02*
D03*
X4880Y1430D02*
D03*
X5060Y1760D02*
D03*
X1240Y540D02*
D03*
X940Y760D02*
D03*
X2300Y710D02*
D03*
X2250Y3060D02*
D03*
X3550Y2580D02*
D03*
X3813Y2583D02*
D03*
X3780Y2380D02*
D03*
X3750Y2030D02*
D03*
X3340Y1850D02*
D03*
X3490Y2900D02*
D03*
X4000Y2920D02*
D03*
X3630Y3310D02*
D03*
X3780Y3310D02*
D03*
X3530Y2260D02*
D03*
X3030Y2610D02*
D03*
X1910Y2470D02*
D03*
X6900Y2050D02*
D03*
X6700D02*
D03*
X6500D02*
D03*
X6300D02*
D03*
X6050Y750D02*
D03*
X6200D02*
D03*
X5900D02*
D03*
X7300Y650D02*
D03*
X7150Y3650D02*
D03*
X6950D02*
D03*
X7350Y3850D02*
D03*
X7150D02*
D03*
X6950D02*
D03*
X6750D02*
D03*
X6550D02*
D03*
X6350D02*
D03*
X6150D02*
D03*
X5950D02*
D03*
X5750D02*
D03*
X5550D02*
D03*
X5350D02*
D03*
X5150D02*
D03*
X4950D02*
D03*
X7500Y3600D02*
D03*
X7350Y3500D02*
D03*
Y3350D02*
D03*
X7800Y3200D02*
D03*
X7650D02*
D03*
X7500D02*
D03*
X7350D02*
D03*
X7200D02*
D03*
X7060Y3310D02*
D03*
X7850Y2400D02*
D03*
X7700D02*
D03*
X7550D02*
D03*
X7400D02*
D03*
X7800Y2800D02*
D03*
X7650D02*
D03*
X7200Y2850D02*
D03*
X7500Y2800D02*
D03*
X7350D02*
D03*
X7250Y2750D02*
D03*
Y2600D02*
D03*
Y2450D02*
D03*
Y2300D02*
D03*
Y2150D02*
D03*
X7100D02*
D03*
X6950D02*
D03*
X6300Y2250D02*
D03*
Y2450D02*
D03*
Y2650D02*
D03*
X6000Y1000D02*
D03*
X5900Y900D02*
D03*
Y1050D02*
D03*
Y1200D02*
D03*
Y1350D02*
D03*
Y1500D02*
D03*
Y1650D02*
D03*
Y1800D02*
D03*
X6450Y2450D02*
D03*
X7300Y500D02*
D03*
X7400Y400D02*
D03*
Y750D02*
D03*
X7550D02*
D03*
Y400D02*
D03*
X7850Y750D02*
D03*
X7700D02*
D03*
X7400Y1250D02*
D03*
X7850D02*
D03*
X7700D02*
D03*
X7550D02*
D03*
X7300Y1350D02*
D03*
Y1500D02*
D03*
X7400Y1600D02*
D03*
X7550D02*
D03*
X7700D02*
D03*
X7850D02*
D03*
X7650Y850D02*
D03*
X7450D02*
D03*
X7250D02*
D03*
X7050D02*
D03*
X6800D02*
D03*
X6600D02*
D03*
X6400D02*
D03*
X6380Y1440D02*
D03*
X3860Y3000D02*
D03*
X970Y3110D02*
D03*
X6020Y1100D02*
D03*
X6020Y880D02*
D03*
X6480Y3650D02*
D03*
X4990Y740D02*
D03*
X4730Y540D02*
D03*
X3360Y860D02*
D03*
X1900Y2130D02*
D03*
X1530Y2320D02*
D03*
X6490Y2250D02*
D03*
X6480Y2650D02*
D03*
X4270Y1750D02*
D03*
X4520D02*
D03*
X3690Y2500D02*
D03*
X2700Y2600D02*
D03*
X3120Y1960D02*
D03*
X3505Y1895D02*
D03*
X2390Y1880D02*
D03*
X1410Y1120D02*
D03*
X2020Y1650D02*
D03*
X960Y2700D02*
D03*
X720Y2460D02*
D03*
X840Y2800D02*
D03*
X3375Y1245D02*
D03*
X3130Y2390D02*
D03*
X2990Y2780D02*
D03*
X3310Y2975D02*
D03*
X3630Y3050D02*
D03*
X3660Y3640D02*
D03*
X6480Y2850D02*
D03*
Y3050D02*
D03*
Y3250D02*
D03*
Y3450D02*
D03*
X3120Y1540D02*
D03*
D41*
X5200Y3260D02*
D03*
Y2680D02*
D03*
X2710Y3306D02*
D03*
X2610Y3170D02*
D03*
X2070Y3400D02*
D03*
X1908Y3625D02*
D03*
X1600Y3770D02*
D03*
X2370Y3400D02*
D03*
D42*
X250Y250D02*
D03*
Y3750D02*
D03*
X7750Y250D02*
D03*
Y3750D02*
D03*
D43*
X6900Y3450D02*
D03*
Y3250D02*
D03*
Y3050D02*
D03*
Y2850D02*
D03*
Y2650D02*
D03*
X7650Y1100D02*
D03*
X7450D02*
D03*
X7250D02*
D03*
X7050D02*
D03*
X6800Y1110D02*
D03*
M02*
