G04*
G04 #@! TF.GenerationSoftware,Altium Limited,Altium Designer,18.1.1 (9)*
G04*
G04 Layer_Physical_Order=2*
G04 Layer_Color=16711680*
%FSLAX42Y42*%
%MOMM*%
G71*
G01*
G75*
%ADD42C,4.00*%
%ADD43C,1.20*%
%ADD58R,4.90X1.60*%
%ADD64C,0.25*%
%ADD65C,0.50*%
G04:AMPARAMS|DCode=69|XSize=1.8mm|YSize=1.8mm|CornerRadius=0.45mm|HoleSize=0mm|Usage=FLASHONLY|Rotation=0.000|XOffset=0mm|YOffset=0mm|HoleType=Round|Shape=RoundedRectangle|*
%AMROUNDEDRECTD69*
21,1,1.80,0.90,0,0,0.0*
21,1,0.90,1.80,0,0,0.0*
1,1,0.90,0.45,-0.45*
1,1,0.90,-0.45,-0.45*
1,1,0.90,-0.45,0.45*
1,1,0.90,0.45,0.45*
%
%ADD69ROUNDEDRECTD69*%
%ADD70C,1.80*%
%ADD71C,1.25*%
%ADD72O,2.25X2.20*%
%ADD73C,2.20*%
G04:AMPARAMS|DCode=74|XSize=1.8mm|YSize=1.8mm|CornerRadius=0.45mm|HoleSize=0mm|Usage=FLASHONLY|Rotation=270.000|XOffset=0mm|YOffset=0mm|HoleType=Round|Shape=RoundedRectangle|*
%AMROUNDEDRECTD74*
21,1,1.80,0.90,0,0,270.0*
21,1,0.90,1.80,0,0,270.0*
1,1,0.90,-0.45,-0.45*
1,1,0.90,-0.45,0.45*
1,1,0.90,0.45,0.45*
1,1,0.90,0.45,-0.45*
%
%ADD74ROUNDEDRECTD74*%
%ADD75C,2.00*%
%ADD76C,2.10*%
%ADD77C,3.80*%
%ADD78C,1.00*%
%ADD79C,0.25*%
G36*
X3603Y2953D02*
X3833Y2723D01*
X3845Y2714D01*
X3860Y2711D01*
X4524D01*
X4539Y2714D01*
X4552Y2723D01*
X4620Y2791D01*
X5179D01*
X5181Y2766D01*
X5177Y2766D01*
X5156Y2757D01*
X5137Y2743D01*
X5123Y2724D01*
X5114Y2703D01*
X5111Y2680D01*
X5114Y2657D01*
X5123Y2636D01*
X5137Y2617D01*
X5156Y2603D01*
X5161Y2601D01*
Y1456D01*
X4493Y787D01*
X4471Y801D01*
X4472Y806D01*
X4476Y850D01*
X4472Y894D01*
X4459Y937D01*
X4438Y976D01*
X4410Y1010D01*
X4376Y1038D01*
X4337Y1059D01*
X4294Y1072D01*
X4250Y1076D01*
X4206Y1072D01*
X4163Y1059D01*
X4124Y1038D01*
X4090Y1010D01*
X4062Y976D01*
X4041Y937D01*
X4028Y894D01*
X4024Y850D01*
X4028Y806D01*
X4041Y763D01*
X4062Y724D01*
X4090Y690D01*
X4124Y662D01*
X4163Y641D01*
X4206Y628D01*
X4250Y624D01*
X4294Y628D01*
X4299Y629D01*
X4313Y607D01*
X4158Y453D01*
X4134Y471D01*
X4106Y482D01*
X4076Y486D01*
X4046Y482D01*
X4018Y471D01*
X3994Y452D01*
X3975Y428D01*
X3964Y400D01*
X3962Y385D01*
X3936D01*
X3934Y400D01*
X3923Y428D01*
X3904Y452D01*
X3880Y471D01*
X3852Y482D01*
X3822Y486D01*
X3792Y482D01*
X3764Y471D01*
X3740Y452D01*
X3721Y428D01*
X3710Y400D01*
X3709Y396D01*
X3684Y397D01*
Y415D01*
X3682Y433D01*
X3674Y451D01*
X3663Y465D01*
X3649Y476D01*
X3631Y484D01*
X3613Y486D01*
X3523D01*
X3510Y484D01*
X3492Y496D01*
X3486Y503D01*
X3482Y535D01*
X3468Y568D01*
X3447Y597D01*
X3418Y618D01*
X3385Y632D01*
X3350Y637D01*
X3315Y632D01*
X3282Y618D01*
X3253Y597D01*
X3232Y568D01*
X3218Y535D01*
X3213Y500D01*
X3218Y465D01*
X3232Y432D01*
X3253Y403D01*
X3273Y389D01*
X3263Y365D01*
X3263Y365D01*
Y250D01*
X3250D01*
Y237D01*
X3135D01*
X3138Y220D01*
X3149Y192D01*
X3155Y184D01*
X3143Y159D01*
X2857D01*
X2845Y184D01*
X2851Y192D01*
X2862Y220D01*
X2866Y250D01*
X2862Y280D01*
X2854Y299D01*
X2907Y353D01*
X2916Y365D01*
X2919Y380D01*
Y2589D01*
X2944Y2591D01*
X2944Y2587D01*
X2953Y2566D01*
X2967Y2547D01*
X2986Y2533D01*
X3007Y2524D01*
X3030Y2521D01*
X3053Y2524D01*
X3069Y2531D01*
X3101Y2499D01*
X3094Y2470D01*
X3086Y2467D01*
X3067Y2453D01*
X3053Y2434D01*
X3044Y2413D01*
X3041Y2390D01*
X3044Y2367D01*
X3047Y2362D01*
X2973Y2287D01*
X2964Y2275D01*
X2961Y2260D01*
Y1660D01*
X2964Y1645D01*
X2973Y1633D01*
X3037Y1568D01*
X3034Y1563D01*
X3031Y1540D01*
X3034Y1517D01*
X3043Y1496D01*
X3057Y1477D01*
X3076Y1463D01*
X3097Y1454D01*
X3120Y1451D01*
X3143Y1454D01*
X3164Y1463D01*
X3183Y1477D01*
X3197Y1496D01*
X3206Y1517D01*
X3209Y1540D01*
X3206Y1563D01*
X3197Y1584D01*
X3183Y1603D01*
X3164Y1617D01*
X3143Y1626D01*
X3120Y1629D01*
X3097Y1626D01*
X3092Y1623D01*
X3039Y1676D01*
Y2244D01*
X3102Y2307D01*
X3107Y2304D01*
X3130Y2301D01*
X3153Y2304D01*
X3174Y2313D01*
X3193Y2327D01*
X3207Y2346D01*
X3209Y2351D01*
X3238Y2357D01*
X3593Y2003D01*
X3605Y1994D01*
X3620Y1991D01*
X3671D01*
X3673Y1986D01*
X3687Y1967D01*
X3706Y1953D01*
X3727Y1944D01*
X3750Y1941D01*
X3773Y1944D01*
X3794Y1953D01*
X3813Y1967D01*
X3827Y1986D01*
X3836Y2007D01*
X3839Y2030D01*
X3836Y2053D01*
X3827Y2074D01*
X3813Y2093D01*
X3794Y2107D01*
X3773Y2116D01*
X3750Y2119D01*
X3727Y2116D01*
X3706Y2107D01*
X3687Y2093D01*
X3673Y2074D01*
X3671Y2069D01*
X3636D01*
X3261Y2444D01*
X3261Y2444D01*
X3253Y2457D01*
X3116Y2593D01*
X3119Y2610D01*
X3116Y2633D01*
X3107Y2654D01*
X3127Y2668D01*
X3133Y2663D01*
X3145Y2654D01*
X3160Y2651D01*
X3462D01*
X3475Y2626D01*
X3473Y2624D01*
X3464Y2603D01*
X3461Y2580D01*
X3464Y2557D01*
X3473Y2536D01*
X3487Y2517D01*
X3506Y2503D01*
X3511Y2501D01*
Y2390D01*
X3514Y2375D01*
X3523Y2363D01*
X3673Y2213D01*
X3673Y2213D01*
X3685Y2204D01*
X3700Y2201D01*
X4304D01*
X4741Y1764D01*
Y1530D01*
X4744Y1515D01*
X4753Y1503D01*
X4797Y1459D01*
X4794Y1453D01*
X4791Y1430D01*
X4794Y1407D01*
X4803Y1386D01*
X4817Y1367D01*
X4836Y1353D01*
X4857Y1344D01*
X4880Y1341D01*
X4903Y1344D01*
X4924Y1353D01*
X4943Y1367D01*
X4957Y1386D01*
X4966Y1407D01*
X4969Y1430D01*
X4966Y1446D01*
X4981Y1459D01*
X4989Y1462D01*
X5007Y1454D01*
X5030Y1451D01*
X5053Y1454D01*
X5074Y1463D01*
X5093Y1477D01*
X5107Y1496D01*
X5116Y1517D01*
X5119Y1540D01*
X5116Y1563D01*
X5107Y1584D01*
X5093Y1603D01*
X5074Y1617D01*
X5053Y1626D01*
X5030Y1629D01*
X5013Y1652D01*
X5016Y1657D01*
X5019Y1680D01*
X5016Y1703D01*
X5007Y1724D01*
X4993Y1743D01*
X4974Y1757D01*
X4969Y1759D01*
Y1865D01*
X4976Y1875D01*
X4979Y1890D01*
X4976Y1905D01*
X4967Y1917D01*
X4457Y2427D01*
X4445Y2436D01*
X4430Y2439D01*
X3846D01*
X3843Y2443D01*
X3824Y2457D01*
X3803Y2466D01*
X3798Y2466D01*
X3798Y2466D01*
X3797Y2471D01*
X3810Y2490D01*
X3816Y2494D01*
X3836Y2497D01*
X3857Y2506D01*
X3875Y2520D01*
X3889Y2538D01*
X3898Y2560D01*
X3901Y2583D01*
X3898Y2605D01*
X3889Y2627D01*
X3875Y2645D01*
X3857Y2659D01*
X3836Y2668D01*
X3813Y2671D01*
X3790Y2668D01*
X3768Y2659D01*
X3767Y2658D01*
X3707Y2717D01*
X3695Y2726D01*
X3680Y2729D01*
X3176D01*
X3097Y2807D01*
X3085Y2816D01*
X3070Y2819D01*
X3069D01*
X3067Y2824D01*
X3053Y2843D01*
X3034Y2857D01*
X3013Y2866D01*
X2990Y2869D01*
X2989Y2868D01*
X2977Y2892D01*
X3021Y2936D01*
X3231D01*
X3233Y2931D01*
X3247Y2912D01*
X3266Y2898D01*
X3287Y2889D01*
X3310Y2886D01*
X3333Y2889D01*
X3354Y2898D01*
X3373Y2912D01*
X3379Y2920D01*
X3403Y2910D01*
X3401Y2900D01*
X3404Y2877D01*
X3413Y2856D01*
X3427Y2837D01*
X3446Y2823D01*
X3467Y2814D01*
X3490Y2811D01*
X3513Y2814D01*
X3534Y2823D01*
X3553Y2837D01*
X3567Y2856D01*
X3576Y2877D01*
X3579Y2900D01*
X3576Y2923D01*
X3567Y2944D01*
X3572Y2958D01*
X3598Y2959D01*
X3603Y2953D01*
D02*
G37*
G36*
X7964Y3555D02*
X7963Y3530D01*
X7939Y3530D01*
X7705D01*
Y3425D01*
Y3320D01*
X7939D01*
X7963Y3320D01*
X7964Y3295D01*
Y2705D01*
X7963Y2680D01*
X7939Y2680D01*
X7705D01*
Y2575D01*
Y2470D01*
X7939D01*
X7963Y2470D01*
X7964Y2445D01*
Y1555D01*
X7963Y1530D01*
X7939Y1530D01*
X7705D01*
Y1425D01*
Y1320D01*
X7939D01*
X7963Y1320D01*
X7964Y1295D01*
Y705D01*
X7963Y680D01*
X7939Y680D01*
X7705D01*
Y575D01*
Y470D01*
X7939D01*
X7963Y470D01*
X7964Y445D01*
Y36D01*
X3756D01*
X3746Y61D01*
X3837Y153D01*
X3837Y153D01*
X3846Y165D01*
X3849Y180D01*
Y257D01*
X3852Y258D01*
X3880Y269D01*
X3904Y288D01*
X3923Y312D01*
X3934Y340D01*
X3936Y355D01*
X3962D01*
X3964Y340D01*
X3975Y312D01*
X3994Y288D01*
X4018Y269D01*
X4046Y258D01*
X4076Y254D01*
X4106Y258D01*
X4134Y269D01*
X4158Y288D01*
X4177Y312D01*
X4188Y340D01*
X4190Y355D01*
X4216D01*
X4218Y340D01*
X4229Y312D01*
X4248Y288D01*
X4272Y269D01*
X4300Y258D01*
X4330Y254D01*
X4360Y258D01*
X4388Y269D01*
X4412Y288D01*
X4431Y312D01*
X4442Y340D01*
X4444Y355D01*
X4470D01*
X4472Y340D01*
X4483Y312D01*
X4502Y288D01*
X4526Y269D01*
X4554Y258D01*
X4584Y254D01*
X4614Y258D01*
X4642Y269D01*
X4666Y288D01*
X4685Y312D01*
X4696Y340D01*
X4698Y355D01*
X4724D01*
X4726Y340D01*
X4737Y312D01*
X4756Y288D01*
X4780Y269D01*
X4808Y258D01*
X4825Y255D01*
Y370D01*
Y485D01*
X4808Y482D01*
X4780Y471D01*
X4756Y452D01*
X4737Y428D01*
X4726Y400D01*
X4724Y385D01*
X4698D01*
X4696Y400D01*
X4685Y428D01*
X4666Y452D01*
X4642Y471D01*
X4614Y482D01*
X4584Y486D01*
X4554Y482D01*
X4526Y471D01*
X4504Y454D01*
X4488Y473D01*
X5377Y1363D01*
X5377Y1363D01*
X5386Y1375D01*
X5389Y1390D01*
Y2791D01*
X6414D01*
X6417Y2787D01*
X6436Y2773D01*
X6457Y2764D01*
X6480Y2761D01*
X6503Y2764D01*
X6524Y2773D01*
X6543Y2787D01*
X6557Y2806D01*
X6566Y2827D01*
X6569Y2850D01*
X6566Y2873D01*
X6557Y2894D01*
X6543Y2913D01*
X6524Y2927D01*
X6503Y2936D01*
X6490Y2937D01*
Y2963D01*
X6503Y2964D01*
X6524Y2973D01*
X6543Y2987D01*
X6557Y3006D01*
X6566Y3027D01*
X6569Y3050D01*
X6566Y3073D01*
X6557Y3094D01*
X6543Y3113D01*
X6524Y3127D01*
X6503Y3136D01*
X6490Y3137D01*
Y3163D01*
X6503Y3164D01*
X6524Y3173D01*
X6543Y3187D01*
X6557Y3206D01*
X6566Y3227D01*
X6569Y3250D01*
X6566Y3273D01*
X6557Y3294D01*
X6543Y3313D01*
X6524Y3327D01*
X6503Y3336D01*
X6490Y3337D01*
Y3363D01*
X6503Y3364D01*
X6524Y3373D01*
X6543Y3387D01*
X6557Y3406D01*
X6566Y3427D01*
X6569Y3450D01*
X6566Y3473D01*
X6557Y3494D01*
X6543Y3513D01*
X6524Y3527D01*
X6503Y3536D01*
X6480Y3539D01*
X6457Y3536D01*
X6436Y3527D01*
X6417Y3513D01*
X6403Y3494D01*
X6401Y3489D01*
X4050D01*
X4035Y3486D01*
X4023Y3477D01*
X3888Y3343D01*
X3859Y3349D01*
X3857Y3354D01*
X3843Y3373D01*
X3824Y3387D01*
X3803Y3396D01*
X3780Y3399D01*
X3757Y3396D01*
X3736Y3387D01*
X3724Y3378D01*
X3702Y3386D01*
X3699Y3389D01*
Y3561D01*
X3704Y3563D01*
X3723Y3577D01*
X3737Y3596D01*
X3746Y3617D01*
X3749Y3640D01*
X3746Y3663D01*
X3737Y3684D01*
X3723Y3703D01*
X3704Y3717D01*
X3683Y3726D01*
X3660Y3729D01*
X3637Y3726D01*
X3616Y3717D01*
X3597Y3703D01*
X3583Y3684D01*
X3574Y3663D01*
X3571Y3640D01*
X3572Y3636D01*
X3548Y3627D01*
X3547Y3627D01*
X3397Y3777D01*
X3385Y3786D01*
X3370Y3789D01*
X3359D01*
X3351Y3808D01*
X3332Y3832D01*
X3308Y3851D01*
X3280Y3862D01*
X3250Y3866D01*
X3220Y3862D01*
X3192Y3851D01*
X3168Y3832D01*
X3149Y3808D01*
X3138Y3780D01*
X3134Y3750D01*
X3138Y3720D01*
X3149Y3692D01*
X3168Y3668D01*
X3192Y3649D01*
X3220Y3638D01*
X3250Y3634D01*
X3260Y3635D01*
X3270Y3611D01*
X3251Y3597D01*
X3229Y3568D01*
X3216Y3535D01*
X3211Y3500D01*
X3216Y3465D01*
X3229Y3432D01*
X3251Y3403D01*
X3279Y3382D01*
X3312Y3368D01*
X3347Y3363D01*
X3353D01*
X3388Y3368D01*
X3421Y3382D01*
X3449Y3403D01*
X3456Y3413D01*
X3481Y3404D01*
Y2987D01*
X3467Y2986D01*
X3446Y2977D01*
X3427Y2963D01*
X3421Y2955D01*
X3397Y2965D01*
X3399Y2975D01*
X3396Y2998D01*
X3387Y3019D01*
X3373Y3038D01*
X3354Y3052D01*
X3333Y3061D01*
X3310Y3064D01*
X3287Y3061D01*
X3266Y3052D01*
X3247Y3038D01*
X3233Y3019D01*
X3231Y3014D01*
X3005D01*
X2990Y3011D01*
X2978Y3002D01*
X2853Y2877D01*
X2844Y2865D01*
X2841Y2850D01*
Y396D01*
X2799Y354D01*
X2780Y362D01*
X2750Y366D01*
X2740Y365D01*
X2730Y389D01*
X2749Y403D01*
X2771Y432D01*
X2784Y465D01*
X2789Y500D01*
X2784Y535D01*
X2771Y568D01*
X2749Y597D01*
X2721Y618D01*
X2688Y632D01*
X2652Y637D01*
X2648D01*
X2612Y632D01*
X2579Y618D01*
X2564Y606D01*
X2539Y619D01*
Y1564D01*
X2587Y1613D01*
X2587Y1613D01*
X2596Y1625D01*
X2599Y1640D01*
X2599Y1640D01*
Y1694D01*
X2624Y1702D01*
X2627Y1697D01*
X2646Y1683D01*
X2667Y1674D01*
X2690Y1671D01*
X2713Y1674D01*
X2734Y1683D01*
X2753Y1697D01*
X2767Y1716D01*
X2776Y1737D01*
X2779Y1760D01*
X2776Y1783D01*
X2767Y1804D01*
X2753Y1823D01*
X2734Y1837D01*
X2713Y1846D01*
X2690Y1849D01*
X2667Y1846D01*
X2646Y1837D01*
X2627Y1823D01*
X2624Y1818D01*
X2599Y1826D01*
Y3072D01*
X2610Y3082D01*
X2633Y3085D01*
X2654Y3093D01*
X2673Y3108D01*
X2687Y3126D01*
X2696Y3147D01*
X2699Y3170D01*
X2696Y3193D01*
X2695Y3194D01*
X2709Y3216D01*
X2712Y3218D01*
X2733Y3221D01*
X2754Y3230D01*
X2773Y3244D01*
X2787Y3262D01*
X2796Y3283D01*
X2799Y3306D01*
X2796Y3329D01*
X2787Y3351D01*
X2773Y3369D01*
X2758Y3381D01*
X2754Y3388D01*
X2754Y3389D01*
X2752Y3411D01*
X2768Y3432D01*
X2782Y3465D01*
X2787Y3500D01*
X2782Y3535D01*
X2768Y3568D01*
X2747Y3597D01*
X2727Y3611D01*
X2737Y3635D01*
X2737Y3635D01*
Y3737D01*
X2635D01*
X2638Y3720D01*
X2649Y3692D01*
X2668Y3668D01*
X2681Y3658D01*
X2671Y3634D01*
X2650Y3637D01*
X2615Y3632D01*
X2582Y3618D01*
X2553Y3597D01*
X2532Y3568D01*
X2518Y3535D01*
X2513Y3500D01*
X2518Y3465D01*
X2532Y3432D01*
X2553Y3403D01*
X2582Y3382D01*
X2592Y3377D01*
X2594Y3350D01*
X2586Y3345D01*
X2572Y3342D01*
X2559Y3334D01*
X2559Y3334D01*
X2463Y3237D01*
X2454Y3225D01*
X2451Y3210D01*
Y1746D01*
X2403Y1697D01*
X2394Y1685D01*
X2391Y1670D01*
Y230D01*
X2394Y215D01*
X2403Y203D01*
X2544Y61D01*
X2534Y36D01*
X36D01*
Y3964D01*
X7964D01*
Y3555D01*
D02*
G37*
%LPC*%
G36*
X3340Y1939D02*
X3317Y1936D01*
X3296Y1927D01*
X3277Y1913D01*
X3263Y1894D01*
X3254Y1873D01*
X3251Y1850D01*
X3252Y1846D01*
X3228Y1832D01*
X3222Y1837D01*
X3201Y1846D01*
X3178Y1849D01*
X3155Y1846D01*
X3134Y1837D01*
X3115Y1823D01*
X3101Y1804D01*
X3092Y1783D01*
X3089Y1760D01*
X3092Y1737D01*
X3101Y1716D01*
X3115Y1697D01*
X3134Y1683D01*
X3155Y1674D01*
X3178Y1671D01*
X3201Y1674D01*
X3222Y1683D01*
X3241Y1697D01*
X3255Y1716D01*
X3264Y1737D01*
X3289Y1735D01*
Y1280D01*
X3290Y1271D01*
X3289Y1268D01*
X3286Y1245D01*
X3289Y1222D01*
X3298Y1201D01*
X3312Y1182D01*
X3331Y1168D01*
X3352Y1159D01*
X3375Y1156D01*
X3398Y1159D01*
X3419Y1168D01*
X3438Y1182D01*
X3452Y1201D01*
X3461Y1222D01*
X3464Y1245D01*
X3461Y1268D01*
X3452Y1289D01*
X3438Y1308D01*
X3419Y1322D01*
X3398Y1331D01*
X3391Y1332D01*
Y1779D01*
X3403Y1787D01*
X3417Y1806D01*
X3426Y1827D01*
X3429Y1850D01*
X3426Y1873D01*
X3417Y1894D01*
X3403Y1913D01*
X3384Y1927D01*
X3363Y1936D01*
X3340Y1939D01*
D02*
G37*
G36*
X3237Y365D02*
X3220Y362D01*
X3192Y351D01*
X3168Y332D01*
X3149Y308D01*
X3138Y280D01*
X3135Y263D01*
X3237D01*
Y365D01*
D02*
G37*
G36*
X2763Y3865D02*
Y3763D01*
X2865D01*
X2862Y3780D01*
X2851Y3808D01*
X2832Y3832D01*
X2808Y3851D01*
X2780Y3862D01*
X2763Y3865D01*
D02*
G37*
G36*
X2737D02*
X2720Y3862D01*
X2692Y3851D01*
X2668Y3832D01*
X2649Y3808D01*
X2638Y3780D01*
X2635Y3763D01*
X2737D01*
Y3865D01*
D02*
G37*
G36*
X2865Y3737D02*
X2763D01*
Y3635D01*
X2780Y3638D01*
X2808Y3649D01*
X2832Y3668D01*
X2851Y3692D01*
X2862Y3720D01*
X2865Y3737D01*
D02*
G37*
G36*
X2370Y3489D02*
X2347Y3486D01*
X2326Y3477D01*
X2307Y3463D01*
X2293Y3444D01*
X2291Y3439D01*
X2149D01*
X2147Y3444D01*
X2133Y3463D01*
X2114Y3477D01*
X2093Y3486D01*
X2070Y3489D01*
X2047Y3486D01*
X2026Y3477D01*
X2007Y3463D01*
X1993Y3444D01*
X1984Y3423D01*
X1981Y3400D01*
X1984Y3377D01*
X1993Y3356D01*
X2007Y3337D01*
X2026Y3323D01*
X2047Y3314D01*
X2070Y3311D01*
X2093Y3314D01*
X2114Y3323D01*
X2133Y3337D01*
X2147Y3356D01*
X2149Y3361D01*
X2291D01*
X2293Y3356D01*
X2307Y3337D01*
X2326Y3323D01*
X2347Y3314D01*
X2370Y3311D01*
X2393Y3314D01*
X2414Y3323D01*
X2433Y3337D01*
X2447Y3356D01*
X2456Y3377D01*
X2459Y3400D01*
X2456Y3423D01*
X2447Y3444D01*
X2433Y3463D01*
X2414Y3477D01*
X2393Y3486D01*
X2370Y3489D01*
D02*
G37*
G36*
X7680Y3530D02*
X7422D01*
Y3438D01*
X7680D01*
Y3530D01*
D02*
G37*
G36*
Y3412D02*
X7422D01*
Y3320D01*
X7680D01*
Y3412D01*
D02*
G37*
G36*
X545Y3497D02*
X455D01*
X437Y3495D01*
X419Y3487D01*
X405Y3476D01*
X394Y3462D01*
X386Y3444D01*
X384Y3426D01*
Y3336D01*
X386Y3318D01*
X394Y3300D01*
X405Y3286D01*
X419Y3275D01*
X437Y3267D01*
X455Y3265D01*
X473D01*
X474Y3240D01*
X470Y3239D01*
X442Y3228D01*
X418Y3209D01*
X399Y3185D01*
X388Y3157D01*
X384Y3127D01*
X388Y3097D01*
X399Y3069D01*
X418Y3045D01*
X442Y3026D01*
X470Y3015D01*
X485Y3013D01*
Y2987D01*
X470Y2985D01*
X442Y2974D01*
X418Y2955D01*
X399Y2931D01*
X388Y2903D01*
X384Y2873D01*
X388Y2843D01*
X399Y2815D01*
X418Y2791D01*
X442Y2772D01*
X470Y2761D01*
X485Y2759D01*
Y2733D01*
X470Y2731D01*
X442Y2720D01*
X418Y2701D01*
X399Y2677D01*
X388Y2649D01*
X385Y2632D01*
X500D01*
X615D01*
X612Y2649D01*
X601Y2677D01*
X582Y2701D01*
X558Y2720D01*
X530Y2731D01*
X515Y2733D01*
Y2759D01*
X530Y2761D01*
X558Y2772D01*
X582Y2791D01*
X601Y2815D01*
X612Y2843D01*
X616Y2873D01*
X612Y2903D01*
X601Y2931D01*
X582Y2955D01*
X558Y2974D01*
X530Y2985D01*
X515Y2987D01*
Y3013D01*
X530Y3015D01*
X558Y3026D01*
X582Y3045D01*
X601Y3069D01*
X612Y3097D01*
X616Y3127D01*
X612Y3157D01*
X601Y3185D01*
X582Y3209D01*
X558Y3228D01*
X530Y3239D01*
X526Y3240D01*
X527Y3265D01*
X545D01*
X563Y3267D01*
X581Y3275D01*
X595Y3286D01*
X606Y3300D01*
X614Y3318D01*
X616Y3336D01*
Y3426D01*
X614Y3444D01*
X606Y3462D01*
X595Y3476D01*
X581Y3487D01*
X563Y3495D01*
X545Y3497D01*
D02*
G37*
G36*
X7680Y2680D02*
X7422D01*
Y2588D01*
X7680D01*
Y2680D01*
D02*
G37*
G36*
X840Y2889D02*
X817Y2886D01*
X796Y2877D01*
X777Y2863D01*
X763Y2844D01*
X754Y2823D01*
X751Y2800D01*
X754Y2777D01*
X763Y2756D01*
X777Y2737D01*
X796Y2723D01*
X801Y2721D01*
Y2539D01*
X797Y2535D01*
X776Y2528D01*
X764Y2537D01*
X743Y2546D01*
X720Y2549D01*
X697Y2546D01*
X676Y2537D01*
X657Y2523D01*
X643Y2504D01*
X634Y2483D01*
X632Y2469D01*
X400D01*
X385Y2466D01*
X373Y2457D01*
X133Y2217D01*
X124Y2205D01*
X121Y2190D01*
Y1130D01*
X124Y1115D01*
X133Y1103D01*
X271Y965D01*
X283Y956D01*
X298Y953D01*
X391D01*
X399Y934D01*
X418Y910D01*
X442Y891D01*
X470Y880D01*
X500Y876D01*
X530Y880D01*
X558Y891D01*
X582Y910D01*
X601Y934D01*
X612Y962D01*
X616Y992D01*
X612Y1022D01*
X601Y1050D01*
X582Y1074D01*
X558Y1093D01*
X530Y1104D01*
X515Y1106D01*
Y1132D01*
X530Y1134D01*
X558Y1145D01*
X582Y1164D01*
X601Y1188D01*
X612Y1216D01*
X615Y1233D01*
X500D01*
X385D01*
X388Y1216D01*
X399Y1188D01*
X418Y1164D01*
X442Y1145D01*
X470Y1134D01*
X485Y1132D01*
Y1106D01*
X470Y1104D01*
X442Y1093D01*
X418Y1074D01*
X399Y1050D01*
X391Y1031D01*
X314D01*
X199Y1146D01*
Y1504D01*
X220Y1511D01*
X224Y1512D01*
X263Y1473D01*
X263Y1473D01*
X275Y1464D01*
X290Y1461D01*
X391D01*
X399Y1442D01*
X418Y1418D01*
X442Y1399D01*
X470Y1388D01*
X485Y1386D01*
Y1360D01*
X470Y1358D01*
X442Y1347D01*
X418Y1328D01*
X399Y1304D01*
X388Y1276D01*
X385Y1259D01*
X500D01*
X615D01*
X612Y1276D01*
X601Y1304D01*
X582Y1328D01*
X558Y1347D01*
X530Y1358D01*
X515Y1360D01*
Y1386D01*
X530Y1388D01*
X558Y1399D01*
X582Y1418D01*
X601Y1442D01*
X612Y1470D01*
X616Y1500D01*
X612Y1530D01*
X601Y1558D01*
X582Y1582D01*
X558Y1601D01*
X530Y1612D01*
X515Y1614D01*
Y1640D01*
X530Y1642D01*
X558Y1653D01*
X582Y1672D01*
X601Y1696D01*
X612Y1724D01*
X616Y1754D01*
X612Y1784D01*
X601Y1812D01*
X582Y1836D01*
X558Y1855D01*
X530Y1866D01*
X526Y1867D01*
X527Y1892D01*
X545D01*
X563Y1894D01*
X581Y1902D01*
X595Y1913D01*
X606Y1927D01*
X614Y1945D01*
X616Y1963D01*
Y2053D01*
X614Y2071D01*
X606Y2089D01*
X595Y2103D01*
X581Y2114D01*
X563Y2122D01*
X545Y2124D01*
X455D01*
X437Y2122D01*
X419Y2114D01*
X405Y2103D01*
X404Y2102D01*
X379Y2110D01*
Y2144D01*
X496Y2261D01*
X800D01*
X815Y2264D01*
X827Y2273D01*
X987Y2433D01*
X996Y2445D01*
X999Y2460D01*
Y2621D01*
X1004Y2623D01*
X1023Y2637D01*
X1037Y2656D01*
X1046Y2677D01*
X1049Y2700D01*
X1046Y2723D01*
X1037Y2744D01*
X1023Y2763D01*
X1004Y2777D01*
X983Y2786D01*
X960Y2789D01*
X952Y2788D01*
X932Y2798D01*
X928Y2809D01*
X926Y2823D01*
X917Y2844D01*
X903Y2863D01*
X884Y2877D01*
X863Y2886D01*
X840Y2889D01*
D02*
G37*
G36*
X615Y2606D02*
X513D01*
Y2504D01*
X530Y2507D01*
X558Y2518D01*
X582Y2537D01*
X601Y2561D01*
X612Y2589D01*
X615Y2606D01*
D02*
G37*
G36*
X487D02*
X385D01*
X388Y2589D01*
X399Y2561D01*
X418Y2537D01*
X442Y2518D01*
X470Y2507D01*
X487Y2504D01*
Y2606D01*
D02*
G37*
G36*
X7680Y2562D02*
X7422D01*
Y2470D01*
X7680D01*
Y2562D01*
D02*
G37*
G36*
X2300Y2506D02*
X2278Y2503D01*
X2257Y2495D01*
X2239Y2481D01*
X2225Y2463D01*
X2217Y2442D01*
X2214Y2420D01*
X2217Y2398D01*
X2225Y2377D01*
X2239Y2359D01*
X2257Y2345D01*
X2278Y2337D01*
X2300Y2334D01*
X2322Y2337D01*
X2343Y2345D01*
X2361Y2359D01*
X2375Y2377D01*
X2383Y2398D01*
X2386Y2420D01*
X2383Y2442D01*
X2375Y2463D01*
X2361Y2481D01*
X2343Y2495D01*
X2322Y2503D01*
X2300Y2506D01*
D02*
G37*
G36*
X1530Y2409D02*
X1507Y2406D01*
X1486Y2397D01*
X1467Y2383D01*
X1453Y2364D01*
X1444Y2343D01*
X1441Y2320D01*
X1444Y2297D01*
X1453Y2276D01*
X1467Y2257D01*
X1486Y2243D01*
X1507Y2234D01*
X1530Y2231D01*
X1553Y2234D01*
X1574Y2243D01*
X1593Y2257D01*
X1607Y2276D01*
X1616Y2297D01*
X1619Y2320D01*
X1616Y2343D01*
X1607Y2364D01*
X1593Y2383D01*
X1574Y2397D01*
X1553Y2406D01*
X1530Y2409D01*
D02*
G37*
G36*
X2300Y2306D02*
X2278Y2303D01*
X2257Y2295D01*
X2239Y2281D01*
X2225Y2263D01*
X2217Y2242D01*
X2214Y2220D01*
X2217Y2198D01*
X2225Y2177D01*
X2239Y2159D01*
X2257Y2145D01*
X2278Y2137D01*
X2300Y2134D01*
X2322Y2137D01*
X2343Y2145D01*
X2361Y2159D01*
X2375Y2177D01*
X2383Y2198D01*
X2386Y2220D01*
X2383Y2242D01*
X2375Y2263D01*
X2361Y2281D01*
X2343Y2295D01*
X2322Y2303D01*
X2300Y2306D01*
D02*
G37*
G36*
X1463Y2125D02*
Y2013D01*
X1575D01*
X1572Y2033D01*
X1560Y2063D01*
X1539Y2089D01*
X1513Y2110D01*
X1483Y2122D01*
X1463Y2125D01*
D02*
G37*
G36*
X1437D02*
X1417Y2122D01*
X1387Y2110D01*
X1361Y2089D01*
X1340Y2063D01*
X1328Y2033D01*
X1325Y2013D01*
X1437D01*
Y2125D01*
D02*
G37*
G36*
X1575Y1987D02*
X1463D01*
Y1875D01*
X1483Y1878D01*
X1513Y1890D01*
X1539Y1911D01*
X1560Y1937D01*
X1572Y1967D01*
X1575Y1987D01*
D02*
G37*
G36*
X1437D02*
X1325D01*
X1328Y1967D01*
X1340Y1937D01*
X1361Y1911D01*
X1387Y1890D01*
X1417Y1878D01*
X1437Y1875D01*
Y1987D01*
D02*
G37*
G36*
X7680Y1530D02*
X7422D01*
Y1438D01*
X7680D01*
Y1530D01*
D02*
G37*
G36*
Y1412D02*
X7422D01*
Y1320D01*
X7680D01*
Y1412D01*
D02*
G37*
G36*
X1000Y1886D02*
X966Y1881D01*
X934Y1868D01*
X907Y1847D01*
X886Y1820D01*
X873Y1788D01*
X868Y1754D01*
X873Y1720D01*
X886Y1688D01*
X907Y1661D01*
X934Y1640D01*
X936Y1640D01*
Y1615D01*
X934Y1614D01*
X907Y1593D01*
X886Y1566D01*
X873Y1534D01*
X868Y1500D01*
X873Y1466D01*
X886Y1434D01*
X907Y1407D01*
X934Y1386D01*
X936Y1385D01*
Y1360D01*
X934Y1360D01*
X907Y1339D01*
X886Y1312D01*
X873Y1280D01*
X868Y1246D01*
X873Y1212D01*
X886Y1180D01*
X907Y1153D01*
X934Y1132D01*
X966Y1119D01*
X1000Y1114D01*
X1034Y1119D01*
X1066Y1132D01*
X1093Y1153D01*
X1114Y1180D01*
X1127Y1212D01*
X1132Y1246D01*
X1127Y1280D01*
X1114Y1312D01*
X1093Y1339D01*
X1066Y1360D01*
X1064Y1360D01*
Y1385D01*
X1066Y1386D01*
X1093Y1407D01*
X1114Y1434D01*
X1127Y1466D01*
X1132Y1500D01*
X1127Y1534D01*
X1114Y1566D01*
X1093Y1593D01*
X1066Y1614D01*
X1064Y1615D01*
Y1640D01*
X1066Y1640D01*
X1093Y1661D01*
X1114Y1688D01*
X1127Y1720D01*
X1132Y1754D01*
X1127Y1788D01*
X1114Y1820D01*
X1093Y1847D01*
X1066Y1868D01*
X1034Y1881D01*
X1000Y1886D01*
D02*
G37*
G36*
X1450Y976D02*
X1417Y972D01*
X1387Y960D01*
X1361Y939D01*
X1340Y913D01*
X1328Y883D01*
X1324Y850D01*
X1328Y817D01*
X1340Y787D01*
X1361Y761D01*
X1387Y740D01*
X1417Y728D01*
X1450Y724D01*
X1483Y728D01*
X1513Y740D01*
X1539Y761D01*
X1560Y787D01*
X1572Y817D01*
X1576Y850D01*
X1572Y883D01*
X1560Y913D01*
X1539Y939D01*
X1513Y960D01*
X1483Y972D01*
X1450Y976D01*
D02*
G37*
G36*
X7680Y680D02*
X7422D01*
Y588D01*
X7680D01*
Y680D01*
D02*
G37*
G36*
Y562D02*
X7422D01*
Y470D01*
X7680D01*
Y562D01*
D02*
G37*
G36*
X5092Y486D02*
X5062Y482D01*
X5034Y471D01*
X5010Y452D01*
X4991Y428D01*
X4980Y400D01*
X4978Y385D01*
X4952D01*
X4950Y400D01*
X4939Y428D01*
X4920Y452D01*
X4896Y471D01*
X4868Y482D01*
X4851Y485D01*
Y370D01*
Y255D01*
X4868Y258D01*
X4896Y269D01*
X4920Y288D01*
X4939Y312D01*
X4950Y340D01*
X4952Y355D01*
X4978D01*
X4980Y340D01*
X4991Y312D01*
X5010Y288D01*
X5034Y269D01*
X5062Y258D01*
X5092Y254D01*
X5122Y258D01*
X5150Y269D01*
X5174Y288D01*
X5193Y312D01*
X5204Y340D01*
X5208Y370D01*
X5204Y400D01*
X5193Y428D01*
X5174Y452D01*
X5150Y471D01*
X5122Y482D01*
X5092Y486D01*
D02*
G37*
%LPD*%
D42*
X4250Y850D02*
D03*
Y3150D02*
D03*
D43*
X2300Y2420D02*
D03*
Y2220D02*
D03*
D58*
X7693Y1425D02*
D03*
Y575D02*
D03*
Y2575D02*
D03*
Y3425D02*
D03*
D64*
X3810Y180D02*
Y390D01*
X2490Y3210D02*
X2586Y3306D01*
X2490Y1730D02*
Y3210D01*
X2430Y1670D02*
X2490Y1730D01*
X2430Y230D02*
Y1670D01*
X2500Y1580D02*
X2560Y1640D01*
X2500Y260D02*
Y1580D01*
X2560Y3120D02*
X2610Y3170D01*
X2560Y1640D02*
Y3120D01*
X5200Y1440D02*
Y2680D01*
X4130Y370D02*
X5200Y1440D01*
X4076Y370D02*
X4130D01*
X5350Y1390D02*
Y2830D01*
X4330Y370D02*
X5350Y1390D01*
X5200Y2680D02*
Y2690D01*
X3700Y70D02*
X3810Y180D01*
X2590Y70D02*
X3700D01*
X2430Y230D02*
X2590Y70D01*
X2586Y3306D02*
X2710D01*
X2640Y120D02*
X3480D01*
X2500Y260D02*
X2640Y120D01*
X3560Y200D02*
Y350D01*
X3480Y120D02*
X3560Y200D01*
X4930Y1680D02*
Y1880D01*
X4830Y1600D02*
Y1870D01*
Y1600D02*
X4890Y1540D01*
X4780Y1530D02*
Y1780D01*
X4890Y1540D02*
X5030D01*
X4780Y1530D02*
X4880Y1430D01*
X2350Y3400D02*
X2360Y3410D01*
X2070Y3400D02*
X2350D01*
X4320Y2240D02*
X4780Y1780D01*
X4930Y1880D02*
X4940Y1890D01*
X4415Y2285D02*
X4830Y1870D01*
X3550Y2390D02*
X3700Y2240D01*
X3550Y2390D02*
Y2580D01*
X3700Y2240D02*
X4320D01*
X3685Y2341D02*
Y2495D01*
X3690Y2500D01*
X3741Y2285D02*
X4415D01*
X3685Y2341D02*
X3741Y2285D01*
X3800Y2400D02*
X4430D01*
X840Y2420D02*
Y2800D01*
X780Y2360D02*
X840Y2420D01*
X430Y2360D02*
X780D01*
X2360Y3410D02*
X2370Y3400D01*
X4430Y2400D02*
X4940Y1890D01*
X960Y2460D02*
Y2700D01*
X400Y2430D02*
X710D01*
X160Y2190D02*
X400Y2430D01*
X250Y2180D02*
X430Y2360D01*
X800Y2300D02*
X960Y2460D01*
X480Y2300D02*
X800D01*
X340Y2160D02*
X480Y2300D01*
X340Y1860D02*
Y2160D01*
Y1860D02*
X446Y1754D01*
X500D01*
X250Y1540D02*
Y2180D01*
Y1540D02*
X290Y1500D01*
X500D01*
X160Y1130D02*
Y2190D01*
Y1130D02*
X298Y992D01*
X500D01*
D65*
X3340Y1280D02*
Y1850D01*
Y1280D02*
X3375Y1245D01*
D69*
X3568Y370D02*
D03*
D70*
X3822D02*
D03*
X4076D02*
D03*
X4330D02*
D03*
X4584D02*
D03*
X4838D02*
D03*
X5092D02*
D03*
X3250Y3750D02*
D03*
X2750D02*
D03*
X500Y2619D02*
D03*
Y3127D02*
D03*
Y2873D02*
D03*
Y1500D02*
D03*
Y1754D02*
D03*
Y1246D02*
D03*
Y992D02*
D03*
X3250Y250D02*
D03*
X2750D02*
D03*
D71*
X2690Y1760D02*
D03*
X3178D02*
D03*
X5400Y740D02*
D03*
X5080Y1970D02*
D03*
X5220Y740D02*
D03*
X5200Y3260D02*
D03*
Y2680D02*
D03*
X4930Y1680D02*
D03*
X4670Y1750D02*
D03*
X5030Y1540D02*
D03*
X4880Y1430D02*
D03*
X5060Y1760D02*
D03*
X2710Y3306D02*
D03*
X2610Y3170D02*
D03*
X2070Y3400D02*
D03*
X1240Y540D02*
D03*
X940Y760D02*
D03*
X2300Y710D02*
D03*
X2250Y3060D02*
D03*
X3550Y2580D02*
D03*
X3813Y2583D02*
D03*
X3780Y2380D02*
D03*
X3750Y2030D02*
D03*
X3340Y1850D02*
D03*
X3490Y2900D02*
D03*
X4000Y2920D02*
D03*
X3630Y3310D02*
D03*
X3780Y3310D02*
D03*
X3530Y2260D02*
D03*
X3030Y2610D02*
D03*
X1910Y2470D02*
D03*
X1908Y3625D02*
D03*
X1600Y3770D02*
D03*
X2370Y3400D02*
D03*
X6900Y2050D02*
D03*
X6700D02*
D03*
X6500D02*
D03*
X6300D02*
D03*
X6050Y750D02*
D03*
X6200D02*
D03*
X5900D02*
D03*
X7300Y650D02*
D03*
X7150Y3650D02*
D03*
X6950D02*
D03*
X7350Y3850D02*
D03*
X7150D02*
D03*
X6950D02*
D03*
X6750D02*
D03*
X6550D02*
D03*
X6350D02*
D03*
X6150D02*
D03*
X5950D02*
D03*
X5750D02*
D03*
X5550D02*
D03*
X5350D02*
D03*
X5150D02*
D03*
X4950D02*
D03*
X7500Y3600D02*
D03*
X7350Y3500D02*
D03*
Y3350D02*
D03*
X7800Y3200D02*
D03*
X7650D02*
D03*
X7500D02*
D03*
X7350D02*
D03*
X7200D02*
D03*
X7060Y3310D02*
D03*
X7850Y2400D02*
D03*
X7700D02*
D03*
X7550D02*
D03*
X7400D02*
D03*
X7800Y2800D02*
D03*
X7650D02*
D03*
X7200Y2850D02*
D03*
X7500Y2800D02*
D03*
X7350D02*
D03*
X7250Y2750D02*
D03*
Y2600D02*
D03*
Y2450D02*
D03*
Y2300D02*
D03*
Y2150D02*
D03*
X7100D02*
D03*
X6950D02*
D03*
X6300Y2250D02*
D03*
Y2450D02*
D03*
Y2650D02*
D03*
X6000Y1000D02*
D03*
X5900Y900D02*
D03*
Y1050D02*
D03*
Y1200D02*
D03*
Y1350D02*
D03*
Y1500D02*
D03*
Y1650D02*
D03*
Y1800D02*
D03*
X6450Y2450D02*
D03*
X7300Y500D02*
D03*
X7400Y400D02*
D03*
Y750D02*
D03*
X7550D02*
D03*
Y400D02*
D03*
X7850Y750D02*
D03*
X7700D02*
D03*
X7400Y1250D02*
D03*
X7850D02*
D03*
X7700D02*
D03*
X7550D02*
D03*
X7300Y1350D02*
D03*
Y1500D02*
D03*
X7400Y1600D02*
D03*
X7550D02*
D03*
X7700D02*
D03*
X7850D02*
D03*
X7650Y850D02*
D03*
X7450D02*
D03*
X7250D02*
D03*
X7050D02*
D03*
X6800D02*
D03*
X6600D02*
D03*
X6400D02*
D03*
X6380Y1440D02*
D03*
X3860Y3000D02*
D03*
X970Y3110D02*
D03*
X6020Y1100D02*
D03*
X6020Y880D02*
D03*
X6480Y3650D02*
D03*
X4990Y740D02*
D03*
X4730Y540D02*
D03*
X3360Y860D02*
D03*
X1900Y2130D02*
D03*
X1530Y2320D02*
D03*
X6490Y2250D02*
D03*
X6480Y2650D02*
D03*
X4270Y1750D02*
D03*
X4520D02*
D03*
X3690Y2500D02*
D03*
X2700Y2600D02*
D03*
X3120Y1960D02*
D03*
X3505Y1895D02*
D03*
X2390Y1880D02*
D03*
X1410Y1120D02*
D03*
X2020Y1650D02*
D03*
X960Y2700D02*
D03*
X720Y2460D02*
D03*
X840Y2800D02*
D03*
X3375Y1245D02*
D03*
X3130Y2390D02*
D03*
X2990Y2780D02*
D03*
X3310Y2975D02*
D03*
X3630Y3050D02*
D03*
X3660Y3640D02*
D03*
X6480Y2850D02*
D03*
Y3050D02*
D03*
Y3250D02*
D03*
Y3450D02*
D03*
X3120Y1540D02*
D03*
D72*
X3350Y3500D02*
D03*
X2650Y500D02*
D03*
D73*
X2650Y3500D02*
D03*
X3350Y500D02*
D03*
D74*
X500Y3381D02*
D03*
Y2008D02*
D03*
D75*
X1450Y850D02*
D03*
Y2000D02*
D03*
D76*
X1000Y1246D02*
D03*
Y1754D02*
D03*
Y1500D02*
D03*
D77*
X250Y250D02*
D03*
Y3750D02*
D03*
X7750Y250D02*
D03*
Y3750D02*
D03*
D78*
X6900Y3450D02*
D03*
Y3250D02*
D03*
Y3050D02*
D03*
Y2850D02*
D03*
Y2650D02*
D03*
X7650Y1100D02*
D03*
X7450D02*
D03*
X7250D02*
D03*
X7050D02*
D03*
X6800Y1110D02*
D03*
D79*
X4830Y3250D02*
X6480D01*
X5350Y2830D02*
X6460D01*
X4604D02*
X5350D01*
X2990Y2780D02*
X3070D01*
X3160Y2690D01*
X3680D01*
X3787Y2583D01*
X2990Y2780D02*
X3020Y2750D01*
X3787Y2583D02*
X3813D01*
X3620Y2030D02*
X3750D01*
X3225Y2425D02*
X3620Y2030D01*
X3520Y2930D02*
Y3600D01*
X3490Y2900D02*
X3520Y2930D01*
X3370Y3750D02*
X3520Y3600D01*
X4000Y2920D02*
X4000D01*
X4060Y2860D01*
X3730Y3260D02*
X3780Y3310D01*
X3730Y2980D02*
Y3260D01*
X3875Y3015D02*
Y3275D01*
X3860Y3000D02*
X3875Y3015D01*
Y3275D02*
X4050Y3450D01*
X3630Y3310D02*
X3650D01*
X3660Y3320D01*
X3005Y2975D02*
X3310D01*
X2880Y2850D02*
X3005Y2975D01*
X2880Y380D02*
Y2850D01*
X3045Y2610D02*
X3225Y2429D01*
X3030Y2610D02*
X3045D01*
X3225Y2425D02*
Y2429D01*
X3000Y2260D02*
X3130Y2390D01*
X3000Y1660D02*
Y2260D01*
Y1660D02*
X3120Y1540D01*
X4050Y3450D02*
X6480D01*
X3900Y2810D02*
X4520D01*
X3730Y2980D02*
X3900Y2810D01*
X3860Y2750D02*
X4524D01*
X3630Y2980D02*
X3860Y2750D01*
X3630Y2980D02*
Y3050D01*
X4440Y2860D02*
X4830Y3250D01*
X4060Y2860D02*
X4440D01*
X4520Y2810D02*
X4760Y3050D01*
X4524Y2750D02*
X4604Y2830D01*
X6460D02*
X6480Y2850D01*
X4760Y3050D02*
X6480D01*
X3250Y3750D02*
X3370D01*
X2750Y250D02*
X2880Y380D01*
X3660Y3320D02*
Y3640D01*
M02*
