M48
;Layer_Color=9474304
;FILE_FORMAT=4:2
METRIC,LZ
;TYPE=PLATED
T1F00S00C0.50
T2F00S00C0.60
T3F00S00C0.66
T4F00S00C1.00
T5F00S00C1.20
T6F00S00C1.40
T7F00S00C3.20
%
T01
X0077Y00075
X00785
X00765Y00085
Y0011
X0077Y00125
X00785
Y0016
X0077
Y0024
X00785
X0078Y0028
X00765
Y0032
X0078
X0075
X00735
Y00335
Y0035
X0075Y0036
X00735Y00385
X00715
Y00365
X00695
Y00385
X00675
X00655
X00635
X00615
X00595
X00575
X00555
X00535
X00515
X00495
X00366Y00364
X00365Y00331
X00378
X00386Y003
X00398Y00294
X00363Y00305
X00369Y0025
X0038Y00242
Y0026
X00375Y00203
X00427Y00175
X00452
X00467
X00494Y00165
X00503Y00154
X00494Y00143
X00506Y00176
X0059Y0018
Y00165
Y0015
Y00135
Y0012
Y00105
X006Y001
X00602Y0011
X00602Y00088
X0059Y0009
Y00075
X00605
X0062
X0064Y00085
X0066
X0068
Y0011
X00705
X00725
X00745
X0074Y00125
X00755
X0073Y00135
Y0015
X0074Y0016
X00755
Y0024
X0074
X00725Y00245
Y0026
Y00275
X0072Y00285
X00735Y0028
X0075
X0069Y00285
Y00265
Y00305
Y00325
Y00345
X00705Y0033
X0072Y0032
X00648Y00325
Y00345
Y00365
Y00305
Y00285
Y00265
X0063
Y00245
X00645
X00649Y00225
X0063
Y00205
X0065
X0067
X0069
X00695Y00215
X0071
X00725
Y0023
Y00085
X00705
X00745
X0074Y00075
X00755
X0073Y00065
Y0005
X0074Y0004
X00755
X00639Y00117
X00638Y00144
X0053Y00075
X00515
X00499Y00074
X00473Y00054
X003375Y001245
X00312Y00154
Y00196
X00338Y00188
X003505Y001895
X00352Y00226
X00355Y00259
X003458Y002942
X00331Y002975
X00299Y00278
X00299Y00266
X0027Y0026
X00313Y00239
X00239Y00188
X00202Y00165
X0019Y00213
X00189Y00251
X00153Y00232
X00096Y0027
X00084Y0028
X00097Y00311
X00072Y00246
X00141Y00112
X00167Y00121
X00178Y00082
X001723Y00073
X00221Y00089
X00221Y00032
X00233Y00306
T02
X0023Y00222
Y00242
T03
X00269Y00176
X003178
T04
X0005Y000992
Y001246
Y0015
Y001754
Y002008
Y002619
Y002873
Y003127
Y003381
X00145Y002
Y00085
X00275Y00025
X00325
Y00375
X00275
T05
X001Y001246
Y0015
Y001754
T06
X00265Y0005
X00335
X00335Y0035
X00265
T07
X00775Y00025
Y00375
X00425Y00315
Y00085
X00025Y00025
Y00375
M30
